<svg width="64" height="40" viewBox="0 0 64 40" fill="none" xmlns="http://www.w3.org/2000/svg"><g><clipPath id="clip"><rect x="12" y="10" width="16" height="24"></rect></clipPath><g clip-path="url( #clip )"><path d="M21.866,12.89C21.233,13.647 20.22,14.244 19.208,14.159C19.081,13.135 19.577,12.047 20.157,11.376C20.79,10.597 21.897,10.043 22.794,10C22.899,11.066 22.488,12.111 21.866,12.89ZM22.783,14.361C21.891,14.31 21.077,14.633 20.42,14.894C19.997,15.062 19.639,15.204 19.366,15.204C19.06,15.204 18.687,15.054 18.268,14.886C17.72,14.65 17.092,14.413 16.434,14.425C14.926,14.447 13.523,15.31 12.753,16.686C11.171,19.437 12.342,23.511 13.871,25.75C14.62,26.859 15.517,28.075 16.698,28.032C17.217,28.012 17.591,27.852 17.978,27.686C18.424,27.495 18.886,27.296 19.609,27.296C20.306,27.296 20.749,27.49 21.173,27.675C21.577,27.852 21.965,28.021 22.541,28.011C23.764,27.989 24.534,26.902 25.283,25.793C26.091,24.602 26.446,23.441 26.5,23.265L26.506,23.244C26.505,23.243 26.495,23.238 26.478,23.23L26.477,23.23C26.207,23.105 24.142,22.149 24.123,19.587C24.103,17.435 25.76,16.346 26.021,16.174C26.037,16.163 26.048,16.157 26.053,16.153C24.998,14.575 23.353,14.404 22.783,14.361ZM31.252,27.893L31.252,11.269L37.422,11.269C40.608,11.269 42.833,13.487 42.833,16.729C42.833,19.97 40.565,22.21 37.338,22.21L33.805,22.21L33.805,27.893L31.252,27.893ZM33.805,13.444L36.747,13.444C38.962,13.444 40.228,14.639 40.228,16.739C40.228,18.84 38.962,20.045 36.737,20.045L33.805,20.045L33.805,13.444ZM51.26,25.899C50.585,27.2 49.098,28.021 47.495,28.021C45.122,28.021 43.466,26.592 43.466,24.438C43.466,22.306 45.069,21.079 48.033,20.898L51.218,20.706L51.218,19.789C51.218,18.435 50.342,17.699 48.781,17.699C47.495,17.699 46.556,18.371 46.366,19.395L44.067,19.395C44.141,17.241 46.145,15.673 48.855,15.673C51.777,15.673 53.675,17.219 53.675,19.619L53.675,27.893L51.313,27.893L51.313,25.899L51.26,25.899ZM48.18,26.049C46.82,26.049 45.955,25.387 45.955,24.374C45.955,23.329 46.788,22.722 48.381,22.626L51.218,22.444L51.218,23.383C51.218,24.94 49.91,26.049 48.18,26.049ZM61.511,28.544C60.488,31.455 59.318,32.415 56.829,32.415C56.639,32.415 56.006,32.393 55.858,32.351L55.858,30.357C56.017,30.378 56.407,30.399 56.607,30.399C57.736,30.399 58.368,29.919 58.759,28.672L58.991,27.936L54.667,15.833L57.335,15.833L60.341,25.654L60.393,25.654L63.399,15.833L65.994,15.833L61.511,28.544Z" fill="#000"></path></g></g><path d="M51.983,20.08C51.984,19.542 51.937,19.005 51.842,18.474L44.153,18.474L44.153,21.516L48.557,21.516C48.375,22.498 47.787,23.366 46.929,23.917L46.929,25.892L49.557,25.892C51.096,24.517 51.983,22.484 51.983,20.08Z" fill="rgb( 66, 133, 244 )"></path><path d="M44.153,27.8C46.353,27.8 48.206,27.1 49.557,25.893L46.929,23.918C46.197,24.399 45.255,24.673 44.153,24.673C42.026,24.673 40.221,23.284 39.576,21.412L36.868,21.412L36.868,23.448C38.252,26.116 41.071,27.8 44.153,27.8Z" fill="rgb( 52, 168, 83 )"></path><path d="M39.576,21.412C39.235,20.431 39.235,19.369 39.576,18.388L39.576,16.353L36.868,16.353C35.711,18.585 35.711,21.216 36.868,23.448L39.576,21.412Z" fill="rgb( 251, 188, 4 )"></path><path d="M44.153,15.128C45.316,15.109 46.439,15.535 47.281,16.313L49.608,14.058C48.132,12.715 46.177,11.978 44.153,12.001C41.071,12.001 38.252,13.685 36.868,16.353L39.576,18.388C40.221,16.517 42.026,15.128 44.153,15.128Z" fill="rgb( 234, 67, 53 )"></path></svg>