<svg width="44" height="8" viewBox="0 0 1096 205" version="1.1" xmlns="http://www.w3.org/2000/svg" xmlns:xlink="http://www.w3.org/1999/xlink">
	<title>clearpay-logo-black</title>
	<g id="Page-1" stroke="none" stroke-width="1" fill="none" fill-rule="evenodd">
		<g id="clearpay-logo-black" fill="#000000" fill-rule="nonzero">
			<g id="Group" transform="translate(423.000000, 0.000000)">
				<polygon id="Path" points="447.466529 48.2027027 372.596433 202.691441 341.577503 202.691441 369.549931 144.977477 325.606447 48.2027027 357.456241 48.2027027 385.705624 113.027027 416.539918 48.2027027"></polygon>
				<g transform="translate(0.000000, 46.171171)">
					<path d="M162.572428,56.8828829 C162.572428,39.1531532 149.186283,25.4864865 132.753635,25.4864865 C116.320988,25.4864865 102.934842,38.6914414 102.934842,56.8828829 C102.934842,74.8896396 116.320988,88.2792793 132.753635,88.2792793 C149.186283,88.2792793 162.572428,74.6126126 162.572428,56.8828829 M75.7009602,156.52027 L75.7009602,2.03153153 L102.657888,2.03153153 L102.657888,16.2522523 C110.781893,6.18693694 122.875583,-4.26325641e-14 137.277229,-4.26325641e-14 C166.911385,-4.26325641e-14 190.175583,24.3783784 190.175583,56.6058559 C190.175583,88.8333333 166.449794,113.396396 136.631001,113.396396 C122.783265,113.396396 111.428121,107.948198 103.488752,98.713964 L103.488752,156.427928 L75.7009602,156.427928 L75.7009602,156.52027 Z" id="Shape"></path>
					<path d="M287.479012,56.8828829 C287.479012,38.4144144 274.092867,25.4864865 257.660219,25.4864865 C241.227572,25.4864865 227.841427,38.6914414 227.841427,56.8828829 C227.841427,74.8896396 241.227572,88.2792793 257.660219,88.2792793 C274.092867,88.2792793 287.479012,75.259009 287.479012,56.8828829 M287.663649,111.734234 L287.663649,97.5135135 C279.539643,107.394144 267.445953,113.488739 253.044307,113.488739 C222.94856,113.488739 200.145953,89.3873874 200.145953,56.8828829 C200.145953,24.6554054 223.871742,0.0923423423 253.690535,0.0923423423 C267.722908,0.0923423423 279.539643,6.27927928 287.663649,15.8828829 L287.663649,2.03153153 L314.620576,2.03153153 L314.620576,111.734234 L287.663649,111.734234 Z" id="Shape"></path>
					<path d="M27.0492455,12.7432432 C27.0492455,12.7432432 33.8807956,0 50.7750343,0 C57.9758573,0 62.5917695,2.49324324 62.5917695,2.49324324 L62.5917695,30.472973 C62.5917695,30.472973 52.4367627,24.1936937 43.11262,25.4864865 C33.7884774,26.7792793 27.8801097,35.2747748 27.8801097,46.7252252 L27.8801097,111.734234 L-1.04953692e-13,111.734234 L-1.04953692e-13,2.03153153 L26.9569273,2.03153153 L26.9569273,12.7432432 L27.0492455,12.7432432 Z" id="Path"></path>
				</g>
				<path d="M656.844307,42.0157658 L624.902195,23.731982 L592.498491,5.17117117 C571.080658,-7.11036036 544.308368,8.31081081 544.308368,33.0585586 L544.308368,37.213964 C544.308368,39.5225225 545.508505,41.6463964 547.539506,42.7545045 L562.58738,51.3423423 C566.741701,53.7432432 571.911523,50.6959459 571.911523,45.8941441 L571.911523,36.0135135 C571.911523,31.1193694 577.173663,28.0720721 581.420302,30.472973 L610.96214,47.463964 L640.41166,64.3626126 C644.658299,66.7635135 644.658299,72.9504505 640.41166,75.3513514 L610.96214,92.25 L581.420302,109.240991 C577.173663,111.641892 571.911523,108.594595 571.911523,103.70045 L571.911523,98.8063063 C571.911523,74.0585586 545.139232,58.545045 523.721399,70.9189189 L491.317695,89.4797297 L459.375583,107.763514 C437.865432,120.137387 437.865432,151.256757 459.375583,163.630631 L491.317695,181.914414 L523.721399,200.475225 C545.139232,212.756757 571.911523,197.335586 571.911523,172.587838 L571.911523,168.432432 C571.911523,166.123874 570.711385,164 568.680384,162.891892 L553.63251,154.304054 C549.478189,151.903153 544.308368,154.95045 544.308368,159.752252 L544.308368,169.632883 C544.308368,174.527027 539.046228,177.574324 534.799588,175.173423 L505.25775,158.182432 L475.80823,141.283784 C471.561591,138.882883 471.561591,132.695946 475.80823,130.295045 L505.25775,113.396396 L534.799588,96.4054054 C539.046228,94.0045045 544.308368,97.0518018 544.308368,101.945946 L544.308368,106.84009 C544.308368,131.587838 571.080658,147.101351 592.498491,134.727477 L624.902195,116.166667 L656.844307,97.8828829 C678.354458,85.4166667 678.354458,54.3896396 656.844307,42.0157658 Z" id="Path"></path>
			</g>
			<g id="Group" transform="translate(0.000000, 3.000000)">
				<path d="M112.828018,114.240588 C106.92369,139.452941 85.2437358,156.815294 57.1981777,156.815294 C24.8166287,156.815294 0.461275626,132.434118 0.461275626,100.202941 C0.461275626,67.9717647 25.1856492,43.4058824 57.6594533,43.4058824 C85.0592255,43.4058824 106.462415,60.7682353 112.643508,85.5188235 L84.1366743,85.5188235 C79.0626424,75.6370588 69.0068337,69.08 57.8439636,69.08 C41.6070615,69.08 28.0455581,82.4711765 28.0455581,100.202941 C28.0455581,117.934706 41.6070615,131.325882 57.8439636,131.325882 C69.4681093,131.325882 79.523918,124.768824 84.3211845,114.240588 L112.828018,114.240588 Z" id="Path"></path>
				<polygon id="Path" points="125.651481 155.060588 125.651481 0.277058824 153.235763 0.277058824 153.235763 155.060588"></polygon>
				<path d="M194.750569,107.498824 C196.687927,123.752941 208.312073,132.895882 222.980638,132.895882 C234.604784,132.895882 243.553531,127.447059 248.812073,118.673529 L277.042141,118.673529 C270.492027,141.946471 249.642369,156.815294 222.242597,156.815294 C189.123007,156.815294 165.96697,133.542353 165.96697,100.48 C165.96697,67.4176471 190.506834,43.4982353 222.888383,43.4982353 C255.546697,43.4982353 279.164009,67.6023529 279.164009,100.48 C279.164009,102.881176 278.979499,105.282353 278.518223,107.498824 L194.750569,107.498824 L194.750569,107.498824 Z M249.734624,90.3211765 C247.797267,76.0988235 236.173121,67.51 222.611617,67.51 C209.050114,67.51 197.887244,75.8217647 195.027335,90.3211765 L249.734624,90.3211765 Z" id="Shape"></path>
				<path d="M377.692483,155.060588 L377.692483,140.838235 C369.574032,150.72 357.580866,156.815294 343.096811,156.815294 C313.113895,156.815294 290.326879,132.711176 290.326879,100.202941 C290.326879,67.9717647 313.944191,43.4058824 343.742597,43.4058824 C357.765376,43.4058824 369.574032,49.5011765 377.692483,59.1982353 L377.692483,45.3452941 L404.630979,45.3452941 L404.630979,154.968235 L377.692483,154.968235 L377.692483,155.060588 Z M377.415718,100.202941 C377.415718,81.8247059 364.038724,68.8029412 347.617312,68.8029412 C331.1959,68.8029412 317.818907,81.9170588 317.818907,100.202941 C317.818907,118.211765 331.1959,131.602941 347.617312,131.602941 C364.038724,131.602941 377.415718,118.673529 377.415718,100.202941 Z" id="Shape"></path>
			</g>
		</g>
	</g>
</svg>
