<svg viewBox="0 0 27 12" fill="none" xmlns="http://www.w3.org/2000/svg"><path fill-rule="evenodd" clip-rule="evenodd" d="M5.306 1.992c-.305.365-.793.653-1.28.612-.062-.493.177-1.018.457-1.341C4.787.888 5.32.62 5.753.6c.05.514-.147 1.017-.447 1.392zm.44.71c-.43-.026-.821.13-1.138.256-.204.08-.377.15-.508.15-.147 0-.327-.073-.529-.154-.264-.106-.567-.228-.884-.222-.726.01-1.402.427-1.773 1.09C.15 5.147.715 7.11 1.452 8.189c.361.534.793 1.12 1.362 1.1.25-.01.43-.088.617-.167.215-.093.438-.188.786-.188.336 0 .55.093.754.182.194.085.381.167.659.162.59-.01.96-.534 1.32-1.069.39-.573.561-1.133.587-1.218l.003-.01-.014-.006c-.13-.06-1.125-.521-1.134-1.756-.01-1.036.789-1.562.915-1.644l.015-.01c-.508-.76-1.301-.843-1.576-.864zm4.081 6.52v-8.01H12.8c1.535 0 2.607 1.068 2.607 2.63 0 1.562-1.093 2.641-2.648 2.641h-1.702v2.739h-1.23zM11.06 2.26h1.417c1.068 0 1.677.575 1.677 1.587s-.61 1.593-1.682 1.593H11.06V2.26zm8.408 6c-.325.628-1.042 1.023-1.814 1.023-1.143 0-1.941-.688-1.941-1.726 0-1.028.772-1.619 2.2-1.706l1.535-.093v-.441c0-.653-.422-1.007-1.174-1.007-.62 0-1.072.323-1.164.817h-1.108c.036-1.038 1.001-1.794 2.307-1.794 1.408 0 2.323.745 2.323 1.901v3.987h-1.139v-.96h-.025zm-1.484.073c-.655 0-1.072-.319-1.072-.807 0-.504.401-.796 1.169-.843l1.367-.087v.452c0 .75-.63 1.285-1.464 1.285zm6.424 1.202c-.493 1.403-1.057 1.865-2.257 1.865-.091 0-.396-.01-.467-.03v-.962c.076.01.264.02.36.02.544 0 .85-.23 1.037-.831l.112-.355L21.11 3.41h1.285l1.449 4.732h.025l1.448-4.732h1.25l-2.16 6.125z" fill="#000"/></svg>
