<svg viewBox="0 0 29 12" fill="none" xmlns="http://www.w3.org/2000/svg"><path fill-rule="evenodd" clip-rule="evenodd" d="M13.89 9.042V5.876h1.713c.706 0 1.3-.222 1.78-.666a2.135 2.135 0 00.743-1.66 2.145 2.145 0 00-.743-1.65 2.53 2.53 0 00-1.78-.676h-2.75v7.818h1.037zm-.001-4.126v-2.73h1.738c.387-.01.76.14 1.026.415.266.25.416.595.416.955s-.15.705-.416.955c-.268.269-.64.416-1.026.405h-1.738zM22.33 4.114c-.444-.397-1.049-.596-1.815-.596-.984 0-1.727.35-2.23 1.048l.913.557c.338-.473.796-.71 1.375-.71.369-.004.726.127 1 .367.274.219.43.545.428.889v.23c-.398-.22-.905-.328-1.52-.328-.721 0-1.298.164-1.73.491-.431.327-.647.767-.647 1.32-.01.505.216.986.614 1.31.41.35.918.525 1.526.525.713 0 1.284-.306 1.713-.917h.045v.742h.992V5.745c0-.69-.221-1.235-.665-1.631zM19.517 8.06a.794.794 0 01-.344-.655c0-.292.14-.534.425-.734.28-.197.632-.295 1.053-.295.578 0 1.029.125 1.352.374 0 .422-.172.79-.515 1.103-.31.3-.729.468-1.166.469a1.29 1.29 0 01-.805-.262zM28.685 3.693L25.224 11.4h-1.07l1.284-2.697-2.276-5.01h1.127l1.645 3.843h.022l1.6-3.843h1.129z" fill="#FFF"/><path fill-rule="evenodd" clip-rule="evenodd" d="M9.703 5.194c0-.306-.026-.612-.08-.913H5.252v1.73h2.504a2.076 2.076 0 01-.926 1.364v1.123h1.494c.875-.782 1.38-1.937 1.38-3.304z" fill="#4285F4"/><path fill-rule="evenodd" clip-rule="evenodd" d="M5.25 9.583c1.25 0 2.303-.398 3.071-1.084L6.827 7.376c-.416.273-.951.43-1.578.43-1.209 0-2.235-.79-2.602-1.855h-1.54v1.157c.787 1.517 2.39 2.475 4.142 2.475z" fill="#34A853"/><path fill-rule="evenodd" clip-rule="evenodd" d="M2.648 5.951a2.612 2.612 0 010-1.719V3.075h-1.54a4.367 4.367 0 000 4.033l1.54-1.157z" fill="#FBBC04"/><path fill-rule="evenodd" clip-rule="evenodd" d="M5.25 2.378c.66-.01 1.299.232 1.777.674L8.35 1.77A4.534 4.534 0 005.25.6c-1.753 0-3.356.958-4.143 2.475l1.54 1.157a2.764 2.764 0 012.602-1.854z" fill="#EA4335"/></svg>
