<svg id="Layer_1" data-name="Layer 1" xmlns="http://www.w3.org/2000/svg" viewBox="0 0 750 374" preserveAspectRatio="xMidYMid meet"><defs><style>.cls-1{fill:#ec6c00}.cls-2{fill:#003f96}</style></defs><path class="cls-1" d="M326 287l-8 2-7 3-5 4a10 10 0 00-3 5l2 5c2 2 5 2 5 2l6-2 2-4-2-7 4-2 6-1 6 2 4 4 1 3 1 4v5l-12 4-12 4-5 3-4 3a16 16 0 00-4 4l-1 7c0 6 5 10 5 10 5 4 12 4 12 4l9-1 3-1 9-7a10 10 0 004 6c3 3 8 3 8 3l5-1 6-2v-3h-4l-4-1-2-2-1-4v-29l-1-10-6-6-7-3-10-1zm12 28v21l-6 4-6 3h-3a10 10 0 01-7-3c-2-2-2-7-2-7a13 13 0 011-6l6-5 7-4 10-3zm23-26h29v4l-4 1-3 2v1l16 35 16-34-3-3-6-2v-4h24v4l-5 2a14 14 0 00-5 5l-13 30-17 32-7 8-5 3-5 1s-5 0-8-2a6 6 0 01-2-5l1-5a8 8 0 015-2l3 1 3 1 4 5 8-8s6-10 4-18l-19-42-5-4-6-2v-4m-100-1l-8 2-9 6v-7l-1-1-22 2v4h4l3 1 3 3 1 3v63l-1 3-3 2-3 1h-4v4h36v-4l-9-2-3-2-1-3v-18l7 3 9 1h1l11-2 9-7 7-9 2-13-2-12a33 33 0 00-6-10 27 27 0 00-8-6l-11-2zm0 8c9 1 13 8 13 8 5 5 4 14 4 14a26 26 0 01-4 14c-5 7-13 8-13 8-7 1-17-5-17-5v-34a43 43 0 0117-5zM95 262l-30 71-3 5-4 3-5 2h-4v4h35v-4l-9-1c-4-2-4-4-4-4v-2l6-18h33l7 19 1 2v1c0 2-3 2-3 2l-9 1v4h39v-4h-4l-4-1-4-4a7 7 0 01-2-3l-31-73zm-2 19h1l13 32H80zm102 0a8 8 0 01-6-3 8 8 0 01-3-5 9 9 0 013-6 9 9 0 016-2 10 10 0 016 2l2 5-2 6a10 10 0 01-6 3m11 9v47l1 3 3 2 6 2v3h-31v-3l5-1 3-2 1-3v-36l-1-4-3-3-3-1h-4v-4l22-2 1 1m-40-33l-23 1h-1v4h1l4 1 4 1 3 3 1 4v68l-1 3-3 2-6 1v3h31v-3l-3-1-3-1-2-1-1-4v-80l-1-1m424 34l22-2 1 2v8l4-4 5-3a23 23 0 015-3h7l11 3 7 7 4-4 5-3a24 24 0 015-3h8s8 0 13 5c0 0 5 5 5 14v33l3 3h3l4 1v3h-32v-3l6-1 3-2v-33s0-7-3-10a12 12 0 00-7-3h-7l-5 3-3 3-2 3v33l1 3 3 3h3l3 1v3h-31v-3l5-1 3-2 1-3v-30s0-7-3-10a11 11 0 00-8-3h-6l-5 3-3 3-2 2v34l1 3 2 2 3 1 3 1v3h-31v-3l6-1 3-2 1-3v-37l-1-3-3-3-3-1h-4v-4m-126 31s0 11 6 18c0 0 6 8 15 8l12-3 9-9 4 3a37 37 0 01-12 11 36 36 0 01-16 4s-15 0-23-8a35 35 0 01-9-24 35 35 0 012-12 36 36 0 017-10 38 38 0 0110-7 40 40 0 0114-3s10 0 17 4c0 0 6 5 6 12l-2 5-5 3-7-2-2-4 1-6 1-4-4-3h-5l-7 1-6 5-4 8a44 44 0 00-2 13m85-32a40 40 0 00-24 9c-9 9-9 23-9 23a37 37 0 002 14l8 10a39 39 0 0010 7l13 2 15-3a34 34 0 0010-7l7-10 3-13a33 33 0 00-10-23c-9-9-24-9-24-9h-1zm0 5h1l9 2 6 6 3 9 1 10c0 13-5 21-5 21a19 19 0 01-14 7h-1l-8-2-6-7-4-9a61 61 0 01-1-11l1-9 3-9a26 26 0 017-6 21 21 0 018-2zm-118 55a5 5 0 005-5s0-6-5-6c0 0-6 0-6 6 0 0 0 5 6 5"/><path d="M701 0v2h5v16h3V2h5V0zm16 0v18h2V3l6 15h2l5-15v15h2V0h-3l-5 15-6-15z"/><path class="cls-2" d="M586 0l-9 1s-10 2-10 6v14l-41 1v-7h-19s-18 1-18 7v51h78v35h-54v14h54v80l40-5v-75h58v-14h-58V73h68v-7h2s5 0 8-9l3-23s0-17-18-17l-63 3V0zm62 32a6 6 0 016 6l-3 21H526V36l41-1 40-1z"/><path class="cls-1" d="M342 108l12 15 15 13s5 4 9 0l14-13 13-15s5-4 0-9l-12-15-15-13s-4-4-9 0l-14 13-13 15s-4 5 0 9m335 46a6 6 0 000-7l-10-11-12-10a5 5 0 00-6 0l-11 10-10 11s-3 3 0 7l10 11 11 10s3 3 6 0l12-10 10-11"/><path class="cls-2" d="M78 91h120a166 166 0 01-13 31s-15 29-38 51c0 0-43 40-71 40 0 0-20 0-34-7 0 0-16-10-16-31 0 0 0-28 42-36 0 0-27-2-41 13 0 0-14 12-14 34 0 0 0 21 19 34a79 79 0 0042 11h6s47-2 91-39c0 0 38-31 57-76a188 188 0 009-28l2-11h-65V46h82V33h-82V1h-21l-9 1s-10 2-10 6v25H56v13h78v31H78v14M346 0v7l-5 16a95 95 0 01-12 20v158l-40-5V71l-28 12-5-8a238 238 0 0027-23s27-27 27-45c0 0 0-4 9-6l9-1h18"/><path class="cls-2" d="M335 60h76v146h40V60h21V46h-21V0h-22l-9 1s-9 2-9 6v39h-76v14"/><path class="cls-1" d="M153 145s-51-22-83-23c0 0-26-2-47 13 0 0-22 16-23 39 0 0 0 27 22 43 0 0 20 14 52 14h3-5s-24 0-40-12c0 0-18-13-18-34 0 0 0-23 16-35 0 0 13-10 35-10l31 4 25 9 57 29s40 21 77 33c0 0 132 44 425 15l16-3s6-2 10-9c0 0 4-6 30-30 0 0 19-17 13-22l-9 1s-96 22-243 28c0 0-164 6-246-17 0 0-56-16-98-33"/></svg>