<svg id="Layer_1" data-name="Layer 1" xmlns="http://www.w3.org/2000/svg" viewBox="0 0 750 374.01" preserveAspectRatio="xMidYMid meet"><defs><style>.cls-1{fill:#ec6c00;}.cls-2{fill:#003f96;}</style></defs><title>alipay</title><path class="cls-1" d="M325.82,287.4l-7.34,1.4-7.33,2.79-5.59,4.2a10.21,10.21,0,0,0-2.09,5.58l1.74,4.54c1.4,2.1,4.54,2.1,4.54,2.1l5.94-1.75,2.1-3.84-1.4-7.68,3.84-2.1,5.59-.7,6.63,1.75,3.49,3.84,1.4,3.84.7,3.15v5.58l-12.22,4.19-11.88,3.85-5.23,2.44-4.19,3.14a16.37,16.37,0,0,0-3.15,4.54l-1.05,6.29c0,6.28,4.89,10.48,4.89,10.48,4.54,4.19,11.88,4.19,11.88,4.19l8.73-1.4,2.79-1.05,9.43-6.29a9.73,9.73,0,0,0,4.19,5.94c2.79,2.45,8,2.45,8,2.45l5.24-.7,5.24-1.75v-3.49h-4.19l-3.15-1.05-2.79-2.09L349.56,336l.7-29.34-1.74-9.43-5.24-5.93-7.34-3.15-10.12-.7ZM338,315l-.35,20.61-5.94,4.88-5.93,2.1h-2.45a10.25,10.25,0,0,1-7-2.45c-2.79-2.44-2.79-7.33-2.79-7.33a13.21,13.21,0,0,1,1.74-6.29l5.24-4.88,7.68-3.5L338,315Zm23-25.84h29.33v4.19l-4.54.7s-2.79.7-2.79,1.74l.35,1.05,16.06,34.92,15.37-34.22-2.8-2.79L406.14,293v-3.84h23.74V293L425,294.74a13.64,13.64,0,0,0-4.88,5.24l-13.62,29.68-16.77,32.83-6.28,7.33-5.24,3.49L373,374s-4.54,0-7.68-2.44a6.27,6.27,0,0,1-2.79-4.89l1.39-4.54a7.72,7.72,0,0,1,4.89-2.1l3.49.7,2.45,1.75,3.84,4.89,8-8s6.64-10.13,4.19-18.16l-19.21-41.9L367,295.09l-5.93-2.1v-3.84m-99.88-1.4-8.38,2.1-8.38,5.93h-.7v-6.63l-1.05-.7-21.65,1.4v3.84l4.19.7,3.15,1.05,2.44,2.44,1,3.49v62.16l-.7,3.49-2.79,2.1-3.49.7h-3.85V374h36v-4.19l-9.43-1.4-2.44-2.09-1.4-3.5V345.37h.7l6.29,2.45,9.43,1.39h1l10.48-2.09,9.43-6.64,7-9.42,2.45-12.93-2.1-12.22a32.94,32.94,0,0,0-6.28-9.78,27.47,27.47,0,0,0-8.38-6.28L263,287.75Zm-.35,8.72h.35c8.38.7,13.27,7.34,13.27,7.34,4.19,5.58,3.84,14,3.84,14a25.61,25.61,0,0,1-4.53,14.31c-4.55,6.64-12.58,7.69-12.58,7.69-7.68.69-17.46-4.54-17.46-4.54V300.67a42.55,42.55,0,0,1,17.11-4.2ZM95,262.26,64.61,332.8l-2.8,4.89-4.19,3.49-4.19,1.75-4.19.35v4.19H84.16v-4.19l-9.08-1.4c-4.54-1.4-4.54-3.84-4.54-3.84l.35-2.44,6.29-17.47h32.47l7.69,19.21.35,1.4v1.4c0,1.39-3.15,1.74-3.15,1.74l-8.38,1.4v4.19h38.42v-4.19l-3.85-.35-4.19-1.4-3.14-3.14A6.74,6.74,0,0,1,131,334.9l-30.73-72.64Zm-1.75,18.51h.35l13.62,32.48H79.62Zm101.27,0a8,8,0,0,1-5.58-2.45,7.81,7.81,0,0,1-2.45-5.58,9.26,9.26,0,0,1,2.45-5.59,8.9,8.9,0,0,1,5.58-2.44,9.9,9.9,0,0,1,6.29,2.44l2.09,5.24-2.09,5.93a9.53,9.53,0,0,1-6.29,2.45M206,289.5V337l1,3.49,2.8,1.75,5.94,1.4v3.84H184.74v-3.84l5.58-.7,2.8-1.75,1-3.49v-36l-1-3.84-2.8-2.44-3.49-1.05-4.19-.7v-3.84l22.7-1.4.7,1.05m-40.16-33.87L143.18,257l-1.4.35v3.49h1.4l3.49.7,4.19,1.4,2.8,2.79,1,4.19v67.75l-1,3.49-2.8,1.75-5.93.7v3.84h31.42v-3.84l-3.14-.35-2.79-1-2.8-1.74-.69-3.5V256.67l-1.05-1m424.29,34.22,21.65-1.4,1,1.05v8h.35l3.84-3.49,4.54-3.14a22.8,22.8,0,0,1,5.59-2.45l7.33-.7,10.83,2.8,6.64,7.33,3.84-3.49,4.89-3.15a23.68,23.68,0,0,1,5.58-2.79l7.69-.7s8.38,0,12.92,4.89c0,0,4.89,4.89,4.89,14.67V337l.69,3.49,2.45,2.1,3.14.7,3.49.35v3.84H670.14v-3.84l5.59-.7,2.79-1.75.7-3.49v-30s0-6.29-2.79-9.78a11.86,11.86,0,0,0-7.68-3.14l-6.29.7-5.24,2.44-3.14,2.79-1.75,2.8V337l.7,3.49,2.8,2.1,2.79.7,3.14.35v3.84H631v-3.84l5.24-.7,2.79-1.75.7-3.49v-30s0-6.29-2.79-9.78a10.83,10.83,0,0,0-7.68-3.14l-5.94.7-5.24,2.44L615,301l-2.1,2.45V337l.7,3.49,2.79,1.75,2.8,1,3.14.35v3.84H591.22v-3.84l5.94-.7,2.79-1.75.7-3.49V301.37l-1-3.49-2.44-2.44L594,294.39l-3.85-.7v-3.84M464.46,320.58s0,11.87,5.93,18.86c0,0,5.59,7.33,15,7.33l11.52-3.14,8.73-8.73,4.19,2.79A37.3,37.3,0,0,1,498,349.21a36.08,36.08,0,0,1-16.06,4.2s-14.67,0-23.4-8.73a35.36,35.36,0,0,1-8.73-23.75,35,35,0,0,1,2.44-11.87,35.81,35.81,0,0,1,6.64-10.48,38.47,38.47,0,0,1,10.47-7A40.08,40.08,0,0,1,483,288.8s10.13,0,16.77,4.19c0,0,6.28,4.89,6.28,11.88l-1.74,5.58-5.24,2.1-6.64-1.75S490,309.4,490,307l1.05-5.59,1.05-4.54-3.85-2.44-5.58-.7-6.29,1.05-5.94,4.89L466.2,308a43.84,43.84,0,0,0-1.74,12.57m84.85-31.78a39.82,39.82,0,0,0-24.44,9.08c-9.08,9.08-9.08,23.4-9.08,23.4a37.05,37.05,0,0,0,2.45,13.62l7.33,10.47a38.66,38.66,0,0,0,10.82,6.29L549,353.75h.35l14.31-2.44A34.13,34.13,0,0,0,574.46,344l7-10.48,2.1-12.92a33.44,33.44,0,0,0-9.43-23.05C564.68,288.8,550,288.8,550,288.8h-.71Zm-.21,4.89h.56l9.08,2.09,5.94,6.29,3.14,8.73,1,10.13c0,12.92-4.89,20.6-4.89,20.6a19,19,0,0,1-14.31,7.68h-.35l-8.73-2.44-5.94-6.29-3.49-9.08a61.31,61.31,0,0,1-1-11.17l.7-9.43,3.14-8.38a26.07,26.07,0,0,1,6.64-6.63,20.6,20.6,0,0,1,8.51-2.1ZM430.93,349.21a5.24,5.24,0,0,0,5.24-5.58s0-5.24-5.24-5.24c0,0-5.59,0-5.59,5.24,0,0,0,5.58,5.59,5.58"/><path d="M700.53,0V2.44h5.93V18.16h2.1V2.44h5.93V0Zm16.41,0V18.16h2.44v-15l5.24,15h2.1L731.6,3.49V18.16h2.45V0h-3.14l-5.24,15.37L720.43,0Z"/><path class="cls-2" d="M585.63,0l-9.08.7S567.12,2.79,567.12,7V21l-40.85,1.4V14.67H507.41s-18.86,1.39-18.86,7v51h78.57v34.92H513v14h54.12v80l40.16-4.19V121.53H664.9v-14H607.28V72.64H675v-7h1.75s5.24,0,8.38-8.38l3.14-23.05S688,17.46,670.14,17.46l-62.86,2.1V0Zm62.16,32.13a5.58,5.58,0,0,1,5.94,5.59L650.94,59H526.27V36l40.85-1v.35l40.16-1.75Z"/><path class="cls-1" d="M341.53,107.56l12.92,15,15,13.28s4.19,4.19,8.38,0l14.67-13.28,12.92-15s4.54-3.84,0-8.73L392.52,84.16,377.85,71.24s-4.19-4.19-8.38,0L354.8,84.16,341.53,98.83s-3.84,4.89,0,8.73m335.25,46.09a5.68,5.68,0,0,0,0-6.63l-10.13-11.18-11.17-9.77a4.72,4.72,0,0,0-6.64,0l-11.17,9.77L627.89,147s-2.8,3.49,0,6.63l9.78,11.18,11.17,9.78s3.49,3.49,6.64,0l11.17-9.78,10.13-11.18"/><path class="cls-2" d="M77.88,90.8H197.66a166.4,166.4,0,0,1-12.23,30.73s-15,29.33-38.06,51.33c0,0-43.3,40.51-71.24,40.51,0,0-20.6,0-33.87-7.68,0,0-16.42-10.13-16.42-31.08,0,0,0-27.59,42.26-35.62,0,0-27.24-1.75-41.56,12.57,0,0-13.27,12.57-13.27,34.57,0,0,0,21,19.21,33.53A78.57,78.57,0,0,0,74,230.83l5.59.35s47.5-2.44,91.5-39.11c0,0,37.71-31.43,56.57-76.48a187.78,187.78,0,0,0,9.08-27.94l2.09-10.82v.35h-64.6V46.45h81.37V32.83H174.26V1.05H153l-9.08.7S134.45,3.84,134.45,8v24.8H55.88V46.45h78.57V77.18H77.88V90.8M346.42,0l-.7,6.64-4.54,16.41A94.53,94.53,0,0,1,329,43v157.5l-40.16-4.89v-125s-15,7.68-27.94,12.57l-5.23-8.38A238.27,238.27,0,0,0,282.86,52s26.89-26.89,26.89-45c0,0,0-4.2,9.43-6.29l9.08-.7h18.16"/><path class="cls-2" d="M335.25,60.41h75.43V205.69l40.16.7v-146h21v-14h-21V0H429.19l-9.08.7S410.68,2.79,410.68,7V46.45H335.25v14"/><path class="cls-1" d="M152.61,144.92s-51-22.35-82.42-23.39c0,0-25.84-1.4-47.14,13.62,0,0-22.35,15.71-23,39.11,0,0,0,27.24,21.65,42.6,0,0,19.91,14.32,52,14.32h3.15l-5.24-.35s-23.4,0-39.81-11.52c0,0-18.16-12.92-18.16-34.23,0,0,0-23,16.06-34.92,0,0,13.62-9.77,35.62-10.12l31.08,3.49,24.1,9.43,57.62,29.33s39.46,20.6,77.18,33.18c0,0,131.3,43.65,425,15L696,227.34s5.58-2.45,10.12-9.78c0,0,3.85-5.94,30-29.33,0,0,18.85-17.12,12.57-22.7l-9.08,1.39s-96,21.66-242.36,27.59c0,0-164.48,6.64-245.84-16.76,0,0-56.23-16.06-98.83-32.83"/></svg>