<svg viewBox="0 0 752 471" xmlns="http://www.w3.org/2000/svg"><g fill="none" fill-rule="evenodd"><rect fill="#2557D6" x="1" width="750" height="471" rx="40"/><path d="M1 221h36l8-19h18l8 19h71v-15l7 15h36l7-15v15h176v-32h3c3 0 3 0 3 4v28h91v-7c8 4 19 7 34 7h39l8-19h18l8 19h74v-18l11 18h59V99h-58v14l-9-14h-60v14l-7-14h-81c-14 0-26 2-36 7v-7h-56v7c-6-6-14-7-23-7H181l-14 31-14-31H89v14l-7-14H27L1 157v64zm227-17h-21v-69l-31 69h-18l-31-69v69H84l-8-20H32l-8 20H1l38-88h31l36 83v-83h34l28 59 25-59h35v88zM69 166l-15-35-14 35h29zm245 38h-70v-88h70v18h-49v16h48v18h-48v17h49v19zm100-65c0 14-10 22-15 24 4 1 8 5 10 7 3 5 4 8 4 16v18h-22v-12c0-5 1-12-3-17-3-3-8-3-15-3h-23v32h-21v-88h48c11 0 19 0 26 4s11 10 11 19zm-27 13c-3 2-6 2-10 2h-26v-19h26l10 1c3 2 4 4 4 8s-1 7-4 8zm60 52h-21v-88h21v88zm250 0h-30l-40-66v66h-43l-8-20h-44l-8 20h-24c-10 0-23-3-31-10-7-8-11-18-11-34 0-13 2-25 11-34 7-7 18-10 32-10h21v18h-20c-8 0-12 2-16 6-4 3-6 10-6 20 0 9 1 16 5 20s9 5 15 5h9l30-69h32l35 83v-83h33l37 61v-61h21v88zm-128-38l-15-35-14 35h29zm182 178c-5 7-15 11-29 11h-40v-19h40c4 0 7 0 9-2l2-6-2-6-8-1c-20-1-44 0-44-28 0-12 8-26 30-26h42v-17h-39c-12 0-20 2-26 7v-7h-58c-9 0-20 2-25 7v-7H500v7c-9-6-22-7-29-7h-68v7c-6-6-21-7-30-7h-76l-17 18-16-18H150v122h112l17-19 17 19h69v-29h7c9 1 20 0 29-4v33h57v-32h3c3 0 3 0 3 4v28h173c11 0 22-3 28-8v8h55c11 0 23-1 31-5v-23zm-342-47c0 24-18 29-36 29h-27v30h-41l-26-30-26 30h-84v-88h85l26 28 27-28h67c17 0 35 4 35 29zm-167 40h-52v-17h46v-18h-46v-16h53l23 25-24 26zm83 10l-32-36 32-34v70zm48-39h-27v-22h27c8 0 13 3 13 10 0 8-5 12-13 12zm143-40h70v18h-49v16h48v18h-48v17h49v19h-70v-88zm-27 47c5 1 8 5 10 7 3 4 4 8 4 16v18h-21v-11c0-6 0-14-4-18-3-3-8-4-15-4h-23v33h-21v-88h49c10 0 18 0 25 4s11 9 11 19c0 14-10 22-15 24zm-12-11l-10 1h-26v-19h26l10 1c3 2 4 4 4 8s-1 7-4 9zm190 5c4 4 7 10 7 19 0 19-12 28-33 28h-42v-19h41l9-2 2-6-2-6-8-2c-19-1-44 1-44-27 0-13 8-26 30-26h42v18h-38l-9 2c-2 1-3 3-3 6 0 4 2 6 5 7l8 1h11c12 0 20 2 24 7zm84-23h-38l-9 1c-2 2-3 4-3 7s2 5 5 6l8 1h11c12 1 19 3 24 7l2 3v-25z" fill="#FFF"/></g></svg>