<svg viewBox="0 0 42 26" fill="none" xmlns="http://www.w3.org/2000/svg"><path d="M37.367 4.546H24.39L23.064 6.04l-4.281 4.828-1.328 1.493H4.646l1.294-1.51.614-.713 1.294-1.51h-5.89C.879 8.628 0 9.541 0 10.636v4.248c0 1.111.88 2.007 1.958 2.007H24.557c1.079 0 2.556-.68 3.269-1.493l3.418-3.883 6.123-6.969Z" fill="#004E91"/><path d="M39.974.017c1.078 0 1.958.912 1.958 2.007v4.248c0 1.112-.88 2.008-1.958 2.008h-5.891l1.311-1.494.647-.746 1.311-1.494H24.377l-6.92 7.799H4.565l9.242-10.453.348-.399C14.886.68 16.363 0 17.442 0h22.533v.017Z" fill="#FD0"/><path d="M41.93 25.784v-.614c0-.083-.05-.132-.166-.132h-.398c-.117 0-.2-.017-.216-.067-.033-.05-.033-.149-.033-.315v-2.323h.647a.15.15 0 0 0 .116-.05.15.15 0 0 0 .05-.116v-.647a.15.15 0 0 0-.05-.116.15.15 0 0 0-.116-.05h-.647v-.846c0-.05-.017-.083-.033-.1a.236.236 0 0 0-.1-.033h-.017l-.962.166a.802.802 0 0 0-.116.05c-.033.033-.05.066-.05.1v.646h-.647a.15.15 0 0 0-.116.05.15.15 0 0 0-.05.116v.531c0 .05.017.083.05.1.033.033.066.05.116.066l.647.1v2.323c0 .282.033.514.083.697.067.182.15.315.249.415.116.1.249.166.415.199.166.033.365.05.58.05.117 0 .216 0 .316-.017.083-.017.199-.033.315-.05.083 0 .133-.05.133-.133Zm-3.452-.083v-.713c0-.05-.016-.083-.05-.1-.032-.016-.066-.033-.099-.033h-.016c-.15.017-.3.033-.432.033-.133.017-.315.017-.547.017a.632.632 0 0 1-.465-.2c-.066-.066-.1-.165-.133-.281a1.67 1.67 0 0 1-.05-.448v-.664c0-.183.017-.332.05-.448a.893.893 0 0 1 .133-.282.632.632 0 0 1 .465-.2c.232 0 .414 0 .547.017.133.017.282.017.432.034h.016c.05 0 .083-.017.1-.034.033-.016.05-.05.05-.1v-.713c0-.066-.017-.1-.034-.116-.033-.016-.066-.05-.132-.066-.117-.033-.25-.05-.432-.083s-.382-.033-.63-.033c-.564 0-1.012.166-1.36.514-.333.349-.515.846-.515 1.51v.664c0 .647.166 1.161.514 1.51.332.348.797.514 1.36.514.233 0 .449-.017.631-.033.183-.033.332-.05.432-.083a.25.25 0 0 0 .132-.067c.033-.016.033-.066.033-.116Zm-5.193-.846c-.1.05-.2.083-.315.116-.116.034-.233.05-.349.05-.166 0-.298-.017-.381-.066-.083-.05-.117-.15-.117-.332v-.067c0-.1.017-.182.034-.248a.43.43 0 0 1 .116-.183c.05-.05.133-.083.215-.116.084-.017.2-.033.349-.033h.448v.88Zm1.261-1.941c0-.299-.05-.548-.133-.747a1.386 1.386 0 0 0-.365-.498 1.36 1.36 0 0 0-.58-.282 2.864 2.864 0 0 0-.78-.1 5.96 5.96 0 0 0-.78.05 3.454 3.454 0 0 0-.598.117c-.1.033-.149.083-.149.182v.647c0 .05.017.083.033.116a.236.236 0 0 0 .1.034h.033c.066 0 .15-.017.232-.017.1 0 .2-.017.316-.017.116 0 .248-.016.381-.016h.382c.182 0 .332.033.431.1.1.066.166.215.166.447v.282h-.431c-.68 0-1.195.1-1.494.316-.315.216-.464.564-.464 1.029v.066c0 .265.033.481.116.647.083.183.183.315.315.431.133.1.266.183.432.233.166.05.332.066.514.066a1.7 1.7 0 0 0 .614-.1c.166-.066.332-.149.498-.265v.133c0 .05.016.083.05.116a.15.15 0 0 0 .116.05h.896a.15.15 0 0 0 .116-.05.15.15 0 0 0 .05-.116v-2.854h-.017Zm-4.264 2.87v-.614c0-.083-.05-.132-.166-.132h-.382c-.116 0-.199-.017-.216-.067-.033-.05-.033-.149-.033-.315v-2.323h.647a.15.15 0 0 0 .116-.05.15.15 0 0 0 .05-.116v-.647a.15.15 0 0 0-.05-.116.15.15 0 0 0-.116-.05h-.647v-.846c0-.05-.016-.083-.033-.1-.033-.016-.066-.033-.1-.033h-.016l-.962.166c-.05.017-.083.033-.117.05-.033.033-.05.066-.05.1v.646h-.646a.15.15 0 0 0-.117.05.15.15 0 0 0-.05.116v.531c0 .05.017.083.05.1.034.033.067.05.117.066l.647.1v2.323c0 .282.033.514.083.697.066.182.149.315.248.415.1.1.25.166.415.199.166.033.365.05.581.05.116 0 .216 0 .315-.017.083-.017.2-.033.316-.05.066 0 .116-.05.116-.133Zm-3.485-.016v-2.655c0-.249-.016-.481-.066-.714a1.623 1.623 0 0 0-.216-.58.966.966 0 0 0-.431-.382c-.183-.1-.415-.15-.714-.15a2.17 2.17 0 0 0-.68.1 2.33 2.33 0 0 0-.63.332v-.199a.15.15 0 0 0-.05-.116.15.15 0 0 0-.117-.05h-.896a.15.15 0 0 0-.116.05.15.15 0 0 0-.05.116v4.248c0 .05.017.083.05.116a.15.15 0 0 0 .116.05h.963a.15.15 0 0 0 .116-.05.15.15 0 0 0 .05-.116v-3.136c.133-.067.265-.133.398-.183a.946.946 0 0 1 .365-.066c.116 0 .216.016.299.033.083.017.133.066.182.116.05.067.067.133.083.233.017.099.017.215.017.348v2.655c0 .05.016.083.05.116a.15.15 0 0 0 .116.05h.962a.15.15 0 0 0 .116-.05c.067-.033.083-.083.083-.116Zm-6.04-1.842c0 .647-.232.979-.713.979-.232 0-.415-.083-.531-.249-.116-.166-.183-.415-.183-.73v-.564c0-.332.067-.564.183-.73.116-.166.299-.25.531-.25.465 0 .713.333.713.98v.564Zm1.295-.564c0-.315-.05-.614-.133-.863a1.809 1.809 0 0 0-.382-.647 1.673 1.673 0 0 0-.63-.415 2.29 2.29 0 0 0-.863-.15c-.332 0-.614.05-.863.15-.249.1-.464.232-.63.415a1.807 1.807 0 0 0-.382.647 2.772 2.772 0 0 0-.133.863v.564c0 .315.05.614.133.863s.216.464.382.647c.166.182.381.315.63.415.25.1.531.15.863.15.332 0 .614-.05.863-.15.249-.1.464-.233.63-.415.166-.183.299-.398.382-.647.083-.25.133-.548.133-.863v-.564Zm-4.447 2.34v-.714c0-.05-.017-.083-.05-.1-.033-.016-.066-.033-.116-.033h-.017c-.149.017-.298.033-.431.033s-.315.017-.548.017a.631.631 0 0 1-.465-.2c-.066-.066-.099-.165-.132-.281a1.674 1.674 0 0 1-.05-.448v-.664c0-.183.017-.332.05-.448a.893.893 0 0 1 .133-.282.631.631 0 0 1 .464-.2c.233 0 .415 0 .548.017.133.017.282.017.431.034h.017c.05 0 .083-.017.116-.034.033-.016.05-.05.05-.1v-.713c0-.066-.017-.1-.033-.116-.034-.016-.067-.05-.133-.066-.116-.033-.249-.05-.431-.083-.183-.033-.382-.033-.631-.033-.564 0-1.012.166-1.36.514-.332.349-.515.846-.515 1.51v.664c0 .647.166 1.161.514 1.51.332.348.797.514 1.361.514.232 0 .448-.017.63-.033.183-.033.316-.05.432-.083a.25.25 0 0 0 .133-.067c.033-.016.033-.066.033-.116Zm-3.916.066v-2.655c0-.249-.017-.481-.066-.714a1.62 1.62 0 0 0-.216-.58.966.966 0 0 0-.431-.382c-.183-.1-.415-.15-.714-.15a2.17 2.17 0 0 0-.68.1 2.33 2.33 0 0 0-.63.332v-.199a.15.15 0 0 0-.05-.116.15.15 0 0 0-.117-.05H9.89a.15.15 0 0 0-.116.05.15.15 0 0 0-.05.116v4.248c0 .05.017.083.05.116a.15.15 0 0 0 .116.05h.963a.15.15 0 0 0 .116-.05.15.15 0 0 0 .05-.116v-3.136c.132-.067.265-.133.398-.183a.945.945 0 0 1 .365-.066c.116 0 .215.016.298.033.083.017.133.066.183.116.05.067.066.133.083.233.017.099.017.215.017.348v2.655c0 .05.016.083.05.116a.15.15 0 0 0 .115.05h.963a.15.15 0 0 0 .116-.05c.05-.033.083-.083.083-.116Zm-6.173-.913c-.1.05-.199.083-.315.116-.116.034-.232.05-.348.05-.166 0-.299-.017-.382-.066-.083-.05-.116-.15-.116-.332v-.067c0-.1.017-.182.033-.248a.43.43 0 0 1 .116-.183c.05-.05.133-.083.216-.116.083-.017.2-.033.349-.033h.447v.88Zm1.278-1.941c0-.299-.05-.548-.133-.747a1.386 1.386 0 0 0-.365-.498 1.359 1.359 0 0 0-.58-.282 2.864 2.864 0 0 0-.78-.1c-.266 0-.531.017-.78.05a3.456 3.456 0 0 0-.597.117c-.1.033-.15.083-.15.182v.647c0 .05.017.083.033.116.034.017.067.034.1.034h.033c.067 0 .15-.017.232-.017.1 0 .2-.017.332-.017.116 0 .25-.016.382-.016h.382c.182 0 .331.033.431.1.1.066.166.215.166.447v.282h-.431c-.68 0-1.195.1-1.494.316-.299.216-.464.564-.464 1.029v.066c0 .265.033.481.116.647.083.183.182.315.315.431.133.1.265.183.431.233.166.05.332.066.515.066a1.7 1.7 0 0 0 .614-.1 2.42 2.42 0 0 0 .497-.265v.133c0 .05.017.083.05.116a.15.15 0 0 0 .116.05h.896a.15.15 0 0 0 .117-.05.15.15 0 0 0 .05-.116v-2.854h-.034Zm-5.708 1.26a.632.632 0 0 1-.232.515c-.15.116-.448.183-.846.183h-.664v-1.494h.896c.315 0 .548.067.664.216a.8.8 0 0 1 .182.498v.083Zm-.033-2.372c0 .083-.017.166-.033.249a.423.423 0 0 1-.133.2c-.066.049-.15.099-.249.132-.1.033-.232.05-.398.05h-.896v-1.378h.614c.415 0 .697.05.863.15.166.1.249.265.249.481v.116h-.017Zm1.36 2.29c0-.282-.066-.514-.198-.714a1.261 1.261 0 0 0-.515-.464c.216-.1.382-.266.498-.465.116-.216.182-.448.182-.697v-.149c0-.315-.066-.58-.182-.797a1.39 1.39 0 0 0-.514-.514c-.216-.133-.482-.216-.797-.282a6.456 6.456 0 0 0-1.029-.083H1.46c-.133 0-.265.017-.398.017s-.249.016-.365.033c-.116.017-.2.017-.266.033-.149.033-.265.066-.331.15-.067.066-.1.198-.1.381v4.845c0 .183.033.299.1.382.066.066.182.116.331.15.083.016.183.032.282.032.117.017.233.017.366.034.132 0 .265.016.398.016h.415c.348 0 .68-.033.979-.083.298-.05.58-.15.796-.282.232-.133.398-.315.548-.548.132-.232.199-.53.199-.879v-.116Z" fill="#004E91"/></svg>
