<svg id="Layer_1" data-name="Layer 1" xmlns="http://www.w3.org/2000/svg" viewBox="0 0 750 530" preserveAspectRatio="xMidYMid meet"><defs><style>.cls-2{fill:#005498}</style></defs><path d="M750 485a46 46 0 01-46 45H46a46 46 0 01-46-45V46A46 46 0 0146 0h658a46 46 0 0146 46v439z" fill="#fff"/><path class="cls-2" d="M603 148H422l-18 21-59 67-19 20H149l18-20 8-10 18-21h-81c-15 0-28 12-28 28v58c0 16 13 28 28 28h313c15 0 35-9 45-20l47-54z"/><path d="M639 85c15 0 27 13 27 28v59c0 15-12 28-27 28h-82l18-21 9-10 19-21H422l-95 108H148l128-145 5-5c10-12 30-21 45-21h313z" fill="#ffd800"/><path class="cls-2" d="M666 443v-9l-2-2h-6l-3-1v-36h9a2 2 0 002-3v-9a2 2 0 00-2-2h-9v-12a2 2 0 00-1-1 3 3 0 00-1 0h-1l-13 2a11 11 0 00-1 1 2 2 0 00-1 1v9h-9a2 2 0 00-2 2v8a1 1 0 000 1 4 4 0 002 1l9 1v32a37 37 0 001 10 15 15 0 003 6 12 12 0 006 3 42 42 0 008 0 26 26 0 005 0l4-1a2 2 0 002-1m-48-2v-10a1 1 0 00-1-1 3 3 0 00-1 0 57 57 0 01-6 0 70 70 0 01-8 0 8 8 0 01-3 0 9 9 0 01-3-2 9 9 0 01-2-4 23 23 0 01-1-7v-9a23 23 0 011-6 12 12 0 012-4 9 9 0 013-2 9 9 0 013-1 70 70 0 018 1h6a2 2 0 001 0 1 1 0 001-2v-10a2 2 0 000-1 7 7 0 00-2-1l-6-1a50 50 0 00-9-1c-8 0-14 2-19 7s-7 12-7 21v9c0 9 2 17 7 21 5 5 11 7 19 7h9a56 56 0 006-1 3 3 0 002-1v-2m-72-11a25 25 0 01-4 1 18 18 0 01-5 1l-5-1c-1-1-2-2-2-5v-1a14 14 0 010-3 6 6 0 012-2 6 6 0 013-2 24 24 0 015 0h6v12zm17-27a27 27 0 00-1-11 19 19 0 00-5-7 19 19 0 00-8-3 40 40 0 00-11-2 83 83 0 00-11 1 48 48 0 00-8 1c-2 1-2 2-2 3v9a3 3 0 000 2 3 3 0 001 0h8l6-1h5a11 11 0 016 2l2 6v4h-6c-9 0-16 1-20 4-5 3-7 8-7 15l2 9a17 17 0 004 6 19 19 0 006 4 24 24 0 007 1 24 24 0 009-2 34 34 0 007-3v1a2 2 0 002 3h12a2 2 0 003-3v-39zm-59 40v-9c0-1 0-2-2-2h-5l-3-1-1-4v-32h9a2 2 0 002-3v-9a2 2 0 00-2-2h-9v-12a2 2 0 000-1 3 3 0 00-2 0l-13 2a11 11 0 00-2 1 2 2 0 00-1 1v9h-9a2 2 0 00-2 2v8a1 1 0 001 1 4 4 0 001 1l9 1v32a37 37 0 001 10 15 15 0 004 6 12 12 0 006 3 42 42 0 008 0 26 26 0 004 0l4-1 2-1m-48-1v-36a47 47 0 00-1-10 22 22 0 00-3-8 13 13 0 00-6-6 20 20 0 00-10-2 30 30 0 00-9 2 32 32 0 00-9 4v-3a2 2 0 00-2-2h-13a2 2 0 00-2 2v59a2 2 0 002 3h14a2 2 0 002-3v-43a59 59 0 016-3 13 13 0 015-1 21 21 0 014 1 5 5 0 012 1 7 7 0 011 4 31 31 0 011 4v37a2 2 0 002 3h13a2 2 0 002-1 2 2 0 001-2m-84-25c0 9-3 13-10 13-3 0-5-1-7-3s-2-6-2-10v-8c0-5 0-8 2-10s4-4 7-4c7 0 10 5 10 14zm18-8a38 38 0 00-2-12 25 25 0 00-5-9 23 23 0 00-9-6 36 36 0 00-23 0 23 23 0 00-9 6 25 25 0 00-6 9 38 38 0 00-1 12v8a38 38 0 001 12 25 25 0 006 9 23 23 0 009 5 36 36 0 0023 0 23 23 0 009-5 25 25 0 005-9 38 38 0 002-12zm-61 32v-10a1 1 0 00-1-1 3 3 0 00-1 0h-1a57 57 0 01-6 0 70 70 0 01-7 0 8 8 0 01-4 0 9 9 0 01-3-2 9 9 0 01-2-4 23 23 0 010-7v-9a23 23 0 010-6 12 12 0 012-4 9 9 0 013-2 9 9 0 014-1 70 70 0 017 1h7a3 3 0 001 0 1 1 0 001-2v-10a2 2 0 00-1-1 7 7 0 00-1-1l-6-1a50 50 0 00-9-1c-8 0-14 2-19 7s-7 12-7 21v9c0 9 2 17 7 21 5 5 11 7 19 7h9l6-1a3 3 0 001-1 3 3 0 001-2m-55 1v-37a47 47 0 00-1-9 22 22 0 00-3-8 13 13 0 00-6-6 20 20 0 00-9-2 30 30 0 00-10 2 32 32 0 00-9 4v-3a2 2 0 00-2-2h-12a2 2 0 00-3 2v59a2 2 0 003 3h13a2 2 0 002-3v-43a59 59 0 016-3 13 13 0 015-1 21 21 0 014 1 5 5 0 013 1 7 7 0 011 4 31 31 0 010 4v37a2 2 0 002 3h14a2 2 0 001-1 2 2 0 001-2m-85-12a25 25 0 01-5 1 18 18 0 01-4 1l-6-1-1-5v-1a14 14 0 010-3 6 6 0 012-2 6 6 0 013-2 24 24 0 015 0h6zm18-27a27 27 0 00-2-11 19 19 0 00-5-7 19 19 0 00-8-3 40 40 0 00-11-2 83 83 0 00-11 1 48 48 0 00-8 1c-2 1-2 2-2 3v9a3 3 0 000 2 3 3 0 002 0h8l5-1h5a11 11 0 016 2c2 1 3 3 3 6v4h-6c-10 0-17 1-21 4s-6 8-6 15l1 9a17 17 0 005 6 19 19 0 006 4 24 24 0 007 1 24 24 0 008-2 34 34 0 007-3v1a2 2 0 002 3h13a2 2 0 002-3v-39zm-80 17a9 9 0 01-3 7c-2 2-6 3-12 3h-9v-21h13c4 0 7 1 9 3a11 11 0 012 7zm0-33a18 18 0 010 4 6 6 0 01-2 3 12 12 0 01-4 1 18 18 0 01-5 1h-13v-19h9l12 2a7 7 0 013 7v1zm19 32a17 17 0 00-3-10 17 17 0 00-7-6 16 16 0 007-7 20 20 0 002-9v-3a23 23 0 00-2-10 19 19 0 00-7-8 35 35 0 00-11-4 90 90 0 00-15-1h-5l-6 1a34 34 0 00-5 0h-3c-2 1-4 1-5 3l-1 5v67l1 5a10 10 0 005 3 20 20 0 004 0h5a44 44 0 005 1h6a83 83 0 0013-1 33 33 0 0011-4 22 22 0 008-8 25 25 0 003-12v-2z"/><path fill="none" d="M0 0h750v530H0z"/></svg>