<svg id="Layer_1" data-name="Layer 1" xmlns="http://www.w3.org/2000/svg" viewBox="0 0 750 156.61" preserveAspectRatio="xMidYMid meet"><defs><style>.cls-1{fill:#f7931a;}.cls-2{fill:#fff;}.cls-3{fill:#4d4d4d;}</style></defs><title>bitcoin</title><path class="cls-1" d="M154.24,97.24a78.27,78.27,0,1,1-57-94.9,78.27,78.27,0,0,1,57,94.9Z"/><path class="cls-2" d="M112.82,67.15c1.56-10.42-6.38-16-17.22-19.76l3.51-14.11-8.59-2.14L87.1,44.88c-2.26-.56-4.58-1.1-6.89-1.62l3.45-13.83-8.58-2.15L71.56,41.39c-1.87-.42-3.71-.84-5.49-1.29v0l-11.85-3L52,46.28s6.37,1.46,6.24,1.55c3.48.87,4.11,3.17,4,5l-4,16.07a8.14,8.14,0,0,1,.89.29l-.9-.22L52.55,91.49a3.13,3.13,0,0,1-3.94,2c.09.13-6.24-1.56-6.24-1.56l-4.27,9.84,11.18,2.78c2.08.52,4.12,1.07,6.13,1.58l-3.56,14.28,8.58,2.14L64,108.47c2.35.63,4.62,1.22,6.85,1.77L67.29,124.3l8.59,2.14,3.56-14.25c14.65,2.78,25.66,1.66,30.3-11.59,3.74-10.67-.18-16.83-7.89-20.84,5.61-1.29,9.84-5,11-12.61ZM93.19,94.67c-2.66,10.67-20.62,4.9-26.44,3.46l4.71-18.91c5.83,1.45,24.5,4.33,21.73,15.45ZM95.84,67c-2.42,9.71-17.37,4.78-22.22,3.57L77.9,53.41C82.75,54.61,98.37,56.87,95.84,67Z"/><path class="cls-3" d="M229.46,47.38a37.31,37.31,0,0,1,16.45,3.37,33,33,0,0,1,11.52,9.12,38.59,38.59,0,0,1,6.73,13.47A61.72,61.72,0,0,1,266.33,90a67.83,67.83,0,0,1-18.83,47.08,64.82,64.82,0,0,1-20.61,14.25,63,63,0,0,1-25.75,5.26c-1.19,0-3.29,0-6.26-.1a92.82,92.82,0,0,1-10.19-.88,121.35,121.35,0,0,1-12.19-2.39,61.68,61.68,0,0,1-12.19-4.36L194.59,4.78,225.3,0,213,51.15a47.16,47.16,0,0,1,7.91-2.77,35.16,35.16,0,0,1,8.52-1ZM203.7,132.21a26.83,26.83,0,0,0,13.08-3.37,34.31,34.31,0,0,0,10.62-9,45.72,45.72,0,0,0,7-12.79A43.69,43.69,0,0,0,237,92.16c0-6.34-1.06-11.28-3.18-14.86s-6-5.35-11.69-5.35a36.93,36.93,0,0,0-7.22,1,18,18,0,0,0-8,4.17L193.81,131.4c.78.14,1.48.28,2.08.4a17.21,17.21,0,0,0,1.86.3,23.31,23.31,0,0,0,2.39.11Z"/><path class="cls-3" d="M298.17,153.82H268.84L293.61,49.59h29.53ZM312.44,36.89a18.19,18.19,0,0,1-11.09-3.66q-5-3.64-5-11.2a18.57,18.57,0,0,1,1.68-7.82,20.76,20.76,0,0,1,4.47-6.35A21.91,21.91,0,0,1,309,3.6,19.51,19.51,0,0,1,316.8,2a18.21,18.21,0,0,1,11.09,3.66q5,3.68,4.95,11.2a18.54,18.54,0,0,1-1.68,7.83,20.56,20.56,0,0,1-4.46,6.35,21.43,21.43,0,0,1-6.43,4.25,19.36,19.36,0,0,1-7.83,1.58Z"/><path class="cls-3" d="M348.85,23.62l30.72-4.76L372,49.58h32.9L399,73.75H366.28l-8.71,36.46a40.92,40.92,0,0,0-1.38,8.52,15.52,15.52,0,0,0,1,6.84,8.61,8.61,0,0,0,4.26,4.45c2.05,1.06,5,1.6,8.82,1.6a46.65,46.65,0,0,0,9.22-.9,67,67,0,0,0,9-2.47l2.19,22.59a104.26,104.26,0,0,1-12.88,3.76,74.09,74.09,0,0,1-16.46,1.58q-13.66,0-21.21-4.05A23.54,23.54,0,0,1,329.42,141a35.32,35.32,0,0,1-2.78-16.14,104.46,104.46,0,0,1,2.78-19.22l19.43-82Z"/><path class="cls-3" d="M403.63,112.2A73.27,73.27,0,0,1,408,86.83,62.45,62.45,0,0,1,420.49,66a58.64,58.64,0,0,1,19.72-14.06,63,63,0,0,1,25.85-5.15A68.17,68.17,0,0,1,482,48.48a64.88,64.88,0,0,1,12.79,4.45l-10.11,23c-2.64-1.07-5.39-2-8.22-2.87a35.92,35.92,0,0,0-10.4-1.3c-9.79,0-17.53,3.38-23.29,10.11s-8.63,15.79-8.63,27.15q0,10.11,4.37,16.35t16.05,6.24a51.56,51.56,0,0,0,11.09-1.18,54.28,54.28,0,0,0,9.52-3L477.37,151a104.37,104.37,0,0,1-12.29,3.87A68.16,68.16,0,0,1,449,156.58q-12.3,0-20.81-3.56a39.59,39.59,0,0,1-14.06-9.61,36,36,0,0,1-8-14.18,58.13,58.13,0,0,1-2.5-17Z"/><path class="cls-3" d="M533.93,156.58a47.81,47.81,0,0,1-18.24-3.18,33.68,33.68,0,0,1-12.77-8.91,38.57,38.57,0,0,1-7.63-13.57,54.88,54.88,0,0,1-2.56-17.33,76.34,76.34,0,0,1,3.85-23.79A67.51,67.51,0,0,1,508,68.4,60.86,60.86,0,0,1,526.4,52.83a50.67,50.67,0,0,1,25-6A48.25,48.25,0,0,1,569.51,50a33.81,33.81,0,0,1,12.88,8.91A38.86,38.86,0,0,1,590,72.46a55.14,55.14,0,0,1,2.57,17.34,79.2,79.2,0,0,1-3.75,23.79,68.85,68.85,0,0,1-11.1,21.4,58.14,58.14,0,0,1-18.33,15.54q-11,6-25.47,6.05Zm14.66-84.81a18.56,18.56,0,0,0-11.48,3.75A32.48,32.48,0,0,0,528.8,85a46.53,46.53,0,0,0-5.07,12.59,53.84,53.84,0,0,0-1.68,13c0,6.62,1.07,11.77,3.17,15.47s5.94,5.55,11.49,5.55a18.43,18.43,0,0,0,11.5-3.78,32.49,32.49,0,0,0,8.32-9.5,47.72,47.72,0,0,0,5.07-12.59,55.43,55.43,0,0,0,1.67-13c0-6.59-1.06-11.76-3.18-15.46s-6-5.54-11.5-5.54Z"/><path class="cls-3" d="M624.54,153.82H595.19L620,49.59H649.5ZM638.79,36.89a18.14,18.14,0,0,1-11.08-3.66q-5-3.64-5-11.2a18.57,18.57,0,0,1,1.69-7.82,20.73,20.73,0,0,1,4.46-6.35,22,22,0,0,1,6.44-4.26A19.42,19.42,0,0,1,643.15,2a18.19,18.19,0,0,1,11.1,3.66q5,3.68,5,11.2a18.71,18.71,0,0,1-1.7,7.83,20.53,20.53,0,0,1-4.45,6.35,21.56,21.56,0,0,1-6.43,4.25A19.39,19.39,0,0,1,638.79,36.89Z"/><path class="cls-3" d="M670.64,54.33c2.23-.66,4.72-1.44,7.42-2.29s5.75-1.64,9.13-2.36a110.49,110.49,0,0,1,11.29-1.79,124.93,124.93,0,0,1,14.16-.71q23.21,0,32,13.49t3.08,36.86l-13.49,56.28H704.72l13.08-55.1c.8-3.44,1.43-6.76,1.89-10a23.82,23.82,0,0,0-.11-8.52,10.23,10.23,0,0,0-3.65-6C714,72.71,711.07,72,707.1,72a59.21,59.21,0,0,0-11.69,1.21l-19.22,80.65H646.65Z"/></svg>