<svg width="39" height="24" fill="none" xmlns="http://www.w3.org/2000/svg"><path d="M0 2a2 2 0 0 1 2-2h34.4a2 2 0 0 1 2 2v20a2 2 0 0 1-2 2H2a2 2 0 0 1-2-2V2Z" fill="#fff"/><path fill-rule="evenodd" clip-rule="evenodd" d="M5.8 6h.555v11.108H5.8V6Zm1.11 0h1.667v11.108H6.911V6Zm2.778 0h-.556v11.108h.556V6Zm4.999 0h.555v11.108h-.555V6Zm2.221 0h-.555v11.108h.555V6Zm-6.665 0h.556v11.108h-.556V6Zm10.553 0h-.555v11.108h.555V6Zm3.888 0h-.555v11.108h.555V6Zm1.666 0h.556v11.108h-.556V6Zm1.667 0h-.556v11.108h.556V6Zm.555 0h1.666v11.108h-1.666V6Zm3.333 0h.555v11.108h-.555V6Zm-.556 0h-.555v11.108h.555V6Zm-9.442 0h1.666v11.108h-1.666V6ZM19.13 6h-1.666v11.108h1.666V6Zm-5.554 0h.555v11.108h-.555V6Zm-.556 0h-1.666v11.108h1.666V6Z" fill="#000"/><path d="M2 1h34.4v-2H2v2Zm35.4 1v20h2V2h-2Zm-1 21H2v2h34.4v-2ZM1 22V2h-2v20h2Zm1 1a1 1 0 0 1-1-1h-2a3 3 0 0 0 3 3v-2Zm35.4-1a1 1 0 0 1-1 1v2a3 3 0 0 0 3-3h-2Zm-1-21a1 1 0 0 1 1 1h2a3 3 0 0 0-3-3v2ZM2-1a3 3 0 0 0-3 3h2a1 1 0 0 1 1-1v-2Z" fill="#DDD"/></svg>