<svg viewBox="0 0 780 501" xmlns="http://www.w3.org/2000/svg"><g fill="none" fill-rule="evenodd"><path d="M55 0C25 0 0 25 0 55v391c0 30 25 55 55 55h670c30 0 55-25 55-55V55c0-30-25-55-55-55H55z" fill="#4D4D4D"/><path d="M415 161c31 0 56 24 56 53s-25 53-56 53-56-24-56-53 25-53 56-53zm-88 1c9 0 16 2 25 6v23c-8-8-16-11-25-11-20 0-35 15-35 34 0 20 15 34 36 34 9 0 16-3 24-11v23c-9 4-16 6-25 6-32 0-56-23-56-52s25-52 56-52zm-97 1c12 0 22 3 31 11l-11 13c-5-6-10-8-16-8-9 0-16 4-16 11 0 5 4 8 16 12 24 8 31 15 31 31 0 19-15 33-37 33-15 0-27-6-36-19l13-12c5 8 13 13 23 13 9 0 15-6 15-14 0-4-2-8-6-10l-14-6c-19-6-26-13-26-27 0-16 14-28 33-28zm235 1h22l28 67 29-67h22l-45 102h-12l-44-102zm-398 0h31c33 0 56 21 56 50 0 15-7 29-19 38-10 8-22 12-38 12H67V164zm97 0h20v100h-20V164zm411 0h59v17h-38v22h36v17h-36v27h38v17h-59V164zm72 0h31c23 0 37 11 37 30 0 15-9 25-24 28l33 42h-25l-29-40h-2v40h-21V164zm21 16v30h6c13 0 20-5 20-15s-7-15-20-15h-6zm-580 1v66h5c14 0 22-3 29-8a34 34 0 000-50c-7-6-15-8-29-8h-5z" fill="#FFF"/><path d="M780 288c-26 19-221 150-559 213h504c30 0 55-25 55-55V288z" fill="#F47216"/></g></svg>