<svg version="1.1" id="Layer_1" xmlns="http://www.w3.org/2000/svg" xmlns:xlink="http://www.w3.org/1999/xlink" x="0" y="0" viewBox="0 0 750 577" xml:space="preserve"><style>.st0{fill:#676a6a}.st2{fill:#b40f6b}</style><symbol id="EPS-Logo" viewBox="-385 -236 770 473"><path id="XMLID_367_" class="st0" d="M219 0h-61c-7 0-13 5-13 12s6 13 13 13h93v46h-93a59 59 0 010-118h60c7 0 12-5 12-12 1-7-5-12-12-12H89c-11-21-22-39-44-48h174a60 60 0 010 119z"/><path id="XMLID_201_" class="st0" d="M-16 71c-52 0-94-42-94-95v-197h47v102h47a95 95 0 010 190zm0-142h-47v47c0 27 21 48 47 48S32 3 32-24c0-26-22-47-48-47z"/><g id="XMLID_196_"><g id="XMLID_198_"><path id="XMLID_200_" class="st2" d="M-259-119c-44 0-82 32-92 73 0 0-3 14-3 23s3 23 3 23a95 95 0 00187-23v-23h-138c8-16 24-25 43-25h125V64c0 21-16 37-37 37h-176c-20 0-37-16-37-36v-177c0-20 17-37 37-37h176c18 0 34 13 36 30h-124z"/><path id="XMLID_199_" class="st2" d="M-259 27c-19 0-36-12-44-27h88c-8 15-25 27-44 27z"/></g><path id="XMLID_197_" class="st2" d="M-179 158c0 44-36 79-80 79-43 0-79-34-80-76v-24c0-3 2-6 5-6h30c2 0 5 3 5 6v22c0 21 18 39 40 39s40-18 40-39v-22c0-3 2-6 5-6h30c2 0 5 3 5 6v21z"/></g><g id="XMLID_13_"><path id="XMLID_192_" class="st0" d="M37-180l-4-24c-2-12-10-18-21-18-9 0-17 6-14 18l4 24h6l-4-24c-1-8 2-12 9-12 6 0 12 4 13 12l4 24h7zm-26 8c0-2 2-3 3-3 2 0 5 1 5 4 0 2-2 3-3 3-2 0-5-2-5-4zm14 0c0-3 2-3 4-3 1 0 4 1 4 4 0 2-2 3-3 3-2 0-5-2-5-4z"/><path id="XMLID_189_" class="st0" d="M53-180l-3-17c2 4 7 6 11 6 7 0 12-5 12-13 0-11-7-18-17-18-4 0-8 1-10 5l-1-4h-5l7 41h6zm-5-28c0-5 3-8 8-8s11 4 11 11c0 5-3 8-7 8-6 0-11-5-12-11z"/><path id="XMLID_186_" class="st0" d="M85-209c0-4 3-7 9-7 3 0 7 1 9 3l3-4c-4-3-9-5-13-5-9 0-14 5-14 13 0 10 8 18 19 18 9 0 14-6 11-18H85zm19 5c1 5-2 7-7 7s-9-2-11-7h18z"/><path id="XMLID_184_" class="st0" d="M125-192v-4c3 4 6 5 9 5s6-1 7-3l-4-5-4 2c-5 0-9-3-10-8l-3-16h-6l6 29h5z"/><path id="XMLID_182_" class="st0" d="M171-192l3-23 11 23h6l-15-29h-7l-3 19-5-9-5-10h-7l-5 29h7l3-23 11 23h6z"/><path id="XMLID_179_" class="st0" d="M199-209c0-4 3-7 9-7l9 3 3-4c-4-3-9-5-14-5-8 0-13 5-13 13 0 10 8 18 18 18s15-6 12-18h-24zm19 5c0 5-3 7-7 7-5 0-9-2-11-7h18z"/><path id="XMLID_168_" class="st0" d="M240-192l-6-29h-6l6 29h6zm-6 8c0-2 2-3 3-3 3 0 5 1 5 4 0 2-2 3-3 3-2 0-5-1-5-4z"/><path id="XMLID_60_" class="st0" d="M267-199c-2 2-5 3-8 3-4 0-6-2-6-4 0-3 2-3 5-4 6 0 12-2 11-10-1-5-6-8-14-8-5 0-9 1-12 5l4 5c2-3 6-5 9-5s6 1 7 4c0 3-2 4-6 4-5 1-11 2-11 8 0 7 8 10 14 10 5 0 8-1 11-4l-4-4z"/><path id="XMLID_57_" class="st0" d="M286-192l-3-16c-1-5 1-8 6-8s9 4 10 9l3 15h6l-5-29h-6l1 4c-4-3-7-5-11-5-7 0-12 5-10 14l3 16h6z"/><path id="XMLID_55_" class="st0" d="M335-221l2 16c1 5 0 8-6 8-5 0-9-4-10-9l-2-15h-6l5 29h5v-4c3 3 7 5 10 5 8 0 12-5 11-14l-3-16h-6z"/><path id="XMLID_15_" class="st0" d="M355-225c0-4 3-6 8-6s9 3 11 9l1 5c-3-3-8-5-12-5-7 0-12 5-12 13 0 11 8 18 18 18 4 0 8-2 9-5l1 4h6l-5-30c-2-11-11-14-18-14-9 0-14 4-13 11h6zm2 17c0-5 3-8 8-8 12 0 16 19 3 19-6 0-11-4-11-11z"/></g></symbol><use xlink:href="#EPS-Logo" width="770" height="473" id="XMLID_202_" x="-385" y="-236" transform="matrix(.9728 0 0 -.9728 375 286)" overflow="visible"/></svg>