<svg id="Layer_1" data-name="Layer 1" xmlns="http://www.w3.org/2000/svg" viewBox="0 0 750 576.83" preserveAspectRatio="xMidYMid meet"><defs><style>.cls-1{fill:#3d2e7f;}.cls-2{fill:#d3d3d3;}.cls-3{fill:#cf157e;}</style></defs><title>eps</title><path class="cls-1" d="M380,0c-17.44,26.16-36.13,53.57-53.57,79.73H434.8C416.11,53.57,399.92,26.16,380,0Zm10,462.21c0-2.49,0-5-1.25-7.48a9.44,9.44,0,0,0-5-2.49c-5,1.25-6.23,6.23-6.23,10-5,1.25-6.23,5-5,8.72,1.24,0,3.74,1.25,6.23,1.25v21.18c1.24,5,10,5,10,0,1.25-6.23,0-13.71,0-19.94,2.5-1.24,5-1.24,7.48-2.49C398.67,467.19,394.93,463.46,390,462.21Zm71,1.25c-1.24-2.5-1.24-5-1.24-7.48a9.5,9.5,0,0,1-5-2.49,9.44,9.44,0,0,0-5,2.49c0,2.49-1.25,5-1.25,8.72H446c-1.24,1.25-2.49,2.49-2.49,3.74a15.08,15.08,0,0,0,6.23,6.23c0,7.47-1.25,13.7,1.25,21.18,1.24,5,6.23,3.73,10,2.49,2.5-7.48,1.25-16.2,1.25-24.92,2.49,0,3.74-1.24,6.23-1.24C467.19,467.19,466,463.46,461,463.46Zm-225.49-1.25c-3.74,6.23-6.23,12.46-8.73,18.69-2.49-5-3.73-11.22-6.23-16.2-2.49-3.74-10-1.24-8.72,2.49,1.25,8.72,7.48,17.44,10,26.17-1.25,6.22-6.23,11.21-1.25,17.44,3.74,0,7.48,0,7.48-3.74,5-12.46,11.21-24.92,14.95-38.62C244.19,464.7,239.2,463.46,235.47,462.21ZM289,463.46c-5-1.25-8.72,1.24-12.46,2.49-5-2.49-11.21-3.74-16.2-1.25-2.49-1.24-5-1.24-7.47-1.24-1.25,1.24-2.49,2.49-2.49,3.73v28.66c1.24,1.24,3.73,2.49,6.22,3.73,8.73-5,3.74-16.19,5-23.67,0-3.73,5-2.49,7.47-3.73,2.49,7.47,1.25,14.95,2.49,22.42,1.25,3.74,6.23,3.74,8.73,2.49,2.49-7.47,0-17.44,2.49-24.91,1.24,0,5,0,6.23-1.25,1.24,7.48,0,14.95,1.24,22.43,1.25,5,6.23,3.73,10,2.49a75.17,75.17,0,0,0,0-23.67C299,468.44,294,463.46,289,463.46Zm59.8,1.24c-3.74-2.49-7.48-1.24-10,2.49V494.6c1.25,5,6.23,3.74,10,2.49,1.24-7.47,0-13.7,0-21.18,0-1.24,1.24-2.49,2.49-3.73h6.23c1.24,3.73,1.24,7.47,1.24,11.21,0,5-1.24,12.46,5,14.95,1.24-1.25,3.73-1.25,5-2.49,1.25-8.72,2.49-17.44,0-26.17C366.28,462.21,356.31,461,348.84,464.7Zm87.21,13.71c-3.74-2.5-8.72-2.5-10-6.23,5,1.24,10,3.73,14.95,2.49-1.25-2.49,1.25-7.48-2.49-8.72-5-2.49-10-2.49-15-1.25-7.48,2.49-10,12.46-3.74,17.44,3.74,3.74,10,5,13.7,7.48-5,1.24-8.72-1.25-13.7-2.49-3.74,0-6.23,3.73-5,6.23,6.23,7.47,18.68,7.47,24.91,0C444.77,488.37,442.28,480.9,436.05,478.41Zm81-13.71c-2.5-1.24-5-1.24-8.72-1.24-2.5,7.47-1.25,16.19-1.25,23.67,0,3.73,0,6.23,1.25,10,2.49,2.49,6.22,0,8.72,0,1.24-7.47,0-14.95,1.24-22.42,1.25-3.74,8.72-3.74,8.72,0,1.25,7.47,0,14.95,1.25,22.42,3.74,1.25,10,1.25,10-3.73,0-7.48,1.24-16.2-1.25-23.68C533.22,462.21,524.5,462.21,517,464.7ZM642.86,466c-1.25-3.74-7.48-2.49-10-1.25-3.74-1.24-7.47-2.49-10,1.25-1.24,10,0,18.68,0,28.65,0,5,8.72,5,10,0,1.25-6.23,0-12.46,1.25-17.44C636.63,473.42,646.59,472.18,642.86,466ZM103.41,489.62c-2.5-1.25-5-5-7.48-2.49-5,2.49-12.46,3.73-16.2-1.25,7.48-2.49,16.2,0,23.68-3.74,0-10-7.48-19.93-17.45-19.93-12.46,0-21.18,16.2-14.95,26.16C76,502.08,97.18,502.08,103.41,489.62ZM86,472.18c3.74-1.25,5,2.49,7.48,5H81C81,474.67,82.23,472.18,86,472.18Zm244.19-3.74a16.24,16.24,0,0,0-23.67-1.25c-7.48,7.48-7.48,21.18,1.24,27.41,7.48,5,18.69,3.74,26.17-2.49,1.24-2.49,0-5,0-7.48-5-1.24-8.72,1.25-13.71,2.5-3.73,0-6.23-2.5-8.72-3.74h21.18C337.62,479.65,333.89,472.18,330.15,468.44Zm-18.69,8.72c1.25-2.49,3.74-6.23,7.48-5,2.49,0,2.49,2.49,3.73,5ZM160.71,464.7c-5-2.49-10-1.24-15,0-2.49-1.24-6.23-1.24-8.72-1.24-3.73,11.21-1.24,22.42-1.24,33.63,0,5-1.25,12.46,3.73,14.95,8.73,1.25,7.48-8.72,7.48-14.95,3.74,1.25,8.72,2.49,13.7,0C171.93,492.11,171.93,472.18,160.71,464.7ZM157,484.63c-1.25,5-8.72,5-10,0-2.49-3.73,0-7.47,0-11.21a9.51,9.51,0,0,1,5-2.49C157,474.67,159.47,480.9,157,484.63Zm47.34-19.93c-2.49-2.49-6.23,0-8.72,1.25-5-2.49-12.46-3.74-17.44,1.24-10,7.48-8.72,27.41,3.73,31.15,3.74,2.49,8.72,0,12.46-1.25,2.49,1.25,6.23,1.25,10,1.25,1.24-8.72,0-17.44,0-26.16C205.56,469.68,206.81,466,204.32,464.7Zm-10,17.44c0,3.74-5,8.72-8.72,5-6.23-5-3.74-14.95,3.74-16.2C193.11,474.67,195.6,478.41,194.35,482.14ZM489.62,464.7c-3.74-2.49-8.72-2.49-12.46-1.24-13.7,5-15,27.4-1.25,33.63,5,2.49,10,1.25,13.71-1.24,2.49,2.49,6.23,1.24,10,1.24a151.27,151.27,0,0,0,0-33.63C495.85,463.46,492.11,463.46,489.62,464.7Zm-8.72,23.67c-5-2.49-6.23-12.46-1.25-14.95,3.74-3.74,8.72,2.49,8.72,6.23C489.62,484.63,485.88,489.62,480.9,488.37ZM565.61,451c-1.24,3.73,0,8.72,0,12.46-5,0-10-1.25-13.7,0-12.46,6.22-12.46,26.16,0,33.63,5,2.49,10,1.25,13.7,0,2.5,0,6.23,2.49,8.73,0,2.49-3.73,1.24-7.47,1.24-11.21V453.49C574.34,448.5,568.11,447.26,565.61,451Zm-5,37.37c-5,2.49-10-3.74-8.72-7.47,0-3.74,3.74-6.23,6.23-8.72C564.37,474.67,566.86,483.39,560.63,488.37Zm43.61-23.67c-5-1.24-10-2.49-13.71,0-12.46,6.23-12.46,28.66,1.25,33.64,3.73,2.49,8.72,0,12.46-1.25,3.73,1.25,8.72,2.49,10-1.24,0-10,1.25-21.18-1.24-32.39C609.22,463.46,606.73,464.7,604.24,464.7Zm-3.74,22.43c-5,3.73-10-2.5-10-7.48,0-3.74,3.74-6.23,6.23-8.72C603,474.67,605.48,482.14,600.5,487.13Zm66,10c3.74,1.25,8.72,2.49,11.21-2.49,1.25-13.7,0-27.41,0-42.36-2.49-2.49-5-5-7.47-3.74-5,2.5-2.5,10-2.5,15-5-1.25-11.21-2.5-16.19,1.24-8.72,7.48-10,22.43,0,29.9C655.32,499.58,661.54,499.58,666.53,497.09Zm-10-22.42a9.44,9.44,0,0,1,5-2.49c6.23,2.49,7.48,12.45,1.25,16.19C655.32,490.86,652.82,479.65,656.56,474.67Zm-530.73,0H108.39c-2.49,3.74-2.49,7.47,1.24,10,6.23-1.24,12.46,1.25,17.45-2.49C129.57,479.65,129.57,475.91,125.83,474.67ZM0,576.83H108.39c-17.44-27.41-36.13-53.57-53.57-81C36.13,522,18.69,549.42,0,576.83Zm696.43-79.74h0c-19.93,26.17-37.38,52.33-54.82,79.74H750C731.31,549.42,713.87,523.26,696.43,497.09Z"/><path class="cls-2" d="M656.56,260.38c-12.46-12.46-28.65-17.44-44.85-23.67-7.47-3.74-16.2-6.23-22.42-12.46-5-5-3.74-14.95,2.49-17.44,5-2.49,10-2.49,15-2.49,14.95,0,29.9,5,39.86,15,1.25-2.49,2.5-5,2.5-7.48,5-12.45,10-23.67,13.7-36.13a158.14,158.14,0,0,0-48.59-14.95c-18.69-1.24-38.62,0-56.06,8.73C546.93,175.66,537,184.39,532,195.6c-6.23,15-5,33.64,5,47.34,7.48,12.46,21.18,21.18,34.88,28.65,12.46,6.23,26.17,10,37.38,18.69,6.23,5,8.72,12.46,6.23,19.94-3.74,7.47-13.71,7.47-21.18,7.47-12.46,0-26.16-3.74-36.13-11.21-3.74-2.49-6.23-5-10-7.48-7.47,14.95-13.7,29.9-19.93,44.85,12.46,6.23,24.92,13.71,38.62,16.2s27.41,2.49,41.11,1.25c16.2-2.5,33.64-7.48,46.1-18.69C680.23,322.67,680.23,281.56,656.56,260.38ZM238,169.44c-11.22-6.23-23.67-8.73-36.13-10-29.9-2.49-61.05,6.23-82.23,28.65C94.68,211.79,87.21,246.68,91,279.07c2.49,23.67,13.7,47.34,33.63,63.54,22.43,17.44,51.08,21.18,78.49,18.69,22.43-1.25,44.85-7.48,62.3-21.18-6.23-11.22-12.46-23.67-17.45-34.89l-3.73-7.47A80.39,80.39,0,0,1,228,310.22c-10,5-21.18,6.23-32.39,6.23-10,0-21.18-1.25-29.9-7.48-10-6.23-16.2-17.44-18.69-29.9H281.56c3.74-13.7,6.23-28.65,3.74-42.36C282.81,208.06,264.12,183.14,238,169.44ZM149.5,238c2.49-7.48,6.23-15,11.21-19.94,5-6.23,13.71-8.72,21.18-11.21,8.72,0,18.69,2.49,24.92,8.72s10,14.95,12.46,22.43C195.6,238,173.17,236.71,149.5,238Zm338.87-41.12c-8.72-13.7-22.42-23.67-37.37-29.9-11.22-5-24.92-6.23-37.38-7.47-11.21-1.25-23.67,2.49-34.88,5-19.94-2.49-41.12-2.49-61.05-1.24V431.06h53.57V356.31c5,1.25,8.72,2.49,13.71,3.74,11.21,2.49,22.42,2.49,33.63,1.25,22.43-2.5,44.86-11.22,59.81-27.41,21.17-21.18,26.16-52.33,24.91-81C503.32,233,499.58,213,488.37,196.84Zm-41.11,81c-1.25,14.95-10,29.9-24.92,33.64-11.21,3.74-26.16,5-36.13-2.49-1.24-6.23,0-12.46-1.24-18.69V223c0-2.5,0-5,1.24-7.48,3.74-3.74,7.48-5,12.46-7.47,16.2-2.5,36.13,3.73,43.61,18.68S449.75,260.38,447.26,277.82Z"/><path class="cls-3" d="M644.1,247.92c-12.46-12.45-28.65-17.44-44.85-23.67-7.47-3.74-16.19-6.23-22.42-12.46-5-5-3.74-14.95,2.49-17.44,5-2.49,10-2.49,14.95-2.49,15,0,29.9,5,39.87,14.95,1.24-2.49,2.49-5,2.49-7.47,5-12.46,10-23.68,13.7-36.13a157.51,157.51,0,0,0-48.59-15c-18.68-1.25-38.62,0-56.06,8.72-11.21,6.23-21.18,15-26.16,26.16-6.23,15-5,33.64,5,47.34,7.48,12.46,21.18,21.18,34.89,28.66,12.45,6.23,26.16,10,37.37,18.68,6.23,5,8.72,12.46,6.23,19.94-3.74,7.47-13.7,7.47-21.18,7.47-12.46,0-26.16-3.73-36.13-11.21-3.74-2.49-6.23-5-10-7.48-7.47,15-13.7,29.91-19.93,44.86,12.46,6.22,24.92,13.7,38.62,16.19s27.41,2.49,41.11,1.25c16.2-2.49,33.64-7.48,46.1-18.69C667.77,310.22,667.77,269.1,644.1,247.92ZM225.5,157c-11.21-6.23-23.67-8.72-36.13-10-29.9-2.49-61.05,6.23-82.23,28.65-24.91,23.68-32.39,58.56-28.65,91C81,290.28,92.19,314,112.13,330.15c22.42,17.44,51.08,21.18,78.48,18.69,22.43-1.25,44.86-7.48,62.3-21.18-6.23-11.21-12.46-23.67-17.44-34.89q-1.87-3.74-3.74-7.47a80.39,80.39,0,0,1-16.2,12.46c-10,5-21.18,6.23-32.39,6.23-10,0-21.18-1.25-29.9-7.48-10-6.23-16.2-17.44-18.69-29.9H269.1c3.74-13.7,6.23-28.65,3.74-42.36C270.35,195.6,251.66,170.68,225.5,157ZM137,225.5c2.49-7.48,6.23-14.95,11.22-19.94,5-6.22,13.7-8.72,21.18-11.21,8.72,0,18.68,2.49,24.91,8.72s10,15,12.46,22.43C183.14,225.5,160.71,224.25,137,225.5Zm338.87-41.11c-8.72-13.71-22.42-23.68-37.37-29.9-11.21-5-24.92-6.23-37.38-7.48-11.21-1.25-23.67,2.49-34.88,5-19.93-2.49-41.11-2.49-61-1.24V418.6H358.8V343.85c5,1.25,8.72,2.5,13.71,3.74,11.21,2.49,22.42,2.49,33.64,1.25,22.42-2.49,44.85-11.22,59.8-27.41,21.18-21.18,26.16-52.33,24.91-81C490.86,220.51,487.13,200.58,475.91,184.39Zm-41.11,81c-1.25,14.95-10,29.9-24.92,33.63-11.21,3.74-26.16,5-36.13-2.49-1.24-6.23,0-12.46-1.24-18.69V210.55c0-2.49,0-5,1.24-7.48,3.74-3.73,7.48-5,12.46-7.47,16.2-2.49,36.13,3.74,43.61,18.69S437.29,247.92,434.8,265.37Z"/></svg>