<svg viewBox="0 0 22 15" fill="none" xmlns="http://www.w3.org/2000/svg"><path d="M19.77 7.754h-2.008a.402.402 0 0 1-.405-.4c0-.223.182-.42.405-.42h3.058V5.426h-3.058c-1.067 0-1.935.87-1.935 1.935 0 1.064.868 1.934 1.935 1.934h1.981c.224 0 .405.177.405.4 0 .223-.181.387-.405.387h-4.248c-.36.688-.711 1.279-1.423 1.574h5.698c1.05-.015 1.908-.903 1.908-1.958a1.95 1.95 0 0 0-1.908-1.944Z" fill="#71706F"/><path d="M12.072 5.426c-1.702 0-3.088 1.395-3.088 3.108V15h1.54v-3.344h1.545c1.702 0 3.083-1.413 3.083-3.127 0-1.714-1.378-3.103-3.08-3.103Zm0 4.656h-1.547V8.529c0-.868.69-1.574 1.547-1.574s1.553.706 1.553 1.574c0 .868-.696 1.553-1.553 1.553Z" fill="#71706F"/><path d="M4.105 11.656c-1.457 0-2.682-1.039-3.013-2.395 0 0-.096-.448-.096-.744 0-.295.09-.748.09-.748a3.109 3.109 0 0 1 6.127.74v.753H2.668c.268.525.811.82 1.437.82h4.086l.006-4.437c0-.661-.541-1.202-1.203-1.202H1.203C.54 4.443 0 4.967 0 5.629v5.791c0 .662.541 1.22 1.203 1.22h5.791c.594 0 1.089-.427 1.185-.984H4.105Z" fill="#C8036F"/><path d="M4.098 6.88c-.623 0-1.166.382-1.435.874h2.87c-.269-.492-.811-.874-1.435-.874ZM6.721 2.56C6.721 1.145 5.547 0 4.098 0 2.673 0 1.514 1.108 1.476 2.49v.787c0 .091.074.182.169.182h.965c.094 0 .177-.09.177-.183V2.56c0-.706.588-1.28 1.311-1.28.724 0 1.312.574 1.312 1.28v.717c0 .092.076.183.17.183h.966c.094 0 .175-.09.175-.183V2.56Z" fill="#C8036F"/></svg>
