<?xml version="1.0" encoding="utf-8"?>
<!-- Generator: Adobe Illustrator 22.1.0, SVG Export Plug-In . SVG Version: 6.00 Build 0)  -->
<svg version="1.1" id="Layer_1" xmlns="http://www.w3.org/2000/svg" xmlns:xlink="http://www.w3.org/1999/xlink" x="0px" y="0px"
	 viewBox="0 0 750 576.8" style="enable-background:new 0 0 750 576.8;" xml:space="preserve">
<style type="text/css">
	.st0{fill:#676A6A;}
	.st1{fill:none;stroke:#67696A;stroke-width:13;stroke-miterlimit:10;}
	.st2{fill:#B40F6B;}
	.st3{display:none;fill:none;}
	.st4{display:none;fill:#3D2E7F;}
	.st5{display:none;fill:#D3D3D3;}
	.st6{display:none;fill:#CF157E;}
</style>
<symbol  id="EPS-Logo" viewBox="-385 -236.3 770 472.8">
	<path id="XMLID_367_" class="st0" d="M219,0L219,0h-61.3c-6.8,0-12.4,5.4-12.4,12.2S150.9,25,157.7,25H251v46h-93.3
		c-32.5,0-59-26.5-59-59s26.5-59,59-59h60.4c6.8,0,12.4-5.4,12.4-12.2c0-6.8-5.5-11.8-12.4-11.8H88.6c-11-21-21.7-39-43.4-48H219
		l0,0c32,0.5,58.2,27.5,58.2,59.7C277.2-27.1,251-0.5,219,0z"/>
	<g id="XMLID_207_">
		<g id="XMLID_208_">
			<path id="XMLID_209_" class="st1" d="M-86.6-223.6"/>
		</g>
	</g>
	<path id="XMLID_201_" class="st0" d="M-15.8,71C-67.7,71-110,28.5-110-23.8c0-0.6,0-2,0-2V-221h47v102h47.1c51.9,0,94,43.1,94,95.4
		C78.1,28.6,36.1,71-15.8,71z M-15.8-71H-63v47.4c0,26.5,21.1,48,47.2,48s47.4-21.5,47.4-48C31.6-50.1,10.3-71-15.8-71z"/>
	<g id="XMLID_196_">
		<g id="XMLID_198_">
			<path id="XMLID_200_" class="st2" d="M-258.8-119c-44.4,0-81.8,31.7-91.9,73c0,0-2.9,13.7-2.9,22.7s2.8,22.8,2.8,22.8
				c10.2,41.3,47.5,72,91.9,72c52.2,0,95-42.4,95-94.6V-46h-138.6c8.2-16,24.7-25,43.8-25h124.6l0.2,135.3
				c0,20.2-16.5,36.7-36.7,36.7h-176.6c-20.2,0-36.7-16-36.7-36.2v-176.6c0-20.2,16.5-37.2,36.7-37.2h176.6c18.1,0,33.2,13,36.1,30
				H-258.8z"/>
			<path id="XMLID_199_" class="st2" d="M-259,26.6c-19,0-35.6-11.6-43.8-26.6h87.6C-223.4,15-240,26.6-259,26.6z"/>
		</g>
		<path id="XMLID_197_" class="st2" d="M-179,158.4c0,43.1-35.8,78.1-80,78.1c-43.5,0-78.8-33.8-80-75.9c0-0.2,0-0.4,0-0.5v-23.5
			c0-2.8,2.3-5.6,5.2-5.6h29.4c2.9,0,5.4,2.8,5.4,5.6v21.9l0,0c0,21.5,17.9,39,40,39s40-17.5,40-39v-21.9c0-2.8,2.3-5.6,5.2-5.6
			h29.4c2.9,0,5.3,2.8,5.3,5.6V158.4L-179,158.4z"/>
	</g>
	<g id="XMLID_13_">
		<path id="XMLID_192_" class="st0" d="M36.9-180l-4.3-24.1c-2.1-12.2-10.1-17.8-20.9-17.8c-9.2,0-16.3,6-14.2,17.7L1.8-180h6.6
			l-4.3-24.1c-1.3-7.5,2.1-11.8,8.5-11.8c6.6,0,12.2,3.9,13.5,11.8l4.3,24.1H36.9z M11.2-172.5c0-2,1.5-3,3.2-3
			c2.1,0,4.3,1.5,4.3,4.3c0,1.9-1.3,3-3,3C13.5-168.2,11.2-169.6,11.2-172.5z M25.3-172.4c0-2.1,1.6-3,3.3-3c1.8,0,4.3,1.5,4.3,4.2
			c0,1.9-1.4,3-3,3C27.8-168.2,25.3-169.6,25.3-172.4z"/>
		<path id="XMLID_189_" class="st0" d="M52.8-180l-3-16.7c2.5,3.4,7.6,5.2,11.2,5.2c7.3,0,12.4-4.3,12.4-12.3
			c0-11.3-7.9-18.1-17.9-18.1c-3.9,0-7.2,1.4-9.2,5.1l-1.1-4.3h-5.7l7.3,41H52.8z M48.2-208.1c-0.2-4.8,2.9-8,7.4-8
			c5.7,0,11.3,4.4,11.6,11.2c0.2,4.9-3,7.8-7.4,7.8C54.2-197.1,48.5-201.7,48.2-208.1z"/>
		<path id="XMLID_186_" class="st0" d="M85.4-209c-0.2-4,2.9-7.3,8.2-7.3c3,0,6.9,1.2,9,3.2l3.3-3.8c-3.6-3.3-8.9-5-13.4-5
			c-8.4,0-13.3,5-13.3,12.7c0,10.2,8,17.8,18.3,17.8c9.4,0,14.7-5.7,11.5-17.7H85.4z M104.1-204c0.5,5-2.5,7-7.4,7
			c-4.4,0-8.5-2-10.3-7H104.1z"/>
		<path id="XMLID_184_" class="st0" d="M125.3-192l-0.3-3.9c2.8,3.7,6.3,4.5,9.4,4.5c2.8,0,5.4-1,6.7-2.5l-3.7-5.3
			c-1.3,1.2-2.6,1.8-4.8,1.8c-4.2,0-8.3-2.5-9.3-7.9l-2.8-15.7h-6.1l5.1,29H125.3z"/>
		<path id="XMLID_182_" class="st0" d="M170.5-192l3.1-22.9l11.1,22.9h6.8l-15.3-29H169l-2.9,19.1l-4.7-9.5l-5.1-9.6h-7.1l-5.1,29
			h6.9l3-22.9l11.2,22.9H170.5z"/>
		<path id="XMLID_179_" class="st0" d="M199.3-209c-0.2-4,2.9-7.3,8.2-7.3c3,0,6.9,1.2,9,3.2l3.3-3.8c-3.6-3.3-8.9-5-13.4-5
			c-8.4,0-13.3,5-13.3,12.7c0,10.2,8,17.8,18.3,17.8c9.4,0,14.7-5.7,11.5-17.7H199.3z M217.9-204c0.5,5-2.5,7-7.4,7
			c-4.4,0-8.5-2-10.3-7H217.9z"/>
		<path id="XMLID_168_" class="st0" d="M239.6-192l-5.1-29h-6.1l5.1,29H239.6z M234.2-184.1c0-2.1,1.5-3.1,3.2-3.1
			c2.4,0,4.6,1.5,4.6,4.4c0,2-1.5,3.1-3.1,3.1C236.7-179.7,234.2-181.1,234.2-184.1z"/>
		<path id="XMLID_60_" class="st0" d="M266.6-199.2c-1.9,2.1-4.3,2.7-7.2,2.7c-4,0-6.9-1.4-6.9-3.9c0-2.1,2.3-3,5.7-3.3
			c5.3-0.5,12.1-2.2,10.7-9.8c-1-5.4-6.4-8.6-14-8.6c-4.7,0-9.3,1.1-12.4,5.4l4,4.3c2.2-3,6-4.3,9.5-4.3c2.9,0,6.3,1.1,6.9,3.8
			c0.5,2.6-1.8,3.6-6,4c-5,0.5-10.4,2.3-10.4,7.8c0,7.3,7.9,9.8,13.8,9.8c4.5,0,7.8-1,10.5-3.9L266.6-199.2z"/>
		<path id="XMLID_57_" class="st0" d="M285.8-192l-2.8-15.6c-0.9-5,1.4-8.4,6.4-8.4c4.8,0,8.9,4,9.7,8.8l2.7,15.2h6.1l-5.1-29h-5.5
			l0.4,4.2c-3.4-3.3-6.8-4.8-10.9-4.8c-7.2,0-11.4,5.1-9.9,13.9l2.8,15.6H285.8z"/>
		<path id="XMLID_55_" class="st0" d="M334.7-221l2.8,15.5c0.9,5-0.8,8.4-6.4,8.4c-4.8,0-8.9-3.9-9.8-8.7l-2.7-15.2h-6.1l5.1,29h5.6
			l-0.4-4.2c3.4,3.1,6.9,4.7,10.6,4.7c7.1,0,11.7-4.9,10.1-13.9l-2.8-15.6H334.7z"/>
		<path id="XMLID_15_" class="st0" d="M355.3-225c-0.4-4,2.7-5.6,7.8-5.6c4.5,0,9.3,2.5,10.5,8.9l0.9,5c-2.7-3.7-7.5-5.2-11.1-5.2
			c-7.5,0-12.7,4.4-12.7,12.5c0,11.5,8.5,18.1,18.1,18.1c4.1,0,7.7-1.9,9-5.2l1,4.6h5.9l-5.1-29.9c-1.9-11.1-10.1-14.5-17.6-14.5
			c-9,0-14,4.3-12.7,11.3H355.3z M357-208.3c0-5,3.3-8,7.9-8c12.6,0,16,19.3,3.4,19.3C362.3-196.9,357-201.4,357-208.3z"/>
	</g>
	<rect id="XMLID_368_" x="-385" y="-236" class="st3" width="770" height="472"/>
</symbol>
<title>eps</title>
<path class="st4" d="M380,0c-17.4,26.2-36.1,53.6-53.6,79.7h108.4C416.1,53.6,399.9,26.2,380,0z M390,462.2c0-2.5,0-5-1.2-7.5
	c-1.4-1.3-3.1-2.2-5-2.5c-5,1.2-6.2,6.2-6.2,10c-5,1.2-6.2,5-5,8.7c1.2,0,3.7,1.2,6.2,1.2v21.2c1.2,5,10,5,10,0
	c1.2-6.2,0-13.7,0-19.9c2.5-1.2,5-1.2,7.5-2.5C398.7,467.2,394.9,463.5,390,462.2z M461,463.5c-1.2-2.5-1.2-5-1.2-7.5
	c-1.9-0.3-3.6-1.2-5-2.5c-1.9,0.3-3.6,1.2-5,2.5c0,2.5-1.2,5-1.2,8.7H446c-1.2,1.2-2.5,2.5-2.5,3.7c1.4,2.7,3.6,4.8,6.2,6.2
	c0,7.5-1.2,13.7,1.2,21.2c1.2,5,6.2,3.7,10,2.5c2.5-7.5,1.2-16.2,1.2-24.9c2.5,0,3.7-1.2,6.2-1.2C467.2,467.2,466,463.5,461,463.5z
	 M235.5,462.2c-3.7,6.2-6.2,12.5-8.7,18.7c-2.5-5-3.7-11.2-6.2-16.2c-2.5-3.7-10-1.2-8.7,2.5c1.2,8.7,7.5,17.4,10,26.2
	c-1.2,6.2-6.2,11.2-1.2,17.4c3.7,0,7.5,0,7.5-3.7c5-12.5,11.2-24.9,14.9-38.6C244.2,464.7,239.2,463.5,235.5,462.2L235.5,462.2z
	 M289,463.5c-5-1.2-8.7,1.2-12.5,2.5c-5-2.5-11.2-3.7-16.2-1.2c-2.5-1.2-5-1.2-7.5-1.2c-1.2,1.2-2.5,2.5-2.5,3.7v28.7
	c1.2,1.2,3.7,2.5,6.2,3.7c8.7-5,3.7-16.2,5-23.7c0-3.7,5-2.5,7.5-3.7c2.5,7.5,1.2,15,2.5,22.4c1.2,3.7,6.2,3.7,8.7,2.5
	c2.5-7.5,0-17.4,2.5-24.9c1.2,0,5,0,6.2-1.2c1.2,7.5,0,15,1.2,22.4c1.2,5,6.2,3.7,10,2.5c1.3-7.8,1.3-15.8,0-23.7
	C299,468.4,294,463.5,289,463.5z M348.8,464.7c-3.7-2.5-7.5-1.2-10,2.5v27.4c1.2,5,6.2,3.7,10,2.5c1.2-7.5,0-13.7,0-21.2
	c0-1.2,1.2-2.5,2.5-3.7h6.2c1.2,3.7,1.2,7.5,1.2,11.2c0,5-1.2,12.5,5,15c1.2-1.2,3.7-1.2,5-2.5c1.2-8.7,2.5-17.4,0-26.2
	C366.3,462.2,356.3,461,348.8,464.7L348.8,464.7z M436,478.4c-3.7-2.5-8.7-2.5-10-6.2c5,1.2,10,3.7,15,2.5c-1.2-2.5,1.2-7.5-2.5-8.7
	c-5-2.5-10-2.5-15-1.2c-7.5,2.5-10,12.5-3.7,17.4c3.7,3.7,10,5,13.7,7.5c-5,1.2-8.7-1.2-13.7-2.5c-3.7,0-6.2,3.7-5,6.2
	c6.2,7.5,18.7,7.5,24.9,0C444.8,488.4,442.3,480.9,436,478.4L436,478.4z M517,464.7c-2.5-1.2-5-1.2-8.7-1.2
	c-2.5,7.5-1.2,16.2-1.2,23.7c0,3.7,0,6.2,1.2,10c2.5,2.5,6.2,0,8.7,0c1.2-7.5,0-15,1.2-22.4c1.2-3.7,8.7-3.7,8.7,0
	c1.2,7.5,0,15,1.2,22.4c3.7,1.2,10,1.2,10-3.7c0-7.5,1.2-16.2-1.2-23.7C533.2,462.2,524.5,462.2,517,464.7L517,464.7z M642.9,466
	c-1.2-3.7-7.5-2.5-10-1.2c-3.7-1.2-7.5-2.5-10,1.2c-1.2,10,0,18.7,0,28.6c0,5,8.7,5,10,0c1.2-6.2,0-12.5,1.2-17.4
	C636.6,473.4,646.6,472.2,642.9,466z M103.4,489.6c-2.5-1.2-5-5-7.5-2.5c-5,2.5-12.5,3.7-16.2-1.2c7.5-2.5,16.2,0,23.7-3.7
	c0-10-7.5-19.9-17.5-19.9c-12.5,0-21.2,16.2-14.9,26.2C76,502.1,97.2,502.1,103.4,489.6z M86,472.2c3.7-1.2,5,2.5,7.5,5H81
	C81,474.7,82.2,472.2,86,472.2z M330.2,468.4c-5.8-6.9-16-7.7-22.9-2c-0.3,0.2-0.5,0.5-0.8,0.7c-7.5,7.5-7.5,21.2,1.2,27.4
	c7.5,5,18.7,3.7,26.2-2.5c1.2-2.5,0-5,0-7.5c-5-1.2-8.7,1.2-13.7,2.5c-3.7,0-6.2-2.5-8.7-3.7h21.2
	C337.6,479.6,333.9,472.2,330.2,468.4L330.2,468.4z M311.5,477.2c1.2-2.5,3.7-6.2,7.5-5c2.5,0,2.5,2.5,3.7,5H311.5z M160.7,464.7
	c-5-2.5-10-1.2-15,0c-2.5-1.2-6.2-1.2-8.7-1.2c-3.7,11.2-1.2,22.4-1.2,33.6c0,5-1.2,12.5,3.7,15c8.7,1.2,7.5-8.7,7.5-15
	c3.7,1.2,8.7,2.5,13.7,0C171.9,492.1,171.9,472.2,160.7,464.7z M157,484.6c-1.2,5-8.7,5-10,0c-2.5-3.7,0-7.5,0-11.2
	c1.4-1.3,3.1-2.2,5-2.5C157,474.7,159.5,480.9,157,484.6z M204.3,464.7c-2.5-2.5-6.2,0-8.7,1.2c-5-2.5-12.5-3.7-17.4,1.2
	c-10,7.5-8.7,27.4,3.7,31.1c3.7,2.5,8.7,0,12.5-1.2c2.5,1.2,6.2,1.2,10,1.2c1.2-8.7,0-17.4,0-26.2
	C205.6,469.7,206.8,466,204.3,464.7L204.3,464.7z M194.3,482.1c0,3.7-5,8.7-8.7,5c-6.2-5-3.7-15,3.7-16.2
	C193.1,474.7,195.6,478.4,194.3,482.1L194.3,482.1z M489.6,464.7c-3.7-2.5-8.7-2.5-12.5-1.2c-13.7,5-15,27.4-1.2,33.6
	c5,2.5,10,1.2,13.7-1.2c2.5,2.5,6.2,1.2,10,1.2c1.2-11.2,1.2-22.5,0-33.6C495.9,463.5,492.1,463.5,489.6,464.7z M480.9,488.4
	c-5-2.5-6.2-12.5-1.2-15c3.7-3.7,8.7,2.5,8.7,6.2C489.6,484.6,485.9,489.6,480.9,488.4L480.9,488.4z M565.6,451
	c-1.2,3.7,0,8.7,0,12.5c-5,0-10-1.2-13.7,0c-12.5,6.2-12.5,26.2,0,33.6c5,2.5,10,1.2,13.7,0c2.5,0,6.2,2.5,8.7,0
	c2.5-3.7,1.2-7.5,1.2-11.2v-32.4C574.3,448.5,568.1,447.3,565.6,451z M560.6,488.4c-5,2.5-10-3.7-8.7-7.5c0-3.7,3.7-6.2,6.2-8.7
	C564.4,474.7,566.9,483.4,560.6,488.4L560.6,488.4z M604.2,464.7c-5-1.2-10-2.5-13.7,0c-12.5,6.2-12.5,28.7,1.2,33.6
	c3.7,2.5,8.7,0,12.5-1.2c3.7,1.2,8.7,2.5,10-1.2c0-10,1.2-21.2-1.2-32.4C609.2,463.5,606.7,464.7,604.2,464.7L604.2,464.7z
	 M600.5,487.1c-5,3.7-10-2.5-10-7.5c0-3.7,3.7-6.2,6.2-8.7C603,474.7,605.5,482.1,600.5,487.1L600.5,487.1z M666.5,497.1
	c3.7,1.2,8.7,2.5,11.2-2.5c1.2-13.7,0-27.4,0-42.4c-2.5-2.5-5-5-7.5-3.7c-5,2.5-2.5,10-2.5,15c-5-1.2-11.2-2.5-16.2,1.2
	c-8.7,7.5-10,22.4,0,29.9C655.3,499.6,661.5,499.6,666.5,497.1L666.5,497.1z M656.5,474.7c1.4-1.3,3.1-2.2,5-2.5
	c6.2,2.5,7.5,12.5,1.2,16.2C655.3,490.9,652.8,479.6,656.5,474.7L656.5,474.7z M125.8,474.7h-17.4c-2.5,3.7-2.5,7.5,1.2,10
	c6.2-1.2,12.5,1.2,17.5-2.5C129.6,479.6,129.6,475.9,125.8,474.7L125.8,474.7z M0,576.8h108.4c-17.4-27.4-36.1-53.6-53.6-81
	C36.1,522,18.7,549.4,0,576.8z M696.4,497.1L696.4,497.1c-19.9,26.2-37.4,52.3-54.8,79.7H750C731.3,549.4,713.9,523.3,696.4,497.1
	L696.4,497.1z"/>
<path class="st5" d="M656.6,260.4c-12.5-12.5-28.7-17.4-44.8-23.7c-7.5-3.7-16.2-6.2-22.4-12.5c-5-5-3.7-14.9,2.5-17.4
	c5-2.5,10-2.5,15-2.5c15,0,29.9,5,39.9,15c1.2-2.5,2.5-5,2.5-7.5c5-12.4,10-23.7,13.7-36.1c-15.3-7.6-31.7-12.6-48.6-14.9
	c-18.7-1.2-38.6,0-56.1,8.7c-11.3,6.2-21.2,14.9-26.2,26.1c-6.2,15-5,33.6,5,47.3c7.5,12.5,21.2,21.2,34.9,28.6
	c12.5,6.2,26.2,10,37.4,18.7c6.2,5,8.7,12.5,6.2,19.9c-3.7,7.5-13.7,7.5-21.2,7.5c-12.5,0-26.2-3.7-36.1-11.2c-3.7-2.5-6.2-5-10-7.5
	c-7.5,15-13.7,29.9-19.9,44.9c12.5,6.2,24.9,13.7,38.6,16.2s27.4,2.5,41.1,1.2c16.2-2.5,33.6-7.5,46.1-18.7
	C680.2,322.7,680.2,281.6,656.6,260.4z M238,169.4c-11.2-6.2-23.7-8.7-36.1-10c-29.9-2.5-61.1,6.2-82.2,28.6
	c-25,23.7-32.4,58.6-28.6,91c2.5,23.7,13.7,47.3,33.6,63.5c22.4,17.4,51.1,21.2,78.5,18.7c22.4-1.2,44.9-7.5,62.3-21.2
	c-6.2-11.2-12.5-23.7-17.4-34.9l-3.7-7.5c-4.9,4.8-10.3,9-16.2,12.5c-10,5-21.2,6.2-32.4,6.2c-10,0-21.2-1.2-29.9-7.5
	c-10-6.2-16.2-17.4-18.7-29.9h134.5c3.7-13.7,6.2-28.6,3.7-42.4C282.8,208.1,264.1,183.1,238,169.4z M149.5,238
	c2.5-7.5,6.2-15,11.2-19.9c5-6.2,13.7-8.7,21.2-11.2c8.7,0,18.7,2.5,24.9,8.7s10,14.9,12.5,22.4C195.6,238,173.2,236.7,149.5,238z
	 M488.4,196.9c-8.7-13.7-22.4-23.7-37.4-29.9c-11.2-5-24.9-6.2-37.4-7.5c-11.2-1.2-23.7,2.5-34.9,5c-19.9-2.5-41.1-2.5-61-1.2v267.8
	h53.6v-74.8c5,1.2,8.7,2.5,13.7,3.7c11.2,2.5,22.4,2.5,33.6,1.2c22.4-2.5,44.9-11.2,59.8-27.4c21.2-21.2,26.2-52.3,24.9-81
	C503.3,233,499.6,213,488.4,196.9L488.4,196.9z M447.3,277.9c-1.2,15-10,29.9-24.9,33.6c-11.2,3.7-26.2,5-36.1-2.5
	c-1.2-6.2,0-12.5-1.2-18.7V223c0-2.5,0-5,1.2-7.5c3.7-3.7,7.5-5,12.5-7.5c16.2-2.5,36.1,3.7,43.6,18.7S449.8,260.4,447.3,277.9
	L447.3,277.9z"/>
<path class="st6" d="M644.1,247.9c-12.5-12.4-28.7-17.4-44.8-23.7c-7.5-3.7-16.2-6.2-22.4-12.5c-5-5-3.7-14.9,2.5-17.4
	c5-2.5,10-2.5,15-2.5c15,0,29.9,5,39.9,14.9c1.2-2.5,2.5-5,2.5-7.5c5-12.5,10-23.7,13.7-36.1c-15.3-7.6-31.7-12.7-48.6-15
	c-18.7-1.2-38.6,0-56.1,8.7c-11.2,6.2-21.2,15-26.2,26.2c-6.2,15-5,33.6,5,47.3c7.5,12.5,21.2,21.2,34.9,28.7
	c12.5,6.2,26.2,10,37.4,18.7c6.2,5,8.7,12.5,6.2,19.9c-3.7,7.5-13.7,7.5-21.2,7.5c-12.5,0-26.2-3.7-36.1-11.2c-3.7-2.5-6.2-5-10-7.5
	c-7.5,15-13.7,29.9-19.9,44.9c12.5,6.2,24.9,13.7,38.6,16.2s27.4,2.5,41.1,1.2c16.2-2.5,33.6-7.5,46.1-18.7
	C667.8,310.2,667.8,269.1,644.1,247.9z M225.5,157c-11.2-6.2-23.7-8.7-36.1-10c-29.9-2.5-61.1,6.2-82.2,28.6
	c-24.9,23.7-32.4,58.6-28.7,91c2.5,23.6,13.7,47.4,33.6,63.5c22.4,17.4,51.1,21.2,78.5,18.7c22.4-1.2,44.9-7.5,62.3-21.2
	c-6.2-11.2-12.5-23.7-17.4-34.9c-1.2-2.5-2.5-5-3.7-7.5c-4.8,4.8-10.3,9-16.2,12.5c-10,5-21.2,6.2-32.4,6.2c-10,0-21.2-1.2-29.9-7.5
	c-10-6.2-16.2-17.4-18.7-29.9h134.6c3.7-13.7,6.2-28.6,3.7-42.4C270.4,195.6,251.7,170.7,225.5,157z M137,225.5
	c2.5-7.5,6.2-14.9,11.2-19.9c5-6.2,13.7-8.7,21.2-11.2c8.7,0,18.7,2.5,24.9,8.7s10,15,12.5,22.4C183.1,225.5,160.7,224.2,137,225.5z
	 M475.9,184.4c-8.7-13.7-22.4-23.7-37.4-29.9c-11.2-5-24.9-6.2-37.4-7.5c-11.2-1.2-23.7,2.5-34.9,5c-19.9-2.5-41.1-2.5-61-1.2v267.8
	h53.6v-74.8c5,1.2,8.7,2.5,13.7,3.7c11.2,2.5,22.4,2.5,33.6,1.2c22.4-2.5,44.9-11.2,59.8-27.4c21.2-21.2,26.2-52.3,24.9-81
	C490.9,220.5,487.1,200.6,475.9,184.4L475.9,184.4z M434.8,265.4c-1.2,15-10,29.9-24.9,33.6c-11.2,3.7-26.2,5-36.1-2.5
	c-1.2-6.2,0-12.5-1.2-18.7v-67.3c0-2.5,0-5,1.2-7.5c3.7-3.7,7.5-5,12.5-7.5c16.2-2.5,36.1,3.7,43.6,18.7S437.3,247.9,434.8,265.4
	L434.8,265.4z"/>
<use xlink:href="#EPS-Logo"  width="770" height="472.8" id="XMLID_202_" x="-385" y="-236.3" transform="matrix(0.9728 0 0 -0.9728 375.4687 285.5419)" style="overflow:visible;"/>
</svg>
