<svg viewBox="0 0 26 16" fill="none" xmlns="http://www.w3.org/2000/svg"><path d="M.965 2.6a2.4 2.4 0 012.4-2.4h19.714a2.4 2.4 0 012.4 2.4v10.8a2.4 2.4 0 01-2.4 2.4H3.365a2.4 2.4 0 01-2.4-2.4V2.6z" fill="#fff"/><path fill-rule="evenodd" clip-rule="evenodd" d="M23.08 1.4H3.364a1.2 1.2 0 00-1.2 1.2v10.8a1.2 1.2 0 001.2 1.2h19.714a1.2 1.2 0 001.2-1.2V2.6a1.2 1.2 0 00-1.2-1.2zM3.364.2a2.4 2.4 0 00-2.4 2.4v10.8a2.4 2.4 0 002.4 2.4h19.714a2.4 2.4 0 002.4-2.4V2.6a2.4 2.4 0 00-2.4-2.4H3.365z" fill="#0F3365"/><path d="M13.223.2h8.257a4 4 0 014 4v7.6a4 4 0 01-4 4h-8.257V.2z" fill="#0F3365"/><path fill-rule="evenodd" clip-rule="evenodd" d="M14.895 12.863h2.553v-3.55h.028c.483.778 1.447 1.066 2.341 1.066 2.199 0 3.376-1.605 3.376-3.537 0-1.58-1.12-3.3-3.163-3.3-1.163 0-2.242.415-2.752 1.33h-.029V3.694h-2.354v9.17zm5.662-5.97c0 1.04-.582 1.755-1.546 1.755-.852 0-1.562-.714-1.562-1.668 0-.978.625-1.706 1.562-1.706.992 0 1.546.752 1.546 1.618z" fill="#FFFFFE"/><path fill-rule="evenodd" clip-rule="evenodd" d="M11.545 3.693H9.232v1.18h-.028a2.96 2.96 0 00-2.511-1.33c-2.298 0-3.334 1.455-3.334 3.4 0 1.932 1.263 3.286 3.292 3.286 1.021 0 1.872-.35 2.482-1.117h.028v.352c0 1.28-.794 1.894-2.27 1.894-1.063 0-1.716-.2-2.496-.539L4.267 12.6a9.65 9.65 0 002.823.414c2.98 0 4.455-.866 4.455-3.55v-5.77zM5.996 6.904c0-.89.497-1.63 1.447-1.63 1.149 0 1.631.815 1.631 1.543 0 1.004-.723 1.68-1.63 1.68-.767 0-1.448-.577-1.448-1.593z" fill="#D8232A"/></svg>
