<svg xmlns="http://www.w3.org/2000/svg" viewBox="0 0 740 318"><path data-name="92653320" d="M0 57A57 57 0 0157 0h626a57 57 0 0157 57v204a57 57 0 01-57 57H57a57 57 0 01-57-57z" fill="#000268"/><path data-name="92186184" d="M24 59v200a36 36 0 0035 36h328V23H59a36 36 0 00-35 36zm448 99c0 13-7 22-17 22-9 0-17-9-17-21s7-21 17-21c11 0 17 10 17 20zm-62 73h28v-43c6 9 16 13 26 13 23 0 36-20 36-43 0-20-12-41-34-41-13 0-24 5-30 16v-14h-26v112zm128-57c0-8 7-11 17-11h11c0 10-6 19-17 19-6 0-11-3-11-8zm56 25a96 96 0 01-2-19v-30c0-24-17-33-38-33-12 0-22 2-32 6l1 19c7-5 16-6 25-6 10 0 18 2 18 13a85 85 0 00-12-1c-15 0-42 3-42 28 0 17 14 25 30 25 12 0 19-5 26-15v13h26zm12 32a79 79 0 0017 2c26 0 32-19 39-40l30-74h-28l-16 52h-1l-17-52h-30l33 82c-2 7-7 11-14 11a35 35 0 01-11-2l-2 21z" fill="#fff"/><path data-name="47303032" d="M91 158c0-11 5-20 16-20 12 0 17 10 17 19 0 12-7 21-17 21-9 0-16-7-16-20zm60-39h-25v14c-6-9-16-16-27-16-25 0-36 18-36 42 0 23 13 40 35 40 11 0 20-4 27-14v5c0 15-8 23-24 23-12 0-19-3-27-7l-2 22a92 92 0 0031 5c32 0 48-11 48-43zm47-33h-28v20h28V86zm-28 113h28v-80h-28zm105-81a64 64 0 00-10-1c-12 0-19 7-23 17h-1v-15h-25v80h28v-34c0-15 7-25 20-25a32 32 0 019 1l2-23zm47 63c-12 0-18-10-18-22s6-23 18-23 18 11 18 23-5 22-18 22zm0 20c27 0 47-16 47-42 0-27-20-42-47-42s-46 15-46 42c0 26 20 42 46 42z" fill="#ff0007"/></svg>