<svg id="svg2226" xmlns="http://www.w3.org/2000/svg" viewBox="0 0 740 318.09" preserveAspectRatio="xMidYMid meet"><defs><style>.cls-1{fill:#000268;}.cls-2{fill:#fff;}.cls-3{fill:#ff0007;}</style></defs><title>giropay</title><g id="layer1"><path id="_92653320" data-name=" 92653320" class="cls-1" d="M0,57.05A57.26,57.26,0,0,1,57.39,0H682.61A57.26,57.26,0,0,1,740,57.05V261a57.2,57.2,0,0,1-57.39,57.06H57.39A57.14,57.14,0,0,1,0,261.12Z"/><path id="_92186184" data-name=" 92186184" class="cls-2" d="M23.56,59.06V259.2a35.73,35.73,0,0,0,35.83,35.66H386.92V23.39H59.39A35.73,35.73,0,0,0,23.56,59.06Zm448.06,99.06c0,12.78-6.27,21.47-16.71,21.47-9.19,0-16.87-8.77-16.87-20.46,0-11.95,6.76-20.89,16.87-20.89C465.6,138.33,471.62,147.52,471.62,158.12ZM410.3,231.21H438V187.78h.34c5.26,9.52,15.7,13,25.31,13,23.8,0,36.5-19.63,36.5-43.27,0-19.38-12.11-40.35-34.25-40.35-12.61,0-24.22,5.1-29.82,16.29h-.33V119H410.22V231.21Zm127.56-57.63c0-7.69,7.35-10.61,16.7-10.61,4.18,0,8.1.25,11.7.42,0,9.35-6.6,18.87-17,18.87-6.44.09-11.36-3.09-11.36-8.68ZM593.65,199a96.13,96.13,0,0,1-1.5-18.88V150.27c0-24.39-17.62-33.16-38.09-33.16-11.78,0-22.14,1.67-31.91,5.68l.5,18.71c7.69-4.34,16.54-6,25.48-6,9.94,0,18.13,2.92,18.29,13.86a84.67,84.67,0,0,0-12.86-1.08c-14.7,0-41.27,2.92-41.27,27.31,0,17.38,14.12,25.14,29.91,25.14,11.36,0,19-4.42,25.31-14.45h.33c0,4.18.42,8.27.59,12.62h25.22ZM606,231.21a78.78,78.78,0,0,0,17.2,1.84c25.31,0,31.33-19.55,39.18-39.59L691.72,119H664.07l-16.46,52.21h-.25L630.16,119H600.42l32.41,81.86c-2,7.1-7.18,11-14,11a35.15,35.15,0,0,1-10.94-1.67l-1.92,21Z"/><path id="_47303032" data-name=" 47303032" class="cls-3" d="M91.05,158.29c0-10.94,5.34-20,15.7-20,12.45,0,17.63,9.94,17.63,18.88,0,12.27-7.85,20.54-17.63,20.54-8.35,0-15.7-7-15.7-19.46ZM151.11,119H126.05V133.4h-.25c-5.85-9.86-15.37-16.29-27.15-16.29-24.89,0-36.09,17.79-36.09,41.6,0,23.64,13.7,40.26,35.59,40.26,11.11,0,20.3-4.34,26.9-13.7h.33v4.35c0,15.62-8.6,23.13-24.56,23.13-11.53,0-18.63-2.42-27.06-6.6L72.34,228a92.37,92.37,0,0,0,30.57,5.09c32.24,0,48.2-10.61,48.2-43.43ZM197.8,85.62H170.15v20.3H197.8V85.62ZM170.15,199H197.8V119H170.15ZM274.73,118a64.12,64.12,0,0,0-9.35-.92c-11.95,0-18.88,6.43-23.64,16.62h-.34V119H216.26v80h27.65V165.31c0-15.71,7.27-25.06,20.13-25.06a31.8,31.8,0,0,1,9.36.92L274.73,118Zm47.62,63.4c-12.78,0-18-10.61-18-22.39,0-11.94,5.18-22.55,18-22.55S340.3,147.1,340.3,159C340.3,170.82,335,181.43,322.35,181.43Zm0,19.38c26.39,0,46.52-15.37,46.52-41.77,0-26.56-20.13-41.93-46.52-41.93S275.82,132.48,275.82,159C275.82,185.44,295.87,200.81,322.35,200.81Z"/></g></svg>