<svg id="Layer_1" data-name="Layer 1" xmlns="http://www.w3.org/2000/svg" viewBox="0 0 750 661.16" preserveAspectRatio="xMidYMid meet"><defs><style>.cls-1{fill:#fff;}.cls-2{fill:#d50072;}</style></defs><title>ideal</title><path class="cls-1" d="M0,0V661.16H385.46C639.73,661.16,750,518.76,750,329.93,750,141.84,639.73,0,385.46,0Z"/><path d="M41.66,41.7H385.51c233.38,0,322.84,127.45,322.84,288.22,0,192.78-124.92,289.51-322.84,289.51H41.66ZM75,75V586.12H385.51C573,586.12,675,498.76,675,329.92,675,156.4,564.41,75,385.51,75H75Z"/><path d="M116.66,367.5h99.4V544.42h-99.4Z"/><circle cx="166.35" cy="278.36" r="61.78"/><path class="cls-2" d="M424.51,307.27v28.64H353.69V221h68.56V249.6H382.32v13.31h37.76v28.64H382.32v15.73Zm12.39,28.66,34.66-115h40.75l34.65,115H517.15l-6.5-22.24H473.18l-6.51,22.24Zm44.68-50.86h20.73l-9.51-32.49h-1.73l-9.49,32.49Zm79.78-64.14H590v86.35h42.42C620.79,150.6,497.56,116.75,385.52,116.75H266.12V221h17.67C316,221,336,242.84,336,278c0,36.28-19.52,57.93-52.22,57.93H266.12V544.5H385.53c182.07,0,245.48-84.56,247.72-208.59H561.36v-115Zm-295.27,28.7v57.65h17.7c12.26,0,23.59-3.55,23.59-29.29,0-25.14-12.61-28.36-23.59-28.36Z"/></svg>