<svg data-name="Layer 1" xmlns="http://www.w3.org/2000/svg" viewBox="0 0 750 661"><path d="M0 0v661h385c255 0 365-142 365-331C750 142 640 0 385 0z" fill="#fff"/><path d="M42 42h344c233 0 322 127 322 288 0 193-125 289-322 289H42zm33 33v511h311c187 0 289-87 289-256 0-174-111-255-289-255H75z"/><path d="M117 368h99v176h-99z"/><circle cx="166" cy="278" r="62"/><path d="M425 307v29h-71V221h68v29h-40v13h38v29h-38v15zm12 29l35-115h40l35 115h-30l-6-22h-38l-6 22zm45-51h20l-9-32h-2l-9 32zm79-64h29v86h42c-11-156-134-190-246-190H266v104h18c32 0 52 22 52 57 0 36-20 58-52 58h-18v209h120c182 0 245-85 247-209h-72V221zm-295 29v57h18c12 0 23-3 23-29 0-25-12-28-23-28z" fill="#d50072"/></svg>