<svg version="1.0" xmlns="http://www.w3.org/2000/svg" width="64" height="40" viewBox="0 0 600 227"><path d="M167.76 39.2c-10.88 3.44-14.8 17.52-7.28 26.24 7.36 8.64 21.04 7.12 26.64-2.96 5.6-10.08-1.52-23.12-12.88-23.76-2.32-.16-5.28.08-6.48.48zM100 128.8v88.8l14.64-.16 14.56-.24.24-88.64.16-88.56H100v88.8zM381.6 114v74.08l-2.96 1.36c-1.84.8-5.28 1.28-8.64 1.36-4.56 0-6.08-.32-8.16-1.84-4.56-3.2-4.88-5.68-5.36-34.96-.4-28.8-1.36-36.32-5.6-45.6-6.4-14-22.96-21.92-39.44-18.64-22.08 4.32-37.6 17.92-59.04 51.92l-7.2 11.36-.24-30.88-.16-30.96H216v126.4h27.04l2.96-6.96c8.88-20.64 23.76-47.12 35.04-62.24 18.88-25.36 36.32-34.56 42.4-22.4 2.48 5.04 3.12 11.6 3.76 36.4.48 20.4.88 26 2 29.6 6.32 20.24 23.36 30.32 46 27.36 19.12-2.56 35.04-11.52 55.04-30.96 6.16-6 10.88-10 11.2-9.52.32.48 5.92 9.36 12.4 19.76l11.84 18.96H482c10.08 0 16.48-.32 16.8-.8.24-.48-8.32-14.96-19.12-32.24L460 153.12l6.4-9.68c7.92-12.16 16.96-27.76 23.6-41.12 2.88-5.68 5.2-10.48 5.2-10.72 0-.24-7.28-.4-16.16-.4l-16.24.08-5.92 10.96c-11.12 20.72-25.04 41.12-38.88 57.04l-6.4 7.28-.4-63.04-.4-63.12-14.56-.24L381.6 40v74zM158.4 154.4v63.2h28.8V91.2h-28.8v63.2z"/></svg>