<svg viewBox="0 0 750 471" xmlns="http://www.w3.org/2000/svg"><g fill="none" fill-rule="evenodd"><rect fill="#000" width="750" height="471" rx="40"/><path d="M675 236a179 179 0 11-359 0 179 179 0 01359 0" fill="#D9222A"/><path d="M357 349l-14-19h64l10-19h-84l-8-19h100a179 179 0 005-95H320l5-19h100l-8-19h-84l10-19h64l-14-19h-36l18-19a179 179 0 1018 247h-36" fill="#0097D0"/><path d="M651 336a6 6 0 1112 0 6 6 0 01-12 0zm6 4a4 4 0 100-9 4 4 0 000 9zm-1-2h-1v-5h3l1 2-1 1 1 2h-1l-1-2h-1v2zm0-3h2l-1-1h-1v1zm-284-51c-7 2-15 3-22 3-25 0-39-11-39-33 0-26 17-44 40-44 18 0 30 10 30 27l-3 18h-44c-2 11 6 15 19 15 8 0 15-1 23-4l-4 18zm-12-44c0-2 3-13-10-13-7 0-12 4-14 13h24zm28-5c0 9 5 16 17 21 9 3 10 4 10 8s-4 7-13 7l-20-3-3 17 24 2c24 0 35-8 35-25 0-10-5-16-16-21-10-3-11-4-11-8s4-6 11-6l17 1 3-17-20-1c-26 0-35 11-34 25m-89 51h-18v-8c-6 6-13 9-24 9-12 0-20-8-20-20 0-18 14-29 39-29l10 1v-5c0-5-3-7-14-7-10 0-17 2-24 3l3-16c12-3 19-4 27-4 20 0 30 7 30 21l-2 15-7 40zm-16-33l-5-1c-13 0-19 4-19 12 0 4 3 7 8 7 9 0 16-7 16-18zm194 32l-16 2c-11 0-18-6-18-16l3-20 11-57h22l-3 17h11l-3 19h-11l-7 33c0 4 3 6 8 6l6-1-3 17m99-75c-16 0-29 6-36 18l6-17c-12-4-19 2-26 11l-2 2v-13h-21l-12 70-1 5h23l5-29c5-21 13-27 25-24-3 6-4 13-4 20 0 19 10 34 35 34s43-13 43-44c0-19-12-33-35-33zm-6 59c-8 0-13-7-13-17 0-11 7-25 18-25 9 0 12 8 12 15 0 17-6 27-17 27zm-343 17h-23l13-70-30 70h-20l-4-70-14 70h-20l17-91h35l3 51 22-51h38l-17 91" fill="#000"/><path d="M613 274a6 6 0 1112 0 6 6 0 01-12 0zm6 5a4 4 0 100-9 4 4 0 000 9zm-1-2h-1v-5h3l1 1-1 2 1 2h-1l-1-2h-1v2zm0-3h2v-1h-2v1zm-240 4c-8 2-15 3-23 3-25 0-38-11-38-33 0-25 17-44 39-44 19 0 30 11 30 27 0 5 0 11-2 18h-45c-1 11 6 16 20 16 7 0 15-2 23-5l-4 18zm-12-44c0-1 3-13-10-13-7 0-13 5-15 13h25zm27-5c0 10 5 16 17 21 10 4 11 5 11 8 0 5-4 7-13 7-7 0-13-1-20-3l-3 17c6 2 15 2 23 2 24 0 35-7 35-24 0-11-4-17-16-21-9-4-10-5-10-8 0-4 3-6 11-6l16 1 3-17-20-2c-25 0-34 11-34 25m-88 51h-19l1-8c-6 7-14 9-24 9-12 0-20-8-20-20 0-18 14-29 39-29l9 1 1-5c0-5-4-7-14-7-11 0-18 2-24 4l3-17c11-3 19-4 27-4 19 0 29 8 29 22 1 4-1 11-1 15-1 4-7 33-7 39zm-16-33h-6c-12 0-19 3-19 11 0 5 3 8 8 8 10 0 16-8 17-19zm194 32c-7 2-11 2-16 2-12 0-18-5-18-16l3-20 10-57h23l-4 18h12l-3 18h-12l-6 34c0 4 2 5 8 5h6l-3 16m110-42c0 16-7 26-18 26-8 0-12-6-12-16 0-12 7-25 18-25 9 0 12 7 12 15zm24 0c0-18-12-33-35-33-27 0-44 18-44 44 0 18 10 33 35 33 26 0 44-13 44-44zm-115-31c-2 23-7 46-11 69l-1 5h22c8-44 11-57 28-53l8-21c-12-4-19 2-26 11 0-4 2-8 1-11h-21m-270 74h-22l13-70-31 70h-20l-4-69-13 69h-20l17-91h35l2 57 24-57h37l-18 91" fill="#FFF"/></g></svg>