<svg viewBox="0 0 750 471" xmlns="http://www.w3.org/2000/svg"><g fill="none" fill-rule="evenodd"><rect fill="#F4F4F4" width="750" height="471" rx="40"/><path d="M619 422l-3 1a4 4 0 000 6 4 4 0 006 0 4 4 0 000-6l-3-1zm0 7a3 3 0 110-6 3 3 0 010 6zm0-5h-2v4h1v-1l1 1h1l-1-1 1-1v-1l-1-1zm0 1l1 1h-2v-1h1zm-459 3h-9v-41h9v5s8-6 12-6c9 0 14 7 14 7s4-7 14-7c14 0 16 13 16 13v29h-9v-26s0-8-9-8-10 8-10 8v26h-9v-26s-1-8-8-8c-11 0-11 8-11 8v26zm266-42c-4 0-12 6-12 6v-5h-8v41h9l-1-26s1-8 11-8l4 1 3-8-6-1zm124 0c-5 0-12 6-12 6v-5h-9v41h9v-26s0-8 10-8l5 1 3-8-6-1zm-306 0c-13 0-20 11-20 21s8 22 21 22c7 0 13-5 13-5v4h8v-41h-8v5s-6-6-14-6zm2 8c7 0 13 6 13 14 0 7-6 13-13 13s-13-6-13-13c0-8 6-14 13-14zm249-8c-13 0-20 11-20 21s8 22 21 22c7 0 13-5 13-5v4h9v-41h-9v5s-6-6-14-6zm2 8c7 0 13 6 13 14 0 7-6 13-13 13s-13-6-13-13c0-8 6-14 13-14zm81-8c-13 0-20 11-20 21s8 22 21 22c7 0 13-5 13-5v4h9v-57h-9v21s-6-6-14-6zm2 8c7 0 13 6 13 14 0 7-6 13-13 13s-13-6-13-13c0-8 6-14 13-14zm-287 35c-9 0-17-5-17-5l3-6s8 3 14 3c3 0 9-1 10-4 0-4-11-5-11-5s-15-1-15-13c0-8 8-13 17-13 6 0 17 5 17 5l-5 6-12-3c-4 0-8 2-8 5 0 8 25-1 25 17 0 11-10 13-18 13zm33-54v12h-8v9h8v20s-1 14 14 14l12-3-3-9s-4 3-7 3c-7-1-7-5-7-5v-20h14v-9h-14v-12h-9zm52 11c-15 0-22 12-21 22 0 10 6 22 21 22 7 0 16-6 16-6l-4-7s-6 5-12 5c-11 0-12-11-12-11h30s3-25-18-25zm-2 8h1c11 0 11 10 11 10h-22s0-9 10-10zm90 23l4 8s-6 4-13 4c-15 0-23-11-23-22 0-16 13-21 22-21 8 0 15 5 15 5l-5 8s-2-5-10-5-13 7-13 14 5 13 13 13c5 0 10-4 10-4z" fill="#000"/><path d="M625 279v-6h-2l-2 4-1-4h-2v6h1v-5l2 4h1l1-4v5h2zm-10 0v-5h2v-1h-4v1h1v5h1z" fill="#F79F1A"/><path d="M625 197a154 154 0 11-309 0 154 154 0 01309 0z" fill="#F79F1A"/><path d="M434 197a154 154 0 11-309 0 154 154 0 01309 0z" fill="#EA001B"/><path d="M375 75a155 155 0 000 243 155 155 0 000-243z" fill="#FF5F01"/></g></svg>