<svg id="Layer_1" data-name="Layer 1" xmlns="http://www.w3.org/2000/svg" viewBox="0 0 750 885.86" preserveAspectRatio="xMidYMid meet"><defs><style>.cls-1{fill:#2c6cae;}.cls-2{fill:#434142;}</style></defs><title>multibanco</title><g id="g14"><g id="g20"><path id="path22" class="cls-1" d="M371.16,713.9H678.27c70.13,0,70.83-74.54,63.69-111.34-3.91-24.73-45.93-24.52-50.56,0v28.72a23.93,23.93,0,0,1-23.86,23.85H78.74a23.92,23.92,0,0,1-23.85-23.85V602.56c-4.63-24.52-46.66-24.73-50.56,0C-2.81,639.36-2.12,713.9,68,713.9H371.16ZM154,0H627.58c33.27,0,60.49,28.8,60.49,64v30.6c0,43.25-58.6,43.08-58.6.29V78.19a19.38,19.38,0,0,0-19.33-19.33H135.64a19.39,19.39,0,0,0-19.33,19.33V94.56c0,43-55.84,42.71-55.84.93V64C60.47,28.8,87.69,0,121,0Z"/></g><g id="g24"><path id="path26" class="cls-2" d="M676.12,351.66c32.8,15.43,55.44,47.28,55.44,83.84,0,51.56-45,93.74-100,93.74H477.31c-14.42,0-26.23-11.06-26.23-24.57V211.27a25.83,25.83,0,0,1,25.77-25.74H605.29c54.07,0,98.31,44.19,98.31,98.2a97.81,97.81,0,0,1-27.48,67.93M561,327.77h49v-.55a46.72,46.72,0,0,0,39.51-46h0a46.69,46.69,0,0,0-46.56-46.56H504.31V478.11H629.37a48.09,48.09,0,1,0,0-96.17H610v-.12H561a27,27,0,1,1,0-54.05"/></g><g id="g28"><path id="path30" class="cls-2" d="M173.61,804a8.27,8.27,0,0,1,16.54,0V848.7h0A37.18,37.18,0,0,1,153,885.82v0h0v0a37.18,37.18,0,0,1-37.11-37.1h0V804a8.27,8.27,0,0,1,16.54,0v44.75h0A20.74,20.74,0,0,0,153,869.34v0h0v0a20.74,20.74,0,0,0,20.63-20.63h0Z"/></g><g id="g32"><path id="path34" class="cls-2" d="M251.76,869.32a8.27,8.27,0,1,1,0,16.54H228.93v0a31.1,31.1,0,0,1-31.06-31h0V804a8.27,8.27,0,1,1,16.53,0v50.81h0a14.68,14.68,0,0,0,14.59,14.57v0h22.83Z"/></g><g id="g36"><path id="path38" class="cls-2" d="M426.58,499.94A30.94,30.94,0,1,1,365,506.47L339.68,273.14,249.87,501.29l-.1.22v0h0l-.25.6-.2.47,0,.12-.21.47-.14.29-.21.45-.1.2-.24.47-.09.17A30.7,30.7,0,0,1,242,513l-.1.08-.46.42a30.54,30.54,0,0,1-5.35,3.79l-.13.08-.59.31,0,0-.54.28-.25.12-.35.17-.37.17-.33.15-.38.17-.33.14-.32.13-.29.11-.16.07-.26.09-.41.16-.24.08a31,31,0,0,1-9.07,1.71H219.8a30.84,30.84,0,0,1-10.13-2.11l-.41-.16-.11,0-.41-.17-.4-.17-.33-.16-.34-.16-.37-.17-.22-.11-.56-.29-.06,0-.48-.27-.27-.14a31.08,31.08,0,0,1-4.73-3.28l-.12-.11c-.35-.3-.69-.59-1-.9l0,0-.77-.75c-.25-.25-.51-.51-.75-.77l0,0c-.31-.34-.61-.67-.91-1l-.1-.11a30.86,30.86,0,0,1-3.28-4.73l-.15-.27-.27-.49,0-.06-.29-.55-.11-.22-.17-.37-.17-.35-.14-.32-.18-.4-.18-.41,0-.11-.17-.41L102.19,273.14,76.84,506.47a30.95,30.95,0,1,1-61.55-6.53l29.9-275.09v-.19h0a51.5,51.5,0,0,1,44.21-45.19l.06,0c.56-.07,1.13-.13,1.69-.18A52.51,52.51,0,0,1,99,179h.12a52.66,52.66,0,0,1,9.36,1.25,50.81,50.81,0,0,1,36,31.09l76.53,194.38,76.52-194.38a50.82,50.82,0,0,1,36-31.09,52.41,52.41,0,0,1,9.36-1.25h.12a52.64,52.64,0,0,1,7.82.23c.56.05,1.11.11,1.67.18l.06,0a51.29,51.29,0,0,1,38.45,26.71,52.13,52.13,0,0,1,3.76,9,50.73,50.73,0,0,1,2,9.52h0v.11l0,.08Z"/></g><g id="g40"><path id="path42" class="cls-2" d="M112.77,876.62a8.26,8.26,0,1,1-16.41,1.93L89.27,819,64,877.59a8.25,8.25,0,0,1-15.17,0h0L23.56,819l-7.09,59.55A8.26,8.26,0,1,1,.06,876.62l8.22-69.15a13.27,13.27,0,0,1,7.23-10.26,15.48,15.48,0,0,1,1.61-.72l.64-.22a15.27,15.27,0,0,1,2.43-.53h.14a14.26,14.26,0,0,1,11.55,3.65,13.58,13.58,0,0,1,2.65,3.49,6.58,6.58,0,0,1,.46.92l21.42,49.67,21.42-49.67A13.61,13.61,0,0,1,87.5,796a14.94,14.94,0,0,1,2.43-.34,15.56,15.56,0,0,1,1.81,0h.05l.61.05h.07v0h0a13.92,13.92,0,0,1,10.29,6.61h0a13.21,13.21,0,0,1,1.09,2.35,12.07,12.07,0,0,1,.45,1.62,8,8,0,0,1,.2,1.09v.07Z"/></g><g id="g44"><path id="path46" class="cls-2" d="M287.89,877.59a8.27,8.27,0,0,1-16.53,0V812.25H247.82a8.28,8.28,0,0,1,0-16.55h63.6a8.28,8.28,0,0,1,0,16.55H287.89Z"/></g><g id="g48"><path id="path50" class="cls-2" d="M339.47,877.59a8.27,8.27,0,0,1-16.53,0V804a8.27,8.27,0,1,1,16.53,0Z"/></g><g id="g52"><path id="path54" class="cls-2" d="M509.12,876.58a8.27,8.27,0,1,1-16.41,2l-2.91-23.35H461.14a8.27,8.27,0,1,1,0-16.54h26.6l-.75-6.07,0-.06c0-.2,0-.39,0-.58a32,32,0,0,0-1-4.23,27.7,27.7,0,0,0-1.7-4.36c-3.28-6.55-9.22-11.15-16.72-11.15h-.08v0a17.81,17.81,0,0,0-4.16.5,16.85,16.85,0,0,0-3.7,1.39c-6.34,3.23-10.59,10.29-11.5,18.42l-5.18,46a8.25,8.25,0,1,1-16.41-1.81l5.17-46c1.53-13.57,9.06-25.57,20.44-31.36a33.28,33.28,0,0,1,7.3-2.67,34.45,34.45,0,0,1,8-1v0h.08c14.33,0,25.47,8.38,31.45,20.33a43.78,43.78,0,0,1,2.8,7,46.75,46.75,0,0,1,1.45,6.73,6.69,6.69,0,0,1,.14.78v.06Z"/></g><g id="g56"><path id="path58" class="cls-2" d="M534.43,877.59a8.27,8.27,0,0,1-16.54,0V809.18a8,8,0,0,1,.12-1.4,11.29,11.29,0,0,1,.65-2.68v0h0a14.32,14.32,0,0,1,.68-1.48l0,0h0a11.64,11.64,0,0,1,6.46-5.43,9.65,9.65,0,0,1,1.14-.31c.29-.06.58-.13.88-.17h.06v0a13.17,13.17,0,0,1,2-.09h.22a11.61,11.61,0,0,1,8.74,4.48l44,56.13V804a8.27,8.27,0,1,1,16.54,0v68.08a11.62,11.62,0,0,1-4.31,9.05,12,12,0,0,1-1.69,1.15c-.33.18-.68.35-1,.5l-.09,0h0a6.91,6.91,0,0,1-.68.28h0l0,0a11.58,11.58,0,0,1-8.87-.5,7.13,7.13,0,0,1-1.06-.55,11.69,11.69,0,0,1-1.64-1.23,10.3,10.3,0,0,1-1-1.1l-.28-.32h0l-.1-.13-44-56.11Z"/></g><g id="g60"><path id="path62" class="cls-2" d="M663.6,869.32a8.27,8.27,0,1,1,0,16.54H639.22v0a32.66,32.66,0,0,1-32.59-32.58h0v-24.9h0a32.64,32.64,0,0,1,32.58-32.59v0H663.6a8.27,8.27,0,1,1,0,16.54H639.21v0a16.2,16.2,0,0,0-16.1,16.12h0v24.9h0a16.22,16.22,0,0,0,16.11,16.11v0H663.6Z"/></g><g id="g64"><path id="path66" class="cls-2" d="M711.45,812.21v0h0v0a22.56,22.56,0,0,0-15.65,6.25,20.3,20.3,0,0,0-6.39,14.61h0V848.5h0a20.3,20.3,0,0,0,6.38,14.59,22.62,22.62,0,0,0,15.67,6.26v0h0v0a22.53,22.53,0,0,0,15.65-6.26,20.23,20.23,0,0,0,6.38-14.6h0V833.06h0a20.22,20.22,0,0,0-6.37-14.59,22.58,22.58,0,0,0-15.67-6.26m0-16.51h0v0a39.1,39.1,0,0,1,27.1,10.84A36.7,36.7,0,0,1,750,833.06h0v15.42h0A36.7,36.7,0,0,1,738.55,875a39.07,39.07,0,0,1-27.09,10.84v0h0v0A39.12,39.12,0,0,1,684.32,875a36.73,36.73,0,0,1-11.41-26.48h0V833.08h0a36.66,36.66,0,0,1,11.43-26.49,39,39,0,0,1,27.08-10.84v0Z"/></g><g id="g68"><path id="path70" class="cls-2" d="M363,812.24v57.07h32v0a10.48,10.48,0,0,0,10.4-10.41h0v0h0a10.31,10.31,0,0,0-2.77-7l-.32-.31a10.33,10.33,0,0,0-7.32-3.09v0h-11a8.27,8.27,0,1,1,0-16.54h3.76a10,10,0,0,0,6.23-2.9h0a9.87,9.87,0,0,0,2.91-7h0v0h0a10,10,0,0,0-9.89-9.88v0H363Zm-16.53,28V804.33h0a8.34,8.34,0,0,1,.67-3.29A8.44,8.44,0,0,1,349,798.2l.1-.09h0a8.46,8.46,0,0,1,5.43-2.36,2.68,2.68,0,0,1,.49,0v0h31.9v0a26.41,26.41,0,0,1,26.37,26.35h0v0h0a26.28,26.28,0,0,1-4.06,14,27.37,27.37,0,0,1,4.69,3.75c.18.17.34.36.51.55a26.86,26.86,0,0,1,7.36,18.45h0v0h0a26.94,26.94,0,0,1-26.88,26.89v0H354.68a8.27,8.27,0,0,1-8.26-8.28Z"/></g></g></svg>
