<svg width="27" height="14" fill="none" xmlns="http://www.w3.org/2000/svg"><path d="M0 1.647C0 .756.715.033 1.599.033h23.458c.883 0 1.6.723 1.6 1.614v10.207c0 .891-.717 1.613-1.6 1.613H1.6A1.606 1.606 0 0 1 0 11.854V1.647Z" fill="#fff"/><path d="M.018 1.484C.018.664.678 0 1.49 0H25.19c.812 0 1.47.665 1.47 1.484v.047H.018v-.047ZM26.66 11.99v.036c0 .82-.658 1.484-1.47 1.484H1.49c-.813 0-1.472-.665-1.472-1.484v-.037H26.66Z" fill="#FBB110"/><path d="M18.457 6.74c0 2.073 1.666 3.755 3.721 3.755 2.056 0 3.722-1.682 3.722-3.756 0-2.075-1.666-3.756-3.721-3.756-2.056 0-3.722 1.681-3.722 3.756Zm-17.745 0c0 2.073 1.667 3.755 3.722 3.755 2.055 0 3.722-1.682 3.722-3.756 0-2.075-1.667-3.756-3.722-3.756C2.38 2.983.712 4.664.712 6.739Zm25.948 4.538H8.309c.33-.234.639-.555.975-.987l1.869-2.407.816 1.04.909-1.219-.794-1.02 1.902-2.451c.604-.777-.551-1.691-1.155-.914l-1.682 2.167L9.44 3.29c-.604-.775-1.757.141-1.152.917l1.932 2.477-2.09 2.692c-.744.957-1.485 1.833-2.956 1.901H.018V2.242h18.255c-.314.232-.61.542-.931.956l-1.869 2.406-.817-1.04-.908 1.22.795 1.02-1.904 2.45c-.603.777.552 1.691 1.156.914l1.682-2.166 1.71 2.194c.604.776 1.758-.14 1.152-.915l-1.931-2.478 2.09-2.691c.682-.88 1.364-1.692 2.612-1.87h5.55v9.036ZM19.95 6.74c0-1.242.998-2.249 2.229-2.249a2.238 2.238 0 0 1 2.227 2.25 2.238 2.238 0 0 1-2.227 2.247A2.238 2.238 0 0 1 19.95 6.74Zm-17.744 0c0-1.242.998-2.249 2.228-2.249a2.238 2.238 0 0 1 2.228 2.25 2.238 2.238 0 0 1-2.228 2.247A2.238 2.238 0 0 1 2.206 6.74Z" fill="#E70020"/></svg>