<svg width="48" height="24" fill="none" xmlns="http://www.w3.org/2000/svg"><path d="M0 2.926C0 1.343 1.271.059 2.84.059h41.673c1.568 0 2.84 1.284 2.84 2.867v18.133c0 1.582-1.272 2.865-2.84 2.865H2.84C1.271 23.924 0 22.641 0 21.06V2.926Z" fill="#fff"/><path d="M.033 2.636C.033 1.181 1.203 0 2.645 0H44.75c1.442 0 2.611 1.18 2.611 2.636v.084H.033v-.084ZM47.36 21.298v.066c0 1.455-1.169 2.636-2.611 2.636H2.645C1.203 24 .033 22.82.033 21.364v-.066H47.36Z" fill="#FBB110"/><path d="M32.787 11.972c0 3.685 2.96 6.672 6.612 6.672 3.65 0 6.612-2.987 6.612-6.672 0-3.686-2.961-6.673-6.612-6.673-3.652 0-6.612 2.987-6.612 6.673Zm-31.523 0c0 3.685 2.961 6.672 6.613 6.672 3.651 0 6.612-2.987 6.612-6.672 0-3.686-2.96-6.673-6.612-6.673s-6.613 2.987-6.613 6.673Zm46.096 8.063h-32.6c.588-.416 1.135-.986 1.732-1.754l3.32-4.276 1.451 1.85 1.614-2.167-1.411-1.813 3.38-4.354c1.073-1.38-.98-3.004-2.053-1.623l-2.987 3.849-3.037-3.9c-1.074-1.377-3.123.25-2.048 1.629l3.432 4.4-3.714 4.782c-1.32 1.7-2.636 3.257-5.25 3.377H.033V3.983H32.46c-.557.411-1.083.962-1.654 1.698l-3.32 4.275-1.451-1.848-1.613 2.166 1.411 1.812-3.381 4.353c-1.072 1.381.98 3.005 2.052 1.623l2.989-3.847 3.037 3.899c1.074 1.378 3.123-.25 2.048-1.628l-3.432-4.402 3.714-4.78c1.212-1.563 2.422-3.005 4.64-3.32h9.86v16.051Zm-11.92-8.063c0-2.207 1.773-3.995 3.959-3.995s3.957 1.788 3.957 3.995c0 2.206-1.771 3.994-3.957 3.994s-3.958-1.788-3.958-3.994Zm-31.52 0c0-2.207 1.771-3.995 3.957-3.995 2.185 0 3.958 1.788 3.958 3.995 0 2.206-1.773 3.994-3.958 3.994-2.186 0-3.958-1.788-3.958-3.994Z" fill="#E70020"/></svg>