<svg id="Layer_1" data-name="Layer 1" xmlns="http://www.w3.org/2000/svg" viewBox="0 0 750 256.89" preserveAspectRatio="xMidYMid meet"><defs><style>.cls-1{fill:#ce4749;}.cls-2{fill:#afb2ba;}</style></defs><title>p24</title><path class="cls-1" d="M0,223.28,19,116.45H67.86c12,0,19.83,2.3,23.4,7s4.21,13.32,1.92,26.08c-2.17,12.18-5.94,20.54-11.29,25S67.54,181.12,55,181.12l-4.71.07H19.39l-7.46,42.09ZM21.3,171H49.87c11.93,0,19.84-1.21,23.6-3.7s6.5-8.1,8-16.9c1.84-10.33,1.84-16.83.06-19.58s-6.95-4.08-15.43-4.08l-4.6-.06H29.15Z"/><path class="cls-1" d="M104,148.47h11l-2.62,8.61.19.25c5.62-7,13.33-10.58,23.35-10.58q20.66,0,16.9,21.3l-1,5.16H140.94l.58-1.85c.51-2,.83-3.31.95-4,1.34-7.66-2.1-11.48-10.45-11.48-12.19,0-19.65,7.52-22.33,22.64l-8,44.83h-11Z"/><path class="cls-1" d="M162.31,148.47h53.95l-1.91,10.65L160,214.22h44.64L203,223.28H145.28l1.85-10.4,54.59-55.35h-41Z"/><path class="cls-1" d="M270.15,200.64h11.23l-.39,2.74c-1.4,7.78-4.71,13.2-10,16.33s-13.84,4.65-25.7,4.65c-13.77,0-22.38-2.49-25.76-7.52s-3.7-15.63-.83-31.76c2.67-14.93,6.57-24.94,11.86-30s14.16-7.65,26.78-7.65c13.78,0,22.39,2.23,25.9,6.63s3.95,13.77,1.46,28l-1,5.86H229.85c-2.11,11.8-2.17,19.33-.19,22.52s7.58,4.84,16.83,4.84q13.2,0,17.6-2.29t5.74-9.95Zm3.77-21.24.57-3.51c1.47-8.1,1-13.33-1.21-15.75s-7.78-3.63-16.58-3.63-14.86,1.4-18,4.27-5.55,9.05-7.27,18.68h42.54Z"/><path class="cls-1" d="M320.15,116.45l-19,106.83h-11l19-106.83Z"/><path class="cls-1" d="M372.13,200.64h11.22l-.38,2.74c-1.4,7.78-4.72,13.2-10,16.33s-13.84,4.65-25.7,4.65c-13.78,0-22.39-2.49-25.77-7.52s-3.7-15.63-.83-31.76c2.68-14.93,6.57-24.94,11.87-30s14.15-7.65,26.78-7.65c13.78,0,22.39,2.23,25.89,6.63s4,13.77,1.47,28l-1,5.86H331.82c-2.1,11.8-2.16,19.33-.19,22.52s7.59,4.84,16.84,4.84q13.2,0,17.6-2.29t5.74-9.95Zm3.76-21.24.58-3.51c1.46-8.1,1-13.33-1.21-15.75s-7.79-3.63-16.59-3.63-14.86,1.4-18,4.27-5.55,9.05-7.28,18.68h42.54Z"/><path class="cls-1" d="M501.34,148.47l-34.25,74.81H450.83l-2.62-41.58L447.39,169l-.26-6.32-.38-6.31h-.26l-2.61,6.31L441.26,169,436,181.7l-17.48,41.58H401.91l-7-74.81h11.48l3.19,41.39,1,13,.38,6.5.38,6.51h.32l2.62-6.51,2.74-6.5,5.42-13,17.6-41.45H456l2.81,41.58.83,12.95.32,6.44.32,6.5h.25l2.81-6.5,2.74-6.51,5.61-13,17.86-41.39h11.8Z"/><path class="cls-1" d="M556.51,148.47l-14.35,33.35L535,198.41l-3.44,8.35-3.51,8.29h-.32l-1.4-8.29L525,198.41l-2.87-16.59-5.61-33.35H504.85l15,81.31-1.72,3.7c-4.6,9.89-9.89,14.67-15.69,14.35a25.34,25.34,0,0,1-3.77-.57l-1.59,9.05a28.78,28.78,0,0,0,5.17.58c6.76,0,12.3-2.11,16.64-6.25s9.06-11.86,14-23l35.27-79.14Z"/><path class="cls-2" d="M638.33,213.78l-1.79,10.07H561.42l3.5-20q3-16.74,10.27-21.94c4.91-3.44,15.5-6.12,31.89-8q19.6-2.21,24.3-5.93c3.12-2.49,5.61-8.93,7.4-19.33,1.59-9.12,1.14-15.05-1.34-17.73s-8.8-4.08-18.82-4.08c-12.56,0-20.66,1.09-24.3,3.32s-6.25,7.46-7.71,15.88L585.4,154H573.85l1-5.49c2.23-12.69,6.38-21.11,12.37-25.32s17-6.31,32.79-6.31c14,0,23.08,2.3,27.16,6.82s4.91,13.46,2.55,26.6q-3.35,19-11.22,25.45t-30.93,8.67c-13.46,1.34-21.68,3.19-24.68,5.61s-5.42,9.12-7.4,20.28l-.64,3.57h63.46Z"/><path class="cls-2" d="M737.24,117.92l-12.56,71.43h15.56l-1.78,10.08H722.9l-4.34,24.42h-11.8l4.34-24.42H652.68l2.49-14L719,117.92Zm-24.36,71.43,11.23-63.71h-.26l-59.69,63.71Z"/><path class="cls-2" d="M248.09,84.06a386.38,386.38,0,0,1,73.08-33l-4.72-26.4a516.15,516.15,0,0,0-94,40Z"/><path class="cls-2" d="M538.07,69.71l90.31-49.24C590.94,8.74,543.43.32,483.67,0h-.57L462.44,41.33A254.28,254.28,0,0,1,538.07,69.71Z"/><path class="cls-2" d="M199.49,78.19c-39.67,24.68-60.46,45.6-60.46,45.6h50.26c12.24-9.5,24.29-18.05,36.09-25.77Z"/><path class="cls-2" d="M453.89.57A547.1,547.1,0,0,0,336.42,18.88l3.44,26.78c37.88-9.82,72-11.16,101.72-7.65Z"/><path class="cls-2" d="M676.47,39.6l-117,43.82A148.64,148.64,0,0,1,576,96.94H750S730.29,66.39,676.47,39.6Z"/></svg>