<svg data-name="Layer 1" xmlns="http://www.w3.org/2000/svg" viewBox="0 0 750 257"><path d="M0 223l19-107h49c12 0 20 3 23 7s4 14 2 27c-2 12-6 20-11 25s-14 6-27 6H19l-7 42zm21-52h29c12 0 20-1 23-4s7-8 8-17c2-10 2-16 1-19s-7-4-16-4H29zm83-23h11l-3 9h1c5-7 13-10 23-10q21 0 17 21l-1 5h-11l1-2v-4c2-7-2-11-10-11-12 0-20 7-22 23l-8 44H91zm58 0h54l-2 11-54 55h45l-2 9h-58l2-10 55-55h-41zm108 53h11v2c-1 8-5 14-10 17s-14 4-26 4c-13 0-22-2-25-7s-4-16-1-32c2-15 6-25 12-30s14-8 26-8c14 0 23 3 26 7s4 14 2 28l-1 6h-54c-2 12-2 19 0 22s7 5 16 5q14 0 18-2t6-10zm4-22v-3c2-8 1-13-1-16s-8-3-16-3-15 1-18 4-6 9-8 18h43zm46-63l-19 107h-11l19-107zm52 85h11v2c-1 8-5 14-10 17s-14 4-26 4c-14 0-22-2-25-7s-4-16-1-32c2-15 6-25 12-30s14-8 26-8c14 0 23 3 26 7s4 14 2 28l-1 6h-54c-2 12-2 19 0 22s7 5 16 5q14 0 18-2t6-10zm4-22v-3c2-8 1-13-1-16s-8-3-16-3-15 1-18 4-6 9-8 18h43zm125-31l-34 75h-16l-3-41-1-13v-13h-1l-2 7-3 6-5 13-17 41h-17l-7-75h11l4 42 1 13v13h1l2-7 3-6 5-13 18-42h16l3 42 1 13v13h1l2-7 3-6 6-13 18-42h11zm56 0l-15 34-7 16-3 9-4 8-2-8-1-9-3-16-5-34h-12l15 82-2 3c-4 10-10 15-16 15a25 25 0 01-3-1l-2 9a29 29 0 005 1c7 0 13-2 17-6s9-12 14-23l35-80z" fill="#ce4749"/><path d="M638 214l-1 10h-76l4-20q3-17 10-22c5-4 16-6 32-8q20-2 24-6c3-3 6-9 8-19 1-9 1-15-2-18s-8-4-18-4c-13 0-21 1-25 3s-6 8-7 16l-2 8h-11l1-5c2-13 6-22 12-26s17-6 33-6c14 0 23 2 27 7s5 13 3 26q-4 19-12 26t-30 8c-14 2-22 4-25 6s-6 9-8 20v4h63zm99-96l-12 71h15l-2 10h-15l-4 25h-12l4-25h-58l2-14 64-67zm-24 71l11-63-60 63zM248 84a386 386 0 0173-33l-5-26a516 516 0 00-94 40zm290-14l90-50C591 9 543 0 484 0h-1l-21 41a254 254 0 0176 29zm-339 8c-39 25-60 46-60 46h50l36-26zM454 1a547 547 0 00-118 18l4 27c38-10 72-12 102-8zm222 39L559 83a149 149 0 0117 14h174s-20-31-74-57z" fill="#afb2ba"/></svg>