<svg id="Warstwa_1" data-name="Warstwa 1" xmlns="http://www.w3.org/2000/svg" viewBox="0 0 1920 672"><defs><style>.cls-1,.cls-2{fill:#5a5a5a;}.cls-1{fill-rule:evenodd;}</style></defs><title>Artboard 6</title><polygon class="cls-1" points="409.59 384.9 566.05 384.69 560.33 420.29 429.5 545.2 539.27 544.98 532.9 583.43 371.23 583.46 377.98 543.81 503.39 423.71 403.35 423.7 409.59 384.9 409.59 384.9"/><path class="cls-1" d="M238.54,324c-3.43-3.62-8.27-6.41-13.73-8.57a94.64,94.64,0,0,0-18.17-4.85,170.2,170.2,0,0,0-20.77-2.21c-5-.23-8.16-.18-8.16-.18H58.42L12.67,583.45l42.59,0,16.84-102,82.58.36s32.15,1.26,55-10.81,28.87-39.56,28.87-39.56,2.51-10.19,4.56-22.64c2.25-13.67,4.56-30.08,5.76-38.82.53-3.83.84-6.19.84-6.19a44.28,44.28,0,0,0,.61-7.23,49.59,49.59,0,0,0-5.62-24.11A40.3,40.3,0,0,0,238.54,324ZM205.65,372.6c0,.46-3.78,22.6-8.83,48.79-1.93,10-9.59,15.4-18.42,17.27-14.58,3.08-30.27,2.51-30.27,2.51l-69-.18,15.16-91.48,62.54.17s4.23-.09,10.14,0a214.09,214.09,0,0,1,22.9,1.4c6.25.82,11.35,2.11,12.92,4.09a17.07,17.07,0,0,1,3.22,9A33.84,33.84,0,0,1,205.65,372.6Z"/><polygon class="cls-1" points="778.09 308.15 819.06 308.12 773.16 583.51 732.09 583.45 778.09 308.15 778.09 308.15"/><polygon class="cls-1" points="996.95 384.86 1036.24 384.82 1050.12 524.55 1110.56 384.57 1159.06 384.7 1173.39 525.13 1233.84 384.84 1274.61 384.8 1187.97 583.34 1139.57 583.35 1125.62 444.32 1064.47 583.35 1016.89 583.48 996.95 384.86 996.95 384.86"/><path class="cls-2" d="M702.39,386.53c-11.48-3.74-31.42-4.48-48.25-4.28-16.31.2-23.79,1-29.88,2.28,0,0-29,4.16-45.49,24.56s-21.38,65-21.38,65-9.78,49.34-6.92,65.78,8,31.68,26.61,38.83a100.77,100.77,0,0,0,34.44,6.83s33.2,2.61,58.22-3.31a71.29,71.29,0,0,0,38.21-23.52A99.8,99.8,0,0,0,718,542.13a76,76,0,0,0,5.66-16.1l2.62-10.66-42.53.06s-2.34,28.07-25.28,30.66-35.23,1.61-39.67,1.44-29,.85-27-19.68c0-.28,0-.68.06-1.26,1.14-23.43,3.74-29.5,3.74-29.5l133.52-.38,5.7-33C741.35,426.22,736.59,397.69,702.39,386.53Zm-8.9,72.39-91.5-.1,3.64-14.52s3.18-11.36,9.52-16.21,14.46-5.67,22.1-6.41,27.88-2.17,44.39,1.23c5.48,1.13,10.7,4.21,12.05,8.78C696.91,442.47,693.49,458.92,693.49,458.92Z"/><path class="cls-2" d="M592,526.91c0,.32-.08.63-.11.93C591.79,529.41,592,526.83,592,526.91Z"/><path class="cls-2" d="M843.82,527c0,.32-.08.63-.11.93C843.66,529.45,843.84,526.87,843.82,527Z"/><path class="cls-2" d="M954.26,386.58c-11.49-3.74-31.43-4.48-48.26-4.27-16.31.2-23.79,1-29.88,2.28,0,0-29,4.17-45.49,24.56s-21.38,65-21.38,65-9.78,49.34-6.92,65.78,8,31.67,26.62,38.83a100.74,100.74,0,0,0,34.43,6.83s33.21,2.6,58.22-3.31a71.31,71.31,0,0,0,38.21-23.53,99.81,99.81,0,0,0,10.1-16.62,76.53,76.53,0,0,0,5.67-16.1l2.62-10.66-42.54.06s-2.34,28.07-25.28,30.66-35.23,1.62-39.66,1.45-29,.85-27-19.69c0-.28,0-.68.06-1.26,1.14-23.43,3.74-29.5,3.74-29.5L981,496.76l5.7-33C993.22,426.27,988.46,397.73,954.26,386.58ZM945,458.87l-91.49-.09,3.64-14.53s3.18-11.36,9.52-16.2,14.46-5.68,22.1-6.42,27.87-2.17,44.39,1.24c5.48,1.12,10.69,4.2,12.05,8.78C948.42,442.42,945,458.87,945,458.87Z"/><path class="cls-1" d="M1321.85,384.88,1348.12,530l74.35-145.31,41.81.36L1357.17,592.63s-19.38,37.56-31.41,47.08-19.37,13.8-29.2,14.78-13.78,1.66-23.21,0l-10-1.75,6.24-37.06s16.56,3.11,26.42-.78,17.84-20.7,17.84-20.7l5-8.4-38.71-201,41.71.06Z"/><path class="cls-1" d="M1479.37,404.61l43.11.06,2.57-16.72s4.61-30.17,14.88-36a48.2,48.2,0,0,1,14.67-4.7c11.26-2,25.64-2.18,37.27-1.76,17.94.65,24.65.81,42.89,2.88S1648.35,368,1648.35,368l-3.57,26.26s-1.56,11.76-5.77,19.11c-3.72,6.5-13.88,10.87-19.75,12.79-14.2,4.63-62.79,17-62.79,17l-38.24,11s-23.47,6.8-36.64,21.35a87.37,87.37,0,0,0-20.16,39.74c-1.8,8.63-11.89,68.11-11.89,68.11l206.2.09,6.87-41.22-163.09.19,2.94-16.8s1.89-17.32,8.9-23c2.21-1.79,3.32-4.15,16.33-8.8,7.77-2.77,34.37-9.86,34.37-9.86l61.54-16.79s33.57-8.65,46.79-27,18.31-53.4,18.31-53.4,3.56-34.07.85-44.75-12.81-23.51-25.07-29-25.11-8.67-62.24-8.16-55.46,2.25-74.25,9.16-29.65,19.51-36.57,37.28c-7.63,16.78-12,53.16-12,53.16Z"/><path class="cls-1" d="M1867.55,481.23l28.88-173.16-51.16,0L1685.84,479.25l-7.24,43.36,139.42,0-10.2,60.84,42.77.06,10.1-60.89,39.5.08,7.14-41.5Zm-42.6,0-90.14-.14,109.72-116.89Z"/><path class="cls-1" d="M328.93,330.76H460.2s29.45-23.79,50.32-39.05,58.86-39.36,58.86-39.36l-74.15-34.7S432.56,256.46,406,274.77c-25.87,16.87-77,56-77,56Z"/><path class="cls-1" d="M611.13,227.81l-60.89-41A1154.91,1154.91,0,0,1,678.6,126.3c73.25-29.22,112.31-41.37,112.31-41.37L803.29,143s-70.52,23.58-110.94,42.68c-41.74,17.8-81.21,42.13-81.21,42.13Z"/><path class="cls-1" d="M848.33,130.25,837.77,70.74s75.17-20,144-32.8S1142,19.07,1142,19.07L1111.81,111s-80.35-11-155.73-.73a873.42,873.42,0,0,0-107.75,20Z"/><path class="cls-1" d="M1159.5,118.75l50.85-102.14s111.32-2.16,207.3,12.65,183.78,37.65,181.87,38.65L1356.08,195.23s-56.85-36-127.5-58.12c-40-11.67-69.08-18.36-69.08-18.36Z"/><path class="cls-1" d="M1399.72,223l53.53,40.56h439.68s-.89-14.24-12.61-34.4c-7.33-12.64-20.6-26-34.52-39.87-5.06-5-25.34-20.85-40.47-30.66-38.82-25.16-60.5-34.89-100.75-53.23L1399.72,223Z"/><path class="cls-2" d="M357.38,384.69c-16.5,0-32.09,6.51-45.41,13.8l2.34-13.8H270.57l-35,197.72h43.77l19.4-109.54c4-22.23,20.58-49.67,53-49.67l22.63-.09,6.81-38.43Z"/></svg>