<svg version="1.1" id="svg10908" xmlns="http://www.w3.org/2000/svg" x="0" y="0" viewBox="0 0 750 205" xml:space="preserve"><style>.st0{fill:#10298e}</style><path id="path5689" class="st0" d="M167 65h-52c0-8-1-14-3-17-3-4-11-6-25-6-13 0-22 1-27 4s-6 8-6 16c0 7 2 12 6 14 3 2 7 3 11 3l10 1 42 3c17 2 30 7 38 14 6 6 10 14 11 23a156 156 0 01-4 56c-6 14-18 23-38 27l-39 2c-28 0-48-2-60-5-14-4-23-13-27-26-3-7-4-19-4-35h51v4c0 9 3 14 8 17 4 2 8 3 13 3h19l18-2c5-2 8-5 9-9l2-10c0-9-4-14-10-16l-35-3-34-4c-17-3-28-9-33-19-5-8-8-21-8-38 0-13 2-23 4-31s7-13 13-17C26 7 37 4 50 3a423 423 0 0184 2c22 6 33 23 33 50v10"/><path id="path5693" class="st0" d="M392 205V0h103c14 0 25 1 32 4 17 5 29 16 34 32 3 9 5 22 5 39 0 21-2 36-5 45-7 18-20 28-41 31l-31 1h-42v53h-55zm56-100h34l20-3c3-2 5-5 6-11l1-16c0-8 0-15-2-19-2-6-7-10-14-11h-46v60z"/><path id="path5697" class="st0" d="M684 170h-74l-10 35h-57L605 0h83l62 205h-56l-10-35zm-11-40l-26-89-25 89h51z"/><path id="path5701" d="M316 29c22 0 43 10 57 27l11-26a105 105 0 00-167 35h-23l-14 30h30l-1 8 1 10h-15l-14 29h36a105 105 0 00154 44v-36a73 73 0 01-116-8h76l14-29H244a78 78 0 010-18h110l13-30H253c13-22 37-36 63-36" fill="#ffbe00"/><path id="path5705" class="st0" d="M316 30c22 0 42 10 56 26l1 1v-1l12-25 1-1h-1a104 104 0 00-169 35l1-1h-24v1l-14 29v2h31l-1-1-1 8 1 10 1-1h-16l-14 30v1h38-1a105 105 0 00154 44h1v-39l-2 2a72 72 0 01-114-8v1h76l14-30 1-1H244l1 1a76 76 0 010-18l-1 1h110v-1l14-29 1-2H253l1 2c13-22 37-36 62-36m-63 36h114l-1-1-13 29H244v1l-1 7 1 11v1h102l-1-1-14 29 1-1h-77l1 2a73 73 0 00116 8l-1-1v37-1c-17 11-37 17-57 17-42 0-79-24-95-61v-1h-37l1 2 14-30-1 1h16v-1a111 111 0 010-18v-1h-31l1 1 13-29h24c7-19 20-34 37-46 40-27 94-22 129 11v-1l-12 25h1a74 74 0 00-121 10v1h1z"/></svg>