<svg id="svg10908" xmlns="http://www.w3.org/2000/svg" viewBox="0 0 750 313.32" preserveAspectRatio="xMidYMid meet"><defs><style>.cls-1{fill:#10298e;}.cls-2{fill:#ffbe00;}</style></defs><title>sepa</title><path id="path5457" class="cls-1" d="M.88,305.47v-26.7H20.67v4.52H6.27v5.92h13.4v4.5H6.27V301H21.19v4.5Z"/><path id="path5459" class="cls-1" d="M26,278.77H31.1v4.74H26Zm0,7.36H31.1v19.34H26Z"/><path id="path5471" class="cls-1" d="M54.2,305.47H49.08V295.6a15.11,15.11,0,0,0-.33-4.05,2.87,2.87,0,0,0-1.06-1.43,3.08,3.08,0,0,0-1.78-.51,4.09,4.09,0,0,0-2.39.73,3.6,3.6,0,0,0-1.44,1.93,16.29,16.29,0,0,0-.39,4.44v8.76H36.57V286.13h4.75V289a7.75,7.75,0,0,1,6.38-3.27,7.64,7.64,0,0,1,3.09.61,5.09,5.09,0,0,1,2.12,1.55,5.52,5.52,0,0,1,1,2.15,15.77,15.77,0,0,1,.29,3.44Z"/><path id="path5475" class="cls-1" d="M64.75,278.77v9.82a7.64,7.64,0,0,1,9.1-2.24A5.29,5.29,0,0,1,76,288a6,6,0,0,1,1,2.26,19.84,19.84,0,0,1,.27,3.85v11.34H72.12V295.26a15,15,0,0,0-.29-3.87,2.58,2.58,0,0,0-1-1.3,3.33,3.33,0,0,0-1.85-.48,4.22,4.22,0,0,0-2.27.62,3.55,3.55,0,0,0-1.47,1.86,11.23,11.23,0,0,0-.46,3.69v9.69H59.63v-26.7Z"/><path id="path5479" class="cls-1" d="M93.89,299.32l5.1.85a8.36,8.36,0,0,1-3.1,4.27,9.13,9.13,0,0,1-5.31,1.47q-5.06,0-7.47-3.3A11,11,0,0,1,81.2,296c0-3.21.83-5.72,2.51-7.53a8.27,8.27,0,0,1,6.36-2.73,8.6,8.6,0,0,1,6.81,2.85c1.66,1.91,2.46,4.81,2.38,8.74H86.44a5.21,5.21,0,0,0,1.24,3.54,3.89,3.89,0,0,0,2.95,1.26,3.1,3.1,0,0,0,2-.65,4,4,0,0,0,1.24-2.11m.29-5.18A5,5,0,0,0,93,290.77a3.69,3.69,0,0,0-5.43.06,4.72,4.72,0,0,0-1.08,3.31Z"/><path id="path5481" class="cls-1" d="M103.69,278.77h5.12v4.74h-5.12Zm0,7.36h5.12v19.34h-5.12Z"/><path id="path5485" class="cls-1" d="M123.19,286.13v4.08h-3.5V298a18.68,18.68,0,0,0,.1,2.75l.46.65.86.26a6.6,6.6,0,0,0,2.06-.5l.44,4a10.37,10.37,0,0,1-4,.76,6.21,6.21,0,0,1-2.49-.47,3.54,3.54,0,0,1-1.63-1.2,4.6,4.6,0,0,1-.72-2,24.9,24.9,0,0,1-.16-3.61v-8.43H112.2v-4.08h2.36v-3.84l5.13-3v6.83Z"/><path id="path5487" class="cls-1" d="M127,278.77h5.12v26.7H127Z"/><path id="path5489" class="cls-1" d="M137.63,278.77h5.11v4.74h-5.11Zm0,7.36h5.11v19.34h-5.11Z"/><path id="path5493" class="cls-1" d="M165.11,291.85l-5,.91a3.75,3.75,0,0,0-1.16-2.28,3.54,3.54,0,0,0-2.34-.76,3.82,3.82,0,0,0-3,1.32c-.76.88-1.14,2.35-1.14,4.42q0,3.44,1.16,4.86a3.78,3.78,0,0,0,3.1,1.42,3.46,3.46,0,0,0,2.39-.83,4.93,4.93,0,0,0,1.31-2.85l5,.85a8.92,8.92,0,0,1-3,5.23,9.29,9.29,0,0,1-6,1.77,8.88,8.88,0,0,1-6.77-2.68,10.37,10.37,0,0,1-2.52-7.41q0-4.79,2.53-7.46a9,9,0,0,1,6.85-2.67,9.35,9.35,0,0,1,5.61,1.52,8.36,8.36,0,0,1,3,4.64"/><path id="path5497" class="cls-1" d="M174.35,278.77v9.82a7.66,7.66,0,0,1,9.11-2.24A5.43,5.43,0,0,1,185.6,288a6.17,6.17,0,0,1,1,2.26,20.89,20.89,0,0,1,.26,3.85v11.34h-5.11V295.26a15.46,15.46,0,0,0-.29-3.87,2.63,2.63,0,0,0-1-1.3,3.35,3.35,0,0,0-1.85-.48,4.28,4.28,0,0,0-2.28.62,3.55,3.55,0,0,0-1.47,1.86,11.51,11.51,0,0,0-.46,3.69v9.69h-5.12v-26.7Z"/><path id="path5501" class="cls-1" d="M203.5,299.32l5.09.85a8.36,8.36,0,0,1-3.1,4.27,9.11,9.11,0,0,1-5.31,1.47q-5,0-7.47-3.3A11.09,11.09,0,0,1,190.8,296q0-4.81,2.52-7.53a8.25,8.25,0,0,1,6.35-2.73,8.57,8.57,0,0,1,6.81,2.85c1.67,1.91,2.46,4.81,2.39,8.74H196a5.21,5.21,0,0,0,1.24,3.54,3.9,3.9,0,0,0,3,1.26,3.12,3.12,0,0,0,2-.65,4.11,4.11,0,0,0,1.24-2.11m.29-5.18a4.92,4.92,0,0,0-1.15-3.37,3.52,3.52,0,0,0-2.66-1.16,3.57,3.57,0,0,0-2.77,1.22,4.72,4.72,0,0,0-1.07,3.31Z"/><path id="path5505" class="cls-1" d="M218.2,305.47h-5.12V286.13h4.75v2.75a8.25,8.25,0,0,1,2.2-2.56,4,4,0,0,1,2.21-.62,6.51,6.51,0,0,1,3.37,1L224,291.12a4.44,4.44,0,0,0-2.4-.84,2.83,2.83,0,0,0-1.82.6,4,4,0,0,0-1.17,2.13,30.16,30.16,0,0,0-.43,6.49Z"/><path id="path5509" class="cls-1" d="M238.74,305.47v-26.7h19.79v4.52h-14.4v5.92h13.4v4.5h-13.4V301H259v4.5Z"/><path id="path5513" class="cls-1" d="M276.57,305.47v-2.89a7.36,7.36,0,0,1-2.78,2.43,7.74,7.74,0,0,1-3.63.9,7.12,7.12,0,0,1-3.5-.86,5.05,5.05,0,0,1-2.24-2.4,10.75,10.75,0,0,1-.69-4.28V286.13h5.12V295a24.63,24.63,0,0,0,.28,5,2.79,2.79,0,0,0,1,1.46,3.2,3.2,0,0,0,1.89.53,4.07,4.07,0,0,0,2.35-.71,3.7,3.7,0,0,0,1.42-1.79,21,21,0,0,0,.38-5.22v-8.16h5.12v19.34Z"/><path id="path5517" class="cls-1" d="M291.78,305.47h-5.12V286.13h4.75v2.75a8.25,8.25,0,0,1,2.2-2.56,4,4,0,0,1,2.22-.62,6.5,6.5,0,0,1,3.36,1l-1.58,4.46a4.47,4.47,0,0,0-2.4-.84,2.84,2.84,0,0,0-1.83.6,4,4,0,0,0-1.17,2.13,30.16,30.16,0,0,0-.43,6.49Z"/><path id="path5521" class="cls-1" d="M300.47,295.53a10.49,10.49,0,0,1,1.26-4.94,8.62,8.62,0,0,1,3.56-3.64,10.66,10.66,0,0,1,5.15-1.25,9.62,9.62,0,0,1,7.19,2.85,9.81,9.81,0,0,1,2.81,7.2A10,10,0,0,1,317.6,303a9.59,9.59,0,0,1-7.13,2.89,11.25,11.25,0,0,1-5.07-1.2,8.25,8.25,0,0,1-3.67-3.53,11.68,11.68,0,0,1-1.26-5.65m5.25.27a6.37,6.37,0,0,0,1.37,4.41,4.45,4.45,0,0,0,6.72,0,6.47,6.47,0,0,0,1.36-4.45,6.36,6.36,0,0,0-1.36-4.37,4.45,4.45,0,0,0-6.72,0,6.37,6.37,0,0,0-1.37,4.41"/><path id="path5523" class="cls-1" d="M324.12,293.23h10.05v5.12H324.12Z"/><path id="path5527" class="cls-1" d="M335.11,305.47v-4.86l14-17.32H336.69v-4.52h19.54V283l-14.62,18H356.8v4.5Z"/><path id="path5531" class="cls-1" d="M364.25,292l-4.64-.84A7.24,7.24,0,0,1,362.3,287a9.86,9.86,0,0,1,5.68-1.35,12.21,12.21,0,0,1,5.1.81,5.06,5.06,0,0,1,2.36,2.06,10.52,10.52,0,0,1,.68,4.58l-.05,6a19.92,19.92,0,0,0,.25,3.75,10.72,10.72,0,0,0,.92,2.6h-5.06c-.14-.34-.3-.84-.5-1.51l-.18-.6a9.25,9.25,0,0,1-2.8,1.91,8.15,8.15,0,0,1-3.19.64,6.59,6.59,0,0,1-4.71-1.62,5.42,5.42,0,0,1-1.72-4.1,5.52,5.52,0,0,1,.78-2.92,5,5,0,0,1,2.2-2,17.3,17.3,0,0,1,4.07-1.19,27.69,27.69,0,0,0,5-1.26v-.51a2.63,2.63,0,0,0-.73-2.1,4.36,4.36,0,0,0-2.75-.63,3.65,3.65,0,0,0-2.13.54,3.7,3.7,0,0,0-1.24,1.88m6.85,4.15A30.72,30.72,0,0,1,368,297a9.31,9.31,0,0,0-2.78.89,2.13,2.13,0,0,0-1,1.8,2.52,2.52,0,0,0,.8,1.86,2.79,2.79,0,0,0,2,.78,4.42,4.42,0,0,0,2.64-.91,3.16,3.16,0,0,0,1.22-1.69,10.34,10.34,0,0,0,.2-2.5Z"/><path id="path5535" class="cls-1" d="M386.53,278.77v9.82a7.66,7.66,0,0,1,9.11-2.24,5.36,5.36,0,0,1,2.14,1.67,6.17,6.17,0,0,1,1,2.26,20,20,0,0,1,.26,3.85v11.34H393.9V295.26a15.65,15.65,0,0,0-.28-3.87,2.63,2.63,0,0,0-1-1.3,3.35,3.35,0,0,0-1.85-.48,4.28,4.28,0,0,0-2.28.62,3.53,3.53,0,0,0-1.46,1.86,10.93,10.93,0,0,0-.47,3.69v9.69h-5.12v-26.7Z"/><path id="path5537" class="cls-1" d="M404.47,278.77h5.12v26.7h-5.12Z"/><path id="path5541" class="cls-1" d="M427.83,305.47v-2.89a7.36,7.36,0,0,1-2.78,2.43,7.71,7.71,0,0,1-3.63.9,7.12,7.12,0,0,1-3.5-.86,5.05,5.05,0,0,1-2.24-2.4,10.75,10.75,0,0,1-.69-4.28V286.13h5.11V295a24.31,24.31,0,0,0,.29,5,2.74,2.74,0,0,0,1,1.46,3.2,3.2,0,0,0,1.89.53,4.1,4.1,0,0,0,2.35-.71,3.76,3.76,0,0,0,1.42-1.79,20.52,20.52,0,0,0,.38-5.22v-8.16h5.12v19.34Z"/><path id="path5545" class="cls-1" d="M455.74,305.47h-5.12V295.6a15.11,15.11,0,0,0-.33-4.05,2.88,2.88,0,0,0-1.07-1.43,3,3,0,0,0-1.77-.51,4.09,4.09,0,0,0-2.39.73,3.65,3.65,0,0,0-1.44,1.93,16.29,16.29,0,0,0-.39,4.44v8.76h-5.12V286.13h4.75V289a7.75,7.75,0,0,1,6.37-3.27,7.66,7.66,0,0,1,3.1.61,5.16,5.16,0,0,1,2.12,1.55,5.66,5.66,0,0,1,1,2.15,15.77,15.77,0,0,1,.29,3.44Z"/><path id="path5549" class="cls-1" d="M460.71,306.75l5.85.71a2,2,0,0,0,.67,1.4,3.82,3.82,0,0,0,2.3.55,5.85,5.85,0,0,0,3-.61,2.42,2.42,0,0,0,1-1.29,7.66,7.66,0,0,0,.24-2.35v-2.82a6.92,6.92,0,0,1-5.79,3.13,7.14,7.14,0,0,1-6.18-3.3,11.24,11.24,0,0,1-1.78-6.48c0-3.24.78-5.71,2.34-7.43a7.56,7.56,0,0,1,5.82-2.57,7.11,7.11,0,0,1,5.92,3.15v-2.71h4.78v17.36a17.28,17.28,0,0,1-.56,5.12,6.37,6.37,0,0,1-1.58,2.65,7,7,0,0,1-2.73,1.52,14.44,14.44,0,0,1-4.3.54q-4.92,0-7-1.68a5.31,5.31,0,0,1-2.06-4.27Zm4.58-11.35a7,7,0,0,0,1.19,4.51,3.68,3.68,0,0,0,2.94,1.43,4.08,4.08,0,0,0,3.17-1.47,6.37,6.37,0,0,0,1.29-4.34,6.73,6.73,0,0,0-1.24-4.46,4,4,0,0,0-3.13-1.46,3.77,3.77,0,0,0-3,1.43,6.67,6.67,0,0,0-1.19,4.36"/><path id="path5553" class="cls-1" d="M482.43,300l5.14-.78a3.74,3.74,0,0,0,1.32,2.27,4.47,4.47,0,0,0,2.81.77,5.08,5.08,0,0,0,3-.72,1.64,1.64,0,0,0,.68-1.37l-.37-1a4.11,4.11,0,0,0-1.71-.67q-6.18-1.37-7.85-2.5a5,5,0,0,1-2.3-4.35,5.41,5.41,0,0,1,2-4.23q2-1.71,6.16-1.71a10.77,10.77,0,0,1,5.9,1.3,6.59,6.59,0,0,1,2.66,3.82l-4.83.89a2.93,2.93,0,0,0-1.17-1.72,4.23,4.23,0,0,0-2.47-.61,5.55,5.55,0,0,0-2.9.57l-.58,1,.51.92a18.66,18.66,0,0,0,4.78,1.44,14.25,14.25,0,0,1,5.71,2.28,4.73,4.73,0,0,1,1.61,3.8,5.83,5.83,0,0,1-2.23,4.57q-2.22,1.92-6.57,1.92a10.79,10.79,0,0,1-6.26-1.6,7.39,7.39,0,0,1-3-4.36"/><path id="path5557" class="cls-1" d="M510.55,305.47l-7.79-19.34h5.37l3.64,9.87,1.06,3.3c.28-.84.45-1.39.53-1.66.17-.55.35-1.09.54-1.64l3.68-9.87h5.27l-7.69,19.34Z"/><path id="path5561" class="cls-1" d="M537.44,299.32l5.1.85a8.43,8.43,0,0,1-3.11,4.27,9.08,9.08,0,0,1-5.3,1.47q-5.05,0-7.47-3.3a11,11,0,0,1-1.91-6.66c0-3.21.83-5.72,2.51-7.53a8.25,8.25,0,0,1,6.35-2.73,8.61,8.61,0,0,1,6.82,2.85c1.66,1.91,2.45,4.81,2.38,8.74H530a5.21,5.21,0,0,0,1.24,3.54,3.88,3.88,0,0,0,2.95,1.26,3.12,3.12,0,0,0,2-.65,4,4,0,0,0,1.24-2.11m.29-5.18a4.92,4.92,0,0,0-1.15-3.37,3.52,3.52,0,0,0-2.65-1.16,3.57,3.57,0,0,0-2.77,1.22,4.72,4.72,0,0,0-1.08,3.31Z"/><path id="path5565" class="cls-1" d="M552.14,305.47H547V286.13h4.76v2.75a8.12,8.12,0,0,1,2.19-2.56,4,4,0,0,1,2.21-.62,6.48,6.48,0,0,1,3.37,1L558,291.12a4.49,4.49,0,0,0-2.4-.84,2.84,2.84,0,0,0-1.83.6,4,4,0,0,0-1.17,2.13,30.16,30.16,0,0,0-.43,6.49Z"/><path id="path5569" class="cls-1" d="M561.84,305.47v-26.7H567v14.17l6-6.81h6.29l-6.6,7.07,7.08,12.27H574.2l-4.86-8.69-2.39,2.5v6.19Z"/><path id="path5573" class="cls-1" d="M594.22,299.32l5.1.85a8.36,8.36,0,0,1-3.1,4.27,9.13,9.13,0,0,1-5.31,1.47q-5.05,0-7.47-3.3a11.09,11.09,0,0,1-1.91-6.66,10.69,10.69,0,0,1,2.51-7.53,8.28,8.28,0,0,1,6.36-2.73,8.57,8.57,0,0,1,6.81,2.85c1.66,1.91,2.46,4.81,2.39,8.74H586.77a5.26,5.26,0,0,0,1.24,3.54,3.88,3.88,0,0,0,3,1.26,3.1,3.1,0,0,0,2-.65,4,4,0,0,0,1.24-2.11m.3-5.18a4.92,4.92,0,0,0-1.15-3.37,3.69,3.69,0,0,0-5.43.06,4.77,4.77,0,0,0-1.08,3.31Z"/><path id="path5577" class="cls-1" d="M609.13,278.77v9.82a7.55,7.55,0,0,1,5.92-2.9,7.44,7.44,0,0,1,3.18.66,5.29,5.29,0,0,1,2.14,1.67,6.19,6.19,0,0,1,1,2.26,20.89,20.89,0,0,1,.26,3.85v11.34H616.5V295.26a15.46,15.46,0,0,0-.29-3.87,2.53,2.53,0,0,0-1-1.3,3.3,3.3,0,0,0-1.85-.48,4.28,4.28,0,0,0-2.28.62,3.58,3.58,0,0,0-1.46,1.86,11.23,11.23,0,0,0-.46,3.69v9.69H604v-26.7Z"/><path id="path5581" class="cls-1" d="M632,305.47h-5.12V286.13h4.75v2.75a8.25,8.25,0,0,1,2.2-2.56,4,4,0,0,1,2.22-.62,6.5,6.5,0,0,1,3.36,1l-1.58,4.46a4.49,4.49,0,0,0-2.4-.84,2.84,2.84,0,0,0-1.83.6A4,4,0,0,0,632.4,293a30.16,30.16,0,0,0-.43,6.49Z"/><path id="path5585" class="cls-1" d="M640,300l5.14-.78a3.79,3.79,0,0,0,1.33,2.27,4.46,4.46,0,0,0,2.8.77,5.11,5.11,0,0,0,3-.72,1.63,1.63,0,0,0,.67-1.37l-.36-1a4.24,4.24,0,0,0-1.71-.67q-6.2-1.37-7.85-2.5a5,5,0,0,1-2.3-4.35,5.41,5.41,0,0,1,2-4.23q2-1.71,6.16-1.71a10.71,10.71,0,0,1,5.89,1.3,6.55,6.55,0,0,1,2.66,3.82l-4.82.89a2.94,2.94,0,0,0-1.18-1.72,4.21,4.21,0,0,0-2.47-.61,5.53,5.53,0,0,0-2.89.57l-.58,1,.51.92a18.66,18.66,0,0,0,4.78,1.44,14.25,14.25,0,0,1,5.71,2.28,4.72,4.72,0,0,1,1.6,3.8,5.82,5.82,0,0,1-2.22,4.57c-1.48,1.28-3.68,1.92-6.58,1.92a10.78,10.78,0,0,1-6.25-1.6,7.4,7.4,0,0,1-3-4.36"/><path id="path5589" class="cls-1" d="M667.75,305.47h-5.12V286.13h4.75v2.75a8.25,8.25,0,0,1,2.2-2.56,4,4,0,0,1,2.21-.62,6.51,6.51,0,0,1,3.37,1l-1.58,4.46a4.47,4.47,0,0,0-2.41-.84,2.83,2.83,0,0,0-1.82.6,4.06,4.06,0,0,0-1.17,2.13,30.16,30.16,0,0,0-.43,6.49Z"/><path id="path5593" class="cls-1" d="M681.45,292l-4.65-.84a7.3,7.3,0,0,1,2.7-4.15,9.86,9.86,0,0,1,5.68-1.35,12.21,12.21,0,0,1,5.1.81,5.06,5.06,0,0,1,2.36,2.06,10.52,10.52,0,0,1,.68,4.58l-.05,6a19.92,19.92,0,0,0,.25,3.75,11.11,11.11,0,0,0,.91,2.6h-5.06c-.13-.34-.29-.84-.49-1.51l-.18-.6a9.13,9.13,0,0,1-2.8,1.91,8.15,8.15,0,0,1-3.19.64,6.6,6.6,0,0,1-4.71-1.62,5.38,5.38,0,0,1-1.72-4.1,5.52,5.52,0,0,1,.78-2.92,5.07,5.07,0,0,1,2.2-2,17.3,17.3,0,0,1,4.07-1.19,27.93,27.93,0,0,0,5-1.26v-.51a2.63,2.63,0,0,0-.73-2.1,4.34,4.34,0,0,0-2.75-.63,3.65,3.65,0,0,0-2.13.54,3.7,3.7,0,0,0-1.24,1.88m6.85,4.15a30.72,30.72,0,0,1-3.12.79,9.31,9.31,0,0,0-2.78.89,2.13,2.13,0,0,0-1,1.8,2.48,2.48,0,0,0,.8,1.86,2.79,2.79,0,0,0,2,.78,4.42,4.42,0,0,0,2.64-.91,3.16,3.16,0,0,0,1.22-1.69,10.34,10.34,0,0,0,.2-2.5Z"/><path id="path5597" class="cls-1" d="M711.36,305.47v-2.89a7.36,7.36,0,0,1-2.78,2.43,7.68,7.68,0,0,1-3.63.9,7.08,7.08,0,0,1-3.49-.86,5,5,0,0,1-2.24-2.4,10.56,10.56,0,0,1-.7-4.28V286.13h5.12V295a24.63,24.63,0,0,0,.28,5,2.79,2.79,0,0,0,1,1.46,3.22,3.22,0,0,0,1.89.53,4.07,4.07,0,0,0,2.35-.71,3.7,3.7,0,0,0,1.42-1.79,20.52,20.52,0,0,0,.38-5.22v-8.16h5.12v19.34Z"/><path id="path5601" class="cls-1" d="M721.29,286.13H726v2.64a7.59,7.59,0,0,1,6-3.08,6.47,6.47,0,0,1,3.22.77,5.87,5.87,0,0,1,2.24,2.31,9,9,0,0,1,2.75-2.31,6.73,6.73,0,0,1,3.15-.77,7,7,0,0,1,3.61.87,5.33,5.33,0,0,1,2.2,2.54,11.08,11.08,0,0,1,.53,4v12.36h-5.12V294.42a8.27,8.27,0,0,0-.53-3.72,2.43,2.43,0,0,0-2.18-1.09,3.46,3.46,0,0,0-2,.66,3.6,3.6,0,0,0-1.37,1.92,13.72,13.72,0,0,0-.42,4v9.29H733v-10.6a14.37,14.37,0,0,0-.27-3.64,2.31,2.31,0,0,0-.84-1.22,2.78,2.78,0,0,0-1.57-.4,3.68,3.68,0,0,0-2.12.64,3.43,3.43,0,0,0-1.36,1.84,13.75,13.75,0,0,0-.41,4v9.4h-5.12Z"/><path id="path5605" class="cls-1" d="M.23,245.68l7.7-.74a9.43,9.43,0,0,0,2.81,5.69,8.54,8.54,0,0,0,5.73,1.81,8.85,8.85,0,0,0,5.76-1.61,4.82,4.82,0,0,0,1.94-3.78,3.59,3.59,0,0,0-.82-2.37A6.48,6.48,0,0,0,20.51,243q-1.4-.5-6.34-1.71c-4.23-1.06-7.21-2.34-8.92-3.88a10.19,10.19,0,0,1-3.6-7.88,10,10,0,0,1,1.7-5.59,10.5,10.5,0,0,1,4.89-4,19.5,19.5,0,0,1,7.7-1.36q7.37,0,11.1,3.23A11.41,11.41,0,0,1,31,230.46l-7.91.35a6.76,6.76,0,0,0-2.17-4.35,8.06,8.06,0,0,0-5-1.32,9,9,0,0,0-5.39,1.42A2.85,2.85,0,0,0,9.21,229a3,3,0,0,0,1.17,2.38q1.5,1.26,7.27,2.61a38.46,38.46,0,0,1,8.53,2.82,11,11,0,0,1,4.33,4A11.7,11.7,0,0,1,32.07,247a11.48,11.48,0,0,1-1.87,6.3,11.21,11.21,0,0,1-5.29,4.37,22.23,22.23,0,0,1-8.52,1.43Q9,259.12,5,255.69t-4.76-10"/><path id="path5607" class="cls-1" d="M40.31,219.27h7.51v6.94H40.31Zm0,10.79h7.51v28.37H40.31Z"/><path id="path5611" class="cls-1" d="M83,258.42h-7.5V244A21.86,21.86,0,0,0,75,238a4.1,4.1,0,0,0-1.56-2.09,4.45,4.45,0,0,0-2.6-.75,6,6,0,0,0-3.5,1.07,5.3,5.3,0,0,0-2.12,2.83,24.1,24.1,0,0,0-.58,6.52v12.84H57.1V230.06h7v4.16A11.65,11.65,0,0,1,78,230.31a7.67,7.67,0,0,1,3.11,2.28,8.42,8.42,0,0,1,1.47,3.16A23.81,23.81,0,0,1,83,240.8Z"/><path id="path5615" class="cls-1" d="M91.51,260.29l8.57,1a2.94,2.94,0,0,0,1,2.05,5.56,5.56,0,0,0,3.36.8,8.73,8.73,0,0,0,4.41-.88,3.61,3.61,0,0,0,1.49-1.89,11.46,11.46,0,0,0,.35-3.45v-4.14a10.17,10.17,0,0,1-8.49,4.6,10.48,10.48,0,0,1-9.06-4.84,16.39,16.39,0,0,1-2.62-9.51q0-7.12,3.44-10.9a11.05,11.05,0,0,1,8.53-3.76,10.36,10.36,0,0,1,8.68,4.62v-4h7v25.45a25.46,25.46,0,0,1-.83,7.51,9.27,9.27,0,0,1-2.33,3.9,10.45,10.45,0,0,1-4,2.22,21.19,21.19,0,0,1-6.32.8q-7.22,0-10.23-2.47a7.76,7.76,0,0,1-3-6.27Zm6.71-16.63c0,3,.58,5.21,1.75,6.61a5.41,5.41,0,0,0,4.31,2.09,6,6,0,0,0,4.65-2.15q1.89-2.15,1.89-6.37,0-4.41-1.81-6.54a5.78,5.78,0,0,0-4.6-2.14,5.53,5.53,0,0,0-4.44,2.09q-1.75,2.1-1.75,6.41"/><path id="path5617" class="cls-1" d="M127.26,219.27h7.51v39.16h-7.51Z"/><path id="path5621" class="cls-1" d="M160.53,249.4l7.48,1.25a12.35,12.35,0,0,1-4.56,6.27,13.39,13.39,0,0,1-7.78,2.15q-7.39,0-11-4.84a16.31,16.31,0,0,1-2.8-9.78q0-7,3.69-11a12.14,12.14,0,0,1,9.32-4,12.58,12.58,0,0,1,10,4.18q3.66,4.17,3.5,12.81H149.6a7.62,7.62,0,0,0,1.82,5.19,5.67,5.67,0,0,0,4.33,1.86,4.6,4.6,0,0,0,3-1,5.9,5.9,0,0,0,1.82-3.09m.43-7.59a7.22,7.22,0,0,0-1.69-4.95,5.12,5.12,0,0,0-3.9-1.7,5.24,5.24,0,0,0-4.06,1.79,6.94,6.94,0,0,0-1.58,4.86Z"/><path id="path5625" class="cls-1" d="M193.06,258.42V219.27h29v6.62H201v8.68h19.66v6.6H201v10.66h21.88v6.59Z"/><path id="path5629" class="cls-1" d="M249.8,258.42v-4.24a11,11,0,0,1-4.07,3.58,11.44,11.44,0,0,1-5.33,1.3,10.37,10.37,0,0,1-5.13-1.25,7.38,7.38,0,0,1-3.28-3.53,15.62,15.62,0,0,1-1-6.27V230.06h7.51v13c0,4,.13,6.43.41,7.34a4,4,0,0,0,1.51,2.13,4.62,4.62,0,0,0,2.78.79,6,6,0,0,0,3.45-1,5.47,5.47,0,0,0,2.08-2.62q.56-1.58.56-7.65v-12h7.51v28.36Z"/><path id="path5633" class="cls-1" d="M273.37,258.42h-7.5V230.06h7v4a12.14,12.14,0,0,1,3.22-3.77,5.94,5.94,0,0,1,3.24-.9,9.6,9.6,0,0,1,4.95,1.41l-2.33,6.55a6.6,6.6,0,0,0-3.53-1.23,4.13,4.13,0,0,0-2.66.87,5.83,5.83,0,0,0-1.73,3.14q-.63,2.26-.63,9.5Z"/><path id="path5637" class="cls-1" d="M287.38,243.84a15.37,15.37,0,0,1,1.85-7.24,12.63,12.63,0,0,1,5.22-5.34,15.47,15.47,0,0,1,7.54-1.84,14.17,14.17,0,0,1,10.56,4.18,15.69,15.69,0,0,1-.05,21.23,14,14,0,0,1-10.45,4.23,16.38,16.38,0,0,1-7.44-1.76,12.1,12.1,0,0,1-5.38-5.16,17.25,17.25,0,0,1-1.85-8.3m7.7.4c0,2.82.66,5,2,6.47a6.56,6.56,0,0,0,9.87,0c1.32-1.5,2-3.67,2-6.52a9.37,9.37,0,0,0-2-6.41,6.56,6.56,0,0,0-9.87,0c-1.34,1.49-2,3.65-2,6.46"/><path id="path5641" class="cls-1" d="M341.07,258.42V219.27h12.68q7.22,0,9.41.58a10.27,10.27,0,0,1,5.63,3.84,12.16,12.16,0,0,1,2.27,7.62,12.7,12.7,0,0,1-1.31,6.07,10.86,10.86,0,0,1-3.32,3.86,11.51,11.51,0,0,1-4.1,1.85,45.52,45.52,0,0,1-8.2.56H349v14.77Zm7.9-32.53V237h4.33a20.45,20.45,0,0,0,6.25-.61,5.15,5.15,0,0,0,3.37-5,5.07,5.07,0,0,0-1.26-3.53,5.5,5.5,0,0,0-3.18-1.73,37.57,37.57,0,0,0-5.69-.27Z"/><path id="path5645" class="cls-1" d="M384.75,238.71l-6.81-1.23a10.64,10.64,0,0,1,3.95-6.09q2.81-2,8.34-2c3.34,0,5.83.39,7.47,1.19a7.39,7.39,0,0,1,3.46,3q1,1.83,1,6.72l-.07,8.76a30.51,30.51,0,0,0,.36,5.52,15.79,15.79,0,0,0,1.35,3.81h-7.43c-.2-.5-.44-1.24-.73-2.22-.12-.44-.2-.74-.26-.88a13.54,13.54,0,0,1-4.11,2.8,11.67,11.67,0,0,1-4.68.93,9.67,9.67,0,0,1-6.9-2.37,7.92,7.92,0,0,1-2.52-6,8.14,8.14,0,0,1,1.14-4.29,7.6,7.6,0,0,1,3.22-2.89,25.17,25.17,0,0,1,6-1.74,40.66,40.66,0,0,0,7.29-1.85v-.74a3.87,3.87,0,0,0-1.07-3.09c-.71-.61-2.05-.92-4-.92a5.37,5.37,0,0,0-3.13.79,5.5,5.5,0,0,0-1.81,2.76m10,6.09c-1,.32-2.48.7-4.56,1.15a13.87,13.87,0,0,0-4.09,1.31,3.13,3.13,0,0,0-1.47,2.65,3.68,3.68,0,0,0,1.18,2.72,4.1,4.1,0,0,0,3,1.15,6.51,6.51,0,0,0,3.87-1.34A4.67,4.67,0,0,0,394.5,250a15.18,15.18,0,0,0,.29-3.66Z"/><path id="path5649" class="cls-1" d="M407.65,230.06h8l6.79,20.14,6.62-20.14h7.77l-10,27.3L425,262.3a20.39,20.39,0,0,1-1.88,3.79,8.52,8.52,0,0,1-2.05,2.13,9.07,9.07,0,0,1-2.86,1.26,14.6,14.6,0,0,1-3.84.46,19.39,19.39,0,0,1-4.24-.46l-.67-5.87a16.66,16.66,0,0,0,3.18.35,4.73,4.73,0,0,0,3.87-1.54,10.76,10.76,0,0,0,1.93-3.91Z"/><path id="path5653" class="cls-1" d="M442.71,230.06h6.92v3.87a11.11,11.11,0,0,1,8.84-4.51,9.54,9.54,0,0,1,4.73,1.12,8.65,8.65,0,0,1,3.28,3.39,13.15,13.15,0,0,1,4-3.39,9.85,9.85,0,0,1,4.62-1.12,10.32,10.32,0,0,1,5.28,1.26,7.81,7.81,0,0,1,3.24,3.73,16.37,16.37,0,0,1,.77,5.88v18.14h-7.51V242.21c0-2.81-.25-4.63-.77-5.45a3.55,3.55,0,0,0-3.2-1.6,5.12,5.12,0,0,0-3,1,5.3,5.3,0,0,0-2,2.82,19.86,19.86,0,0,0-.62,5.86v13.63h-7.51V242.88a21.4,21.4,0,0,0-.4-5.34,3.36,3.36,0,0,0-1.23-1.79,4,4,0,0,0-2.29-.59,5.51,5.51,0,0,0-3.13.93,5.14,5.14,0,0,0-2,2.7,19.7,19.7,0,0,0-.61,5.85v13.79h-7.5Z"/><path id="path5657" class="cls-1" d="M510,249.4l7.48,1.25a12.35,12.35,0,0,1-4.56,6.27,13.39,13.39,0,0,1-7.78,2.15c-4.94,0-8.58-1.62-11-4.84a16.24,16.24,0,0,1-2.8-9.78q0-7,3.69-11a12.14,12.14,0,0,1,9.32-4,12.58,12.58,0,0,1,10,4.18c2.43,2.78,3.61,7.05,3.5,12.81H499.05a7.62,7.62,0,0,0,1.82,5.19,5.68,5.68,0,0,0,4.33,1.86,4.6,4.6,0,0,0,3-1A5.9,5.9,0,0,0,510,249.4m.43-7.59a7.22,7.22,0,0,0-1.69-4.95,5.12,5.12,0,0,0-3.9-1.7,5.24,5.24,0,0,0-4.06,1.79,6.94,6.94,0,0,0-1.58,4.86Z"/><path id="path5661" class="cls-1" d="M551.42,258.42h-7.51V244a22.44,22.44,0,0,0-.48-5.95,4.15,4.15,0,0,0-1.56-2.09,4.46,4.46,0,0,0-2.61-.75,6.08,6.08,0,0,0-3.5,1.07,5.35,5.35,0,0,0-2.12,2.83,24.64,24.64,0,0,0-.57,6.52v12.84h-7.51V230.06h7v4.16a11.38,11.38,0,0,1,9.35-4.8,11.18,11.18,0,0,1,4.54.89,7.67,7.67,0,0,1,3.11,2.28,8.12,8.12,0,0,1,1.47,3.16,23,23,0,0,1,.42,5.05Z"/><path id="path5665" class="cls-1" d="M573.68,230.06v6h-5.13v11.43a27.83,27.83,0,0,0,.15,4.05l.67.95a2.08,2.08,0,0,0,1.27.37,9.73,9.73,0,0,0,3-.72l.64,5.82a14.86,14.86,0,0,1-5.93,1.13,9.42,9.42,0,0,1-3.65-.68,5.34,5.34,0,0,1-2.39-1.77,6.86,6.86,0,0,1-1.06-2.92,36.47,36.47,0,0,1-.24-5.29V236h-3.45v-6H561v-5.64l7.53-4.38v10Z"/><path id="path5669" class="cls-1" d="M577.89,250.33l7.53-1.15a5.54,5.54,0,0,0,2,3.33,6.63,6.63,0,0,0,4.11,1.13,7.45,7.45,0,0,0,4.38-1.06,2.39,2.39,0,0,0,1-2,2,2,0,0,0-.53-1.41,6,6,0,0,0-2.51-1q-9.09-2-11.52-3.66a7.31,7.31,0,0,1-3.36-6.39,7.86,7.86,0,0,1,2.91-6.19c1.94-1.68,4.95-2.51,9-2.51q5.82,0,8.65,1.89a9.75,9.75,0,0,1,3.9,5.61l-7.08,1.31a4.37,4.37,0,0,0-1.72-2.54,6.37,6.37,0,0,0-3.62-.88,8.19,8.19,0,0,0-4.25.83,1.77,1.77,0,0,0-.85,1.52,1.64,1.64,0,0,0,.75,1.36q1,.75,7,2.12c4,.9,6.78,2,8.37,3.33a7,7,0,0,1,2.35,5.59,8.56,8.56,0,0,1-3.25,6.7q-3.27,2.81-9.65,2.81-5.79,0-9.17-2.36a10.74,10.74,0,0,1-4.42-6.38"/><path id="path5673" class="cls-1" d="M662.77,258.42h-8.61l-3.41-8.89H635.1l-3.24,8.89h-8.38l15.25-39.15h8.36Zm-14.56-15.49-5.4-14.53-5.28,14.53Z"/><path id="path5677" class="cls-1" d="M675.73,258.42h-7.5V230.06h7v4a12.14,12.14,0,0,1,3.22-3.77,5.94,5.94,0,0,1,3.24-.9,9.6,9.6,0,0,1,5,1.41l-2.33,6.55a6.6,6.6,0,0,0-3.53-1.23,4.13,4.13,0,0,0-2.66.87,5.83,5.83,0,0,0-1.73,3.14q-.63,2.26-.63,9.5Z"/><path id="path5681" class="cls-1" d="M707.91,249.4l7.48,1.25a12.35,12.35,0,0,1-4.56,6.27,13.41,13.41,0,0,1-7.78,2.15q-7.41,0-11-4.84a16.24,16.24,0,0,1-2.8-9.78q0-7,3.68-11a12.15,12.15,0,0,1,9.32-4,12.6,12.6,0,0,1,10,4.18q3.66,4.17,3.5,12.81H697a7.57,7.57,0,0,0,1.82,5.19,5.66,5.66,0,0,0,4.32,1.86,4.61,4.61,0,0,0,3-1,5.9,5.9,0,0,0,1.82-3.09m.42-7.59a7.17,7.17,0,0,0-1.68-4.95,5.14,5.14,0,0,0-3.9-1.7,5.22,5.22,0,0,0-4.06,1.79,6.94,6.94,0,0,0-1.58,4.86Z"/><path id="path5685" class="cls-1" d="M729.15,238.71l-6.81-1.23a10.6,10.6,0,0,1,4-6.09q2.79-2,8.33-2c3.34,0,5.84.39,7.48,1.19a7.41,7.41,0,0,1,3.45,3q1,1.83,1,6.72l-.07,8.76a30.51,30.51,0,0,0,.36,5.52,16.23,16.23,0,0,0,1.35,3.81h-7.43q-.3-.75-.72-2.22c-.13-.44-.21-.74-.27-.88a13.54,13.54,0,0,1-4.11,2.8,11.67,11.67,0,0,1-4.68.93,9.67,9.67,0,0,1-6.9-2.37,7.93,7.93,0,0,1-2.53-6,8.15,8.15,0,0,1,1.15-4.29,7.66,7.66,0,0,1,3.22-2.89,25.17,25.17,0,0,1,6-1.74,40.66,40.66,0,0,0,7.29-1.85v-.74a3.87,3.87,0,0,0-1.07-3.09c-.71-.61-2-.92-4-.92A5.33,5.33,0,0,0,731,236a5.44,5.44,0,0,0-1.82,2.76m10,6.09c-1,.32-2.48.7-4.56,1.15a13.87,13.87,0,0,0-4.09,1.31,3.13,3.13,0,0,0-1.47,2.65,3.68,3.68,0,0,0,1.18,2.72,4.1,4.1,0,0,0,3,1.15,6.51,6.51,0,0,0,3.87-1.34A4.67,4.67,0,0,0,738.9,250a15.18,15.18,0,0,0,.29-3.66Z"/><path id="path5689" class="cls-1" d="M166.63,65.38H115.31q0-12.63-3-16.95Q107.78,42,87.08,42,67,42,60.47,45.72T54,61.78Q54,73,59.73,76.51a24.14,24.14,0,0,0,10.94,2.95L81,80.19q33.27,2.2,41.56,3.1,26.31,2.64,38.15,14,9.3,8.85,11.09,23.13a161.91,161.91,0,0,1,1,19.3q0,24.75-4.72,36.24-8.56,21.08-38.52,26.65Q117.05,205,91.22,205q-43.11,0-60.07-5.14-20.82-6.33-27.46-25.6Q0,163.49,0,138.47H51.32v4.26q0,13.35,7.67,17.17a30,30,0,0,0,12.82,2.79H90.68q14.44,0,18.42-1.48,7.08-2.78,9.3-9a34.51,34.51,0,0,0,1.17-9.87q0-13.53-9.87-16.48-3.69-1.17-34.32-3.24-24.61-1.75-34.18-3.39Q16,114.55,7.62,99.84.24,87.35.25,62q0-19.27,4-30.91T17.07,13.45Q30,4.18,50.26,2.56,67.09,1.09,87.59,1.08q32.31,0,46,3.7,33.5,9,33.5,50.42,0,3.39-.5,10.18"/><path id="path5693" class="cls-1" d="M392.3,205V0H495.07q21.14,0,32.24,3.45Q552.66,11.39,561.36,36q4.5,12.9,4.5,38.84,0,31.19-5,44.83-9.89,27-40.64,31-3.62.62-30.76,1.06l-9.16.3H447.46V205Zm55.16-100.46h34.38c10.91-.39,17.54-1.23,19.93-2.54,3.25-1.79,5.45-5.38,6.53-10.76a90,90,0,0,0,1.05-16q0-13-2.09-19.29-3-8.82-14.25-10.76c-1.5-.2-5.06-.3-10.7-.3H447.46Z"/><path id="path5697" class="cls-1" d="M683.61,169.53H609.85L599.94,205H542.87L604.46,0h83.21L750,205H694.13Zm-11-39.92L646.81,40.76l-25.08,88.85Z"/><path id="path5701" class="cls-2" d="M316.16,28.83a72.52,72.52,0,0,1,56.4,26.9l11.89-25.5A104.24,104.24,0,0,0,312.63,1.82c-43.46,0-80.64,26.25-95.9,63.41H193.54L179.85,94.58h29.83c-.23,2.73-.37,5.45-.37,8.23a96.73,96.73,0,0,0,.51,10h-15l-13.69,29.36h36.3c15.69,36.22,52.41,61.65,95.19,61.65a104.51,104.51,0,0,0,58.14-17.5v-36a72.57,72.57,0,0,1-115.43-8.17h76l13.69-29.36H244.16a74.18,74.18,0,0,1-.8-10.82c0-2.49.13-4.95.37-7.38h109.8l13.69-29.35h-114a72.72,72.72,0,0,1,62.94-36.4"/><path id="path5705" class="cls-1" d="M316.16,29.71a71.56,71.56,0,0,1,55.72,26.58l.89,1.09.6-1.27,11.88-25.5.27-.58-.46-.44A106,106,0,0,0,253.61,18.87a102.25,102.25,0,0,0-37.69,46l.81-.55H193l-.24.51L179.06,94.21l-.59,1.26h31.21l-.88-1c-.25,3-.37,5.76-.37,8.3a100.71,100.71,0,0,0,.51,10.06l.88-1H194.27l-.23.5-13.7,29.36-.58,1.25h37.68l-.81-.53c16.37,37.77,54.05,62.18,96,62.18A105.34,105.34,0,0,0,371.25,187l.39-.26V148l-1.54,1.75a71.7,71.7,0,0,1-114-8.07l-.74,1.36h76.58l.24-.5,13.69-29.36.58-1.25H244.16l.87.75a74.19,74.19,0,0,1-.79-10.7c0-2.41.13-4.86.37-7.29l-.88.8H354.1l.23-.51L368,65.61l.59-1.26H253.22l.76,1.32a72.17,72.17,0,0,1,62.18-36m-62.94,36.4h114l-.8-1.25L352.74,94.21l.79-.5H242.94l-.09.79a74.67,74.67,0,0,0-.37,7.46,76.37,76.37,0,0,0,.81,11l.12.75H345.05l-.8-1.26-13.68,29.36.79-.51H253.71l.9,1.36a73.46,73.46,0,0,0,116.82,8.27l-1.55-.58v36l.39-.72a103.63,103.63,0,0,1-57.64,17.34c-41.25,0-78.3-24-94.38-61.12l-.23-.53H181.14l.8,1.26,13.69-29.36-.8.51h16l-.1-1c-.33-3.32-.5-6.65-.5-9.89,0-2.49.12-5.16.37-8.15l.08-1H179.85l.8,1.25,13.69-29.35-.8.5h23.78l.22-.54A100.56,100.56,0,0,1,254.6,20.33,104.24,104.24,0,0,1,383.85,30.87l-.2-1-11.88,25.5,1.48-.19a73.49,73.49,0,0,0-120.79,9.62l-.77,1.32Z"/></svg>