<svg viewBox="0 0 11 16" fill="none" xmlns="http://www.w3.org/2000/svg"><path d="M3.999 11.055a.75.75 0 01.011 1.062l-.056.061a.75.75 0 01-1.062.012l-1.676-1.66C.752 10.066.69 9.496.98 9.194l.056-.061a.685.685 0 01.91-.062c.13.1.32.078.426-.05a.308.308 0 00-.05-.425A1.293 1.293 0 00.6 8.708l-.056.061c-.542.56-.436 1.504.24 2.18l1.683 1.677c.542.52 1.397.508 1.922-.028l.062-.062a1.361 1.361 0 00-.028-1.911.295.295 0 00-.425.005.29.29 0 000 .425zM2.993 2.052l.687 5.644a.299.299 0 00.336.263.299.299 0 00.262-.335l-.687-5.667-.006-.034c-.117-.47.174-.995.565-1.078a.836.836 0 01.631.117.84.84 0 01.358.53l1.196 5.109a.301.301 0 10.587-.14L5.732 1.37A1.436 1.436 0 004.027.252c-.738.157-1.218 1.017-1.034 1.8z" fill="#fff"/><path d="M9.297 8.68l1.358-6.762A1.43 1.43 0 009.66.247 1.495 1.495 0 007.84 1.308L6.335 6.456a.301.301 0 00.207.374.301.301 0 00.374-.207L8.42 1.47A.897.897 0 019.498.828a.832.832 0 01.565.967L8.705 8.563a.305.305 0 00.235.357.307.307 0 00.357-.24zm-3.415 6.516c-2.151 0-3.945-1.576-3.945-3.817a.3.3 0 00-.302-.301.3.3 0 00-.302.301c0 2.594 2.085 4.421 4.55 4.421a.3.3 0 00.301-.302.3.3 0 00-.302-.302zm-1.061-5.27a.718.718 0 01-.297.414l-.067.039a.756.756 0 01-1.05-.201l-1.32-1.962c-.357-.548-.312-1.118.034-1.358l.062-.045c.447-.257.821-.061 1.207.503l1.1 1.643c.096.14.28.174.42.084.14-.09.173-.28.084-.419L3.893 6.981c-.548-.794-1.218-1.146-2.029-.676l-.084.056c-.648.441-.726 1.391-.195 2.19l1.319 1.968c.424.62 1.263.782 1.883.363l.067-.045c.263-.179.453-.447.542-.754a.299.299 0 00-.212-.37.295.295 0 00-.363.213z" fill="#fff"/><path d="M6.815 10.921c-.626.352-1.018 1.006-1.062 2.006a.3.3 0 00.285.319.305.305 0 00.318-.285c.045-.905.397-1.392.962-1.604.301-.112.631-.134.922-.106l.072.01c.386.074.509-.502.123-.591l-2.319-.52c-1.084-.296-1.252-.699-1.05-1.37.089-.29.262-.441.536-.502.179-.04.374-.034.564 0 .056.01.095.016.112.022L9.8 9.12l.067.023a.568.568 0 01.179.128c.235.252.369.727.302 1.51-.23 2.738-1.504 4.437-4.533 4.409a.3.3 0 00-.005.598c3.398.028 4.884-1.945 5.136-4.963.078-.939-.095-1.582-.459-1.967-.2-.213-.413-.313-.575-.336l-3.482-.81c-.022-.006-.078-.022-.157-.033a2.166 2.166 0 00-.804.005c-.47.106-.827.403-.978.917-.291.967.016 1.727 1.48 2.123l.845.196z" fill="#fff"/></svg>
