<svg xmlns="http://www.w3.org/2000/svg" viewBox="0 0 750 233"><path d="M248 0a69 69 0 00-30 7c-13 6-25 17-35 31a134 134 0 00-16 31c-8 22-8 40 0 52 5 7 15 15 35 15 36 0 63-24 80-71 5-12 11-35 0-51-7-9-18-14-34-14zm218 0a69 69 0 00-29 7c-13 6-26 17-35 31a133 133 0 00-17 31c-8 22-8 40 1 52 4 7 14 15 34 15 36 0 63-24 80-71 5-12 11-35 0-51-7-9-18-14-34-14zM132 2c-12 0-24 0-34 5S78 23 71 44a42 42 0 00-2 12 18 18 0 002 9 26 26 0 007 8 36 36 0 0011 6l5 1 8 2a16 16 0 013 2 7 7 0 013 3 6 6 0 011 2 9 9 0 01-1 4 9 9 0 01-5 5c-3 2-7 2-13 2H12L0 134h83c8 0 22 0 36-6s27-18 33-41c2-9 1-16-2-22s-10-9-19-12l-5-1-6-2a9 9 0 01-5-4 7 7 0 01-1-6 9 9 0 014-5 17 17 0 019-2h48l1-1a107 107 0 0131-30zm217 0c-21 0-37 11-45 31l-36 101h40l18-52h36l10-28h-35l5-16a8 8 0 018-5h42l1-1c9-13 22-23 33-30zm186 0l-48 132h41l17-47 11 47h43s-7-33-13-46a73 73 0 00-5-10c12-5 29-15 37-34 4-12 4-22-1-29-6-9-18-13-38-13zm84 0a33 33 0 016 7c5 7 7 15 6 24h24l-36 101h36l37-101h47l11-31zm-57 27h7c12 0 17 4 12 15-3 11-10 17-24 17h-7l12-32zm-324 1c13 0 16 7 5 37-11 31-20 39-32 39s-16-8-5-39c8-23 19-37 32-37zm219 0c12 0 15 7 4 37-11 31-19 39-32 39-12 0-16-8-5-39 9-23 20-37 33-37z" fill="#ee7f00"/><path d="M40 148a10 10 0 00-6 1 10 10 0 00-3 5l-1 5 5 1 6-1a10 10 0 003-5v-5l-4-1zm22 0l-6 1a10 10 0 00-3 5l-1 5 5 1 6-1a10 10 0 003-5v-5l-4-1zm412 17a35 35 0 00-9 1 30 30 0 00-8 3 29 29 0 00-7 6 27 27 0 00-5 9 18 18 0 00-1 7 12 12 0 001 5 12 12 0 003 3 28 28 0 005 3l4 2a19 19 0 013 3 7 7 0 013 3 5 5 0 01-1 3 12 12 0 01-2 4 12 12 0 01-3 3 15 15 0 01-4 1 17 17 0 01-4 1 20 20 0 01-6-1 20 20 0 01-7-4 3 3 0 00-2-1 2 2 0 00-1 1 3 3 0 00-1 1 10 10 0 00-1 1l-1 3a19 19 0 00-1 4 3 3 0 001 1 6 6 0 001 2 15 15 0 003 2 27 27 0 005 1 31 31 0 006 0 38 38 0 0010-1 34 34 0 009-4 32 32 0 008-6 29 29 0 005-9 18 18 0 001-7 12 12 0 00-1-5 12 12 0 00-3-4 32 32 0 00-5-3l-4-2a21 21 0 01-4-2 7 7 0 01-2-3 5 5 0 010-4 11 11 0 012-3 10 10 0 012-2 12 12 0 014-1 14 14 0 014-1 16 16 0 014 1 18 18 0 014 1 23 23 0 012 2 3 3 0 002 1 2 2 0 001-1 3 3 0 001-1 13 13 0 001-1l1-3v-2a10 10 0 001-2 4 4 0 000-1 2 2 0 00-1 0 5 5 0 00-1-2 17 17 0 00-3-1 26 26 0 00-4-1 28 28 0 00-5 0zm210 0a47 47 0 00-15 2 47 47 0 00-13 7 52 52 0 00-11 11 57 57 0 00-8 14 40 40 0 00-2 14 19 19 0 002 11 17 17 0 009 6 34 34 0 0013 2 58 58 0 0016-2l5-1a6 6 0 003-2 9 9 0 001-3l10-26a6 6 0 000-1 3 3 0 000-2 2 2 0 00-1-1 3 3 0 00-1 0h-22a2 2 0 00-1 0 4 4 0 00-1 1 9 9 0 00-1 2 22 22 0 00-1 2 11 11 0 00-1 4l1 1h12l-5 15a23 23 0 01-5 2 22 22 0 01-4 0 19 19 0 01-8-1 10 10 0 01-5-4 14 14 0 01-2-8 31 31 0 012-9 39 39 0 015-10 35 35 0 017-7 30 30 0 018-5 28 28 0 0117 0 29 29 0 015 2 21 21 0 013 2 3 3 0 002 0 2 2 0 001 0 4 4 0 001-1 12 12 0 001-1 23 23 0 001-3 19 19 0 001-4 3 3 0 000-2 6 6 0 00-2-1 16 16 0 00-4-2 34 34 0 00-5-2 43 43 0 00-8 0zm-413 1h-4a5 5 0 00-3 0 3 3 0 00-1 2 16 16 0 000 3l-6 57a6 6 0 000 2 2 2 0 001 1 9 9 0 003 1h9a11 11 0 003-1 5 5 0 001-1 9 9 0 002-2l25-42-5 42a5 5 0 000 2 2 2 0 001 1 8 8 0 003 1h9a13 13 0 003-1 5 5 0 002-1 9 9 0 001-2l36-57a28 28 0 002-3 2 2 0 000-2 2 2 0 00-2 0 33 33 0 00-3 0h-4a8 8 0 00-2 0 3 3 0 00-1 1 12 12 0 00-1 1l-30 50 6-49a5 5 0 000-2 1 1 0 00-1-1 6 6 0 00-2 0h-8a9 9 0 00-2 0 4 4 0 00-2 1 9 9 0 00-1 2l-30 49 7-50a4 4 0 000-1 1 1 0 000-1 6 6 0 00-2 0h-4zm158 0a29 29 0 00-4 0 15 15 0 00-2 0 4 4 0 00-1 1 2 2 0 00-1 1l-22 61a1 1 0 000 1 1 1 0 001 1 8 8 0 001 0 27 27 0 004 1 30 30 0 003-1 11 11 0 002 0 3 3 0 001-1 2 2 0 001-1l23-61a1 1 0 000-1 1 1 0 00-1-1 9 9 0 00-2 0 27 27 0 00-3 0zm-405 0a30 30 0 00-3 0 15 15 0 00-2 0 3 3 0 00-2 1 2 2 0 000 1L2 208a31 31 0 00-2 10 14 14 0 002 8 13 13 0 007 5 31 31 0 0010 2 42 42 0 0013-2 35 35 0 0018-13 43 43 0 006-11l14-39a1 1 0 000-1 1 1 0 00-1-1 9 9 0 00-2 0 25 25 0 00-3 0 30 30 0 00-3 0 14 14 0 00-2 0 3 3 0 00-1 1 2 2 0 00-1 1l-14 39a26 26 0 01-4 6 21 21 0 01-4 5 18 18 0 01-5 3 18 18 0 01-6 1 13 13 0 01-5-1 7 7 0 01-4-3 9 9 0 01-1-5 22 22 0 012-7l14-38a1 1 0 000-1 1 1 0 00-1-1 9 9 0 00-2 0 26 26 0 00-3 0zm491 0a30 30 0 00-4 0 12 12 0 00-2 0 3 3 0 00-1 1 2 2 0 00-1 1l-14 39a31 31 0 00-2 11 13 13 0 002 8 13 13 0 007 5 31 31 0 0010 2 42 42 0 0012-2 35 35 0 0019-13 42 42 0 005-11l15-39a1 1 0 00-1-2 8 8 0 00-2 0 26 26 0 00-3 0 30 30 0 00-3 0 12 12 0 00-3 0 3 3 0 00-1 1 2 2 0 00-1 1l-14 39a27 27 0 01-3 6 21 21 0 01-4 5 18 18 0 01-6 3 18 18 0 01-6 1 13 13 0 01-5-1 7 7 0 01-3-3 8 8 0 01-1-5 22 22 0 011-7l14-38a1 1 0 000-1 1 1 0 000-1 8 8 0 00-2 0 26 26 0 00-3 0zm113 0h-3a8 8 0 00-2 0 4 4 0 00-1 1 2 2 0 00-1 1l-11 31-2 7-3 7v-4l-1-4v-4l-1-4-4-24a19 19 0 00-1-4 5 5 0 00-1-2 4 4 0 00-2-1 12 12 0 00-3 0h-7a7 7 0 00-4 1 7 7 0 00-3 4l-21 58a1 1 0 000 1 1 1 0 001 1 6 6 0 001 1 24 24 0 003 0 28 28 0 003 0 10 10 0 002-1 3 3 0 001-1 2 2 0 001-1l12-34 3-7 2-7 1 6 1 6 5 30a35 35 0 000 4 7 7 0 002 3 4 4 0 002 1 10 10 0 003 0h5a8 8 0 002 0 7 7 0 002-1 8 8 0 002-1 7 7 0 001-2l21-59a1 1 0 000-1 1 1 0 000-1 4 4 0 00-2 0 27 27 0 00-3 0zm-472 0a6 6 0 00-3 1 6 6 0 00-2 3l-21 57v3a3 3 0 003 1h32a2 2 0 001 0 3 3 0 001-1 9 9 0 001-1 24 24 0 001-3 23 23 0 001-2 6 6 0 000-2 1 1 0 000-1 1 1 0 00-1 0h-23l6-19h20a2 2 0 001 0 3 3 0 001-1 8 8 0 001-1 23 23 0 001-3 20 20 0 001-2 5 5 0 000-2 1 1 0 00-1 0 1 1 0 000-1h-20l6-16h23a2 2 0 001 0 4 4 0 001-1 10 10 0 001-1 23 23 0 001-3 22 22 0 001-2 6 6 0 000-2 1 1 0 000-1 1 1 0 00-1 0zm55 0a6 6 0 00-3 1 6 6 0 00-2 3l-22 60a1 1 0 001 1 8 8 0 002 0 26 26 0 003 1 30 30 0 003-1 13 13 0 002 0 4 4 0 002-1l10-25h4a8 8 0 013 0 5 5 0 012 2 9 9 0 011 3 43 43 0 011 5v14a3 3 0 001 1 1 1 0 000 1 6 6 0 002 0l4 1 4-1a11 11 0 002 0 3 3 0 001 0 3 3 0 001-1 6 6 0 000-2 28 28 0 000-3l-1-12a34 34 0 000-5 15 15 0 00-1-3 8 8 0 00-2-2 9 9 0 00-2-2 32 32 0 006-3 27 27 0 006-3 25 25 0 004-5 28 28 0 003-6 20 20 0 001-7 10 10 0 00-1-5 10 10 0 00-4-4 20 20 0 00-7-2 60 60 0 00-7 0zm160 0a6 6 0 00-3 1 6 6 0 00-2 3l-21 57v3a3 3 0 002 1h33a2 2 0 001 0 3 3 0 001-1 8 8 0 001-1 22 22 0 001-3 23 23 0 001-2 6 6 0 000-2 1 1 0 000-1 1 1 0 00-1 0h-24l7-19h20a2 2 0 001 0 3 3 0 001-1 8 8 0 000-1 23 23 0 001-3 22 22 0 001-2 5 5 0 000-2 1 1 0 00-1-1h-19l5-16h24a2 2 0 001 0 4 4 0 001-1 8 8 0 001-1 23 23 0 001-3 23 23 0 000-2 6 6 0 001-2 1 1 0 00-1-1zm-277 0a6 6 0 00-4 1 6 6 0 00-2 3l-21 57v3a3 3 0 003 1h17a52 52 0 008 0 41 41 0 006-2 37 37 0 006-2 30 30 0 006-4 29 29 0 004-5 27 27 0 003-6 17 17 0 002-6 11 11 0 00-1-5 9 9 0 00-3-3 12 12 0 00-5-2 23 23 0 005-2 22 22 0 004-3 23 23 0 003-4 23 23 0 002-4 16 16 0 001-8 8 8 0 00-2-5 13 13 0 00-6-3 39 39 0 00-10-1zm5 10h7a15 15 0 015 0 5 5 0 012 2 4 4 0 011 3 10 10 0 01-1 3 14 14 0 01-2 3 13 13 0 01-2 3 12 12 0 01-4 2 15 15 0 01-5 1h-7zm118 0h6a31 31 0 013 0 15 15 0 013 1c2 0 3 1 3 3a9 9 0 010 5 14 14 0 01-2 4 13 13 0 01-4 3 15 15 0 01-4 2 19 19 0 01-5 1h-7zM89 203h8a20 20 0 016 0 7 7 0 013 2 5 5 0 011 3 10 10 0 01-1 4 13 13 0 01-2 4 14 14 0 01-3 3 14 14 0 01-4 2 18 18 0 01-5 0h-9z" fill="#383a41"/></svg>