<svg id="svg4722" xmlns="http://www.w3.org/2000/svg" viewBox="0 0 750 232.5" preserveAspectRatio="xMidYMid meet"><defs><style>.cls-1{fill:#ee7f00;}.cls-2{fill:#383a41;}</style></defs><title>sofort</title><g id="layer1"><path id="path66" class="cls-1" d="M248,0a69,69,0,0,0-29.55,6.76c-13.34,6.32-25.44,16.86-35.32,30.84A133.77,133.77,0,0,0,167,69c-8.11,22.22-8,40.24.27,52.12,4.71,6.71,14.48,14.73,34.35,14.75h.08c36.2,0,63.23-23.73,80.34-70.53,4.52-12.38,10.49-35.49-.41-51.08C275,4.8,263.73,0,248,0ZM466.48,0a69,69,0,0,0-29.54,6.76c-13.35,6.32-25.44,16.86-35.32,30.84A133.39,133.39,0,0,0,385.4,69c-8.12,22.22-8,40.24.28,52.12,4.69,6.71,14.46,14.73,34.35,14.75h.06c36.21,0,63.24-23.73,80.34-70.53C505,52.93,510.92,29.82,500,14.23,493.43,4.8,482.17,0,466.48,0ZM131.78,1.88c-11.92,0-23.49,0-33.86,5.26S78.4,22.93,71.35,44a42.11,42.11,0,0,0-2.44,11.82,17.78,17.78,0,0,0,1.77,8.79A25.67,25.67,0,0,0,78.05,73a36.25,36.25,0,0,0,11.22,5.67l5,1.42c2.63.76,5.71,1.66,7.66,2.25a15.94,15.94,0,0,1,3.53,1.49,7.18,7.18,0,0,1,2.81,2.84,6.24,6.24,0,0,1,.67,2.72,9,9,0,0,1-.52,3.16,8.61,8.61,0,0,1-5.24,5.83c-2.78,1.13-6.88,1.49-13.11,1.53H12.29L0,133.65H83.23c7.83,0,22.15,0,35.91-5.85s27-17.52,32.54-40.9c2.1-8.79,1.45-16-2-21.57S140,55.63,130.9,53l-4.43-1.28-6.54-1.88a8.73,8.73,0,0,1-5.18-3.73,7.31,7.31,0,0,1-.77-5.91A8.6,8.6,0,0,1,118.29,35a17.48,17.48,0,0,1,8.42-1.88h48.38c.34-.49.65-1,1-1.52A107,107,0,0,1,207.34,1.88Zm217.45,0c-21.52,0-37.55,10.89-45.12,31.28L267.54,133.65H307.6L326.4,82l35.41,0,10.07-27.67-35.29,0,5.68-16a8.47,8.47,0,0,1,8.16-5.16l41.75,0c.35-.5.66-1,1-1.53C402,19.14,414.53,9,426.24,1.88ZM535.11,2l-48,131.78h40.75l17.44-46.38c.85,1.91,11.14,46.38,11.14,46.38h42.85s-7.79-32.68-13.52-45.88a73.16,73.16,0,0,0-5.07-10.38c12.1-4.49,29.64-14.15,36.91-33.71,4.46-12,4.2-21.75-.76-28.88C610.86,6.23,598.63,2,579.47,2ZM618.7,2a32.59,32.59,0,0,1,6.65,7c4.74,6.83,6.56,15,5.47,24.26h24.27L618.52,133.76h36.54l36.6-100.51h47L750,2ZM562,29.16h6.73c12.3,0,16.88,3.61,12.72,14.83-3.91,10.54-10.94,17-24.3,17h-7L562,29.16Zm-323.53.65h0c12.51,0,15.38,7.28,4.39,37.35h0c-11.3,30.91-19.49,38.69-31.83,38.69h0c-12,0-16.24-7.62-5-38.38,8.4-23,19.28-37.66,32.44-37.66Zm218.44,0h0c12.51,0,15.39,7.28,4.39,37.35-11.29,30.91-19.49,38.69-31.82,38.69h0c-12,0-16.22-7.62-5-38.38,8.39-23,19.27-37.66,32.43-37.66Z"/><path id="path98" class="cls-2" d="M39.62,147.61A9.86,9.86,0,0,0,33.86,149a10.36,10.36,0,0,0-3.23,5c-.83,2.3-1,3.89-.38,4.8s2.16,1.36,4.76,1.36,4.53-.46,5.8-1.42A10.36,10.36,0,0,0,44,153.78c.85-2.33,1-3.93.42-4.83S42.25,147.61,39.62,147.61Zm22.1,0c-2.6,0-4.53.47-5.79,1.39a10.42,10.42,0,0,0-3.21,5c-.83,2.3-1,3.89-.4,4.8s2.14,1.36,4.74,1.36,4.52-.46,5.82-1.42a10.46,10.46,0,0,0,3.22-4.95c.84-2.33,1-3.93.39-4.83S64.31,147.61,61.72,147.61Zm412.47,17.15a35.45,35.45,0,0,0-8.95,1.15,30.25,30.25,0,0,0-8.25,3.52,29.08,29.08,0,0,0-6.86,5.91,26.88,26.88,0,0,0-4.75,8.27,18.26,18.26,0,0,0-1.34,7,11.76,11.76,0,0,0,1.3,5.08,11.92,11.92,0,0,0,3.09,3.69,28,28,0,0,0,4.1,2.75c1.46.81,2.88,1.59,4.27,2.31a19,19,0,0,1,3.57,2.33,6.87,6.87,0,0,1,2.13,2.82,5.27,5.27,0,0,1-.17,3.82,12.17,12.17,0,0,1-2,3.49,12,12,0,0,1-3,2.63,14.53,14.53,0,0,1-3.86,1.64,17.21,17.21,0,0,1-4.56.59,19.57,19.57,0,0,1-6.19-.84,20.25,20.25,0,0,1-6.79-3.69,2.93,2.93,0,0,0-1.71-.83,1.9,1.9,0,0,0-1,.28,3.06,3.06,0,0,0-.95.93,10.1,10.1,0,0,0-.95,1.72c-.33.7-.69,1.59-1.06,2.62a18.72,18.72,0,0,0-1,3.57,2.79,2.79,0,0,0,.25,1.9,6.21,6.21,0,0,0,1.6,1.52,14.75,14.75,0,0,0,3.11,1.64,27.14,27.14,0,0,0,4.64,1.34,30.58,30.58,0,0,0,6.1.55,38,38,0,0,0,9.88-1.31,34.33,34.33,0,0,0,9.11-3.92,31.82,31.82,0,0,0,7.58-6.5,29,29,0,0,0,5.21-9.05,17.51,17.51,0,0,0,1.28-6.84,11.58,11.58,0,0,0-1.35-5.06,12,12,0,0,0-3.16-3.7,32.08,32.08,0,0,0-4.15-2.75c-1.46-.81-2.9-1.57-4.32-2.3a20.51,20.51,0,0,1-3.67-2.33,6.71,6.71,0,0,1-2.17-2.82,5.39,5.39,0,0,1,.19-3.78,10.66,10.66,0,0,1,1.55-2.78,9.63,9.63,0,0,1,2.43-2.24,12.4,12.4,0,0,1,3.23-1.47,14.39,14.39,0,0,1,4-.53,15.5,15.5,0,0,1,4.86.68,18.05,18.05,0,0,1,3.53,1.52,22.62,22.62,0,0,1,2.42,1.54,2.91,2.91,0,0,0,1.52.71,1.64,1.64,0,0,0,1-.31,3.18,3.18,0,0,0,.87-1,13.4,13.4,0,0,0,.85-1.67c.29-.66.63-1.49,1-2.47s.57-1.62.74-2.2a10.11,10.11,0,0,0,.37-1.47,3.8,3.8,0,0,0,0-.93,2.1,2.1,0,0,0-.37-.86,5,5,0,0,0-1.61-1.27,17.4,17.4,0,0,0-3.1-1.37,25.7,25.7,0,0,0-4-.95,28,28,0,0,0-4.52-.35Zm210,0a46.76,46.76,0,0,0-14.89,2.38A47.4,47.4,0,0,0,656,174a51.92,51.92,0,0,0-10.83,10.87,56.71,56.71,0,0,0-7.68,14.44,40.36,40.36,0,0,0-2.78,13.92,19,19,0,0,0,2.76,10.42,17.19,17.19,0,0,0,8.13,6.52,34.19,34.19,0,0,0,13.21,2.25c1.79,0,3.59-.08,5.42-.25s3.68-.42,5.54-.76,3.68-.74,5.47-1.21,3.31-.92,4.57-1.36a6.47,6.47,0,0,0,2.83-1.8,8.82,8.82,0,0,0,1.49-2.66l9.48-26a5.92,5.92,0,0,0,.39-1.8,2.58,2.58,0,0,0-.24-1.34,1.81,1.81,0,0,0-.81-.83,2.8,2.8,0,0,0-1.34-.29H669.53a1.71,1.71,0,0,0-.91.29,3.78,3.78,0,0,0-.92.86,9.1,9.1,0,0,0-.94,1.54,22.49,22.49,0,0,0-1,2.37,10.82,10.82,0,0,0-.91,3.87c.07.76.4,1.14,1,1.14h12.39l-5.53,15.17a23.09,23.09,0,0,1-4.59,1.52,22.28,22.28,0,0,1-4.58.5,18.87,18.87,0,0,1-7.79-1.46,10.26,10.26,0,0,1-4.86-4.36,13.85,13.85,0,0,1-1.57-7.14,30.73,30.73,0,0,1,2.1-9.89,39,39,0,0,1,4.87-9.33,34.87,34.87,0,0,1,6.82-7.23,30.4,30.4,0,0,1,8.27-4.65,28.48,28.48,0,0,1,16.68-.73,29.39,29.39,0,0,1,5.07,2,21.07,21.07,0,0,1,3.17,2,3.37,3.37,0,0,0,1.8.91,1.77,1.77,0,0,0,.87-.25,3.52,3.52,0,0,0,.88-.89,11.68,11.68,0,0,0,1-1.7,23,23,0,0,0,1-2.52,19.26,19.26,0,0,0,1.08-3.82,3,3,0,0,0-.25-2,6.4,6.4,0,0,0-1.79-1.68,16.4,16.4,0,0,0-3.68-1.79,33.79,33.79,0,0,0-5.57-1.41A43.22,43.22,0,0,0,684.15,164.8Zm-413.32.81c-1.72,0-3.07,0-4.07.13a5,5,0,0,0-2.32.68,2.8,2.8,0,0,0-1.15,1.6,15.72,15.72,0,0,0-.54,2.86L256.84,228a5.55,5.55,0,0,0,0,2A1.72,1.72,0,0,0,258,231a8.54,8.54,0,0,0,2.57.51c1.14.08,2.68.12,4.63.12s3.36,0,4.52-.12a11.46,11.46,0,0,0,2.88-.54,4.7,4.7,0,0,0,1.85-1.13,9.46,9.46,0,0,0,1.4-1.9l25-41.46h.1L296.28,228a4.85,4.85,0,0,0,0,2,1.66,1.66,0,0,0,1.06,1.11,8.47,8.47,0,0,0,2.57.51c1.13.08,2.66.12,4.58.12,1.71,0,3.15,0,4.29-.12a13.3,13.3,0,0,0,2.91-.51,5.3,5.3,0,0,0,2-1.11,9,9,0,0,0,1.55-2L351,171a27.78,27.78,0,0,0,1.61-3,1.79,1.79,0,0,0,.11-1.65,2,2,0,0,0-1.54-.68,32.92,32.92,0,0,0-3.41-.13c-1.59,0-2.84,0-3.75.13a8.33,8.33,0,0,0-2.19.46,3.08,3.08,0,0,0-1.28.9,11.55,11.55,0,0,0-.92,1.39l-29.66,50h-.09l5.77-49.76a5,5,0,0,0,0-1.62,1.37,1.37,0,0,0-.8-.93,6.11,6.11,0,0,0-2.06-.43c-1-.07-2.22-.1-3.84-.1s-2.75,0-3.68.13a9.47,9.47,0,0,0-2.32.46,3.56,3.56,0,0,0-1.45.93,9.14,9.14,0,0,0-1.1,1.56l-30,49.76h-.05l6.76-50.11a4.45,4.45,0,0,0,.13-1.49,1,1,0,0,0-.66-.8,5.74,5.74,0,0,0-2-.36c-.91-.05-2.15-.08-3.74-.08Zm157.78,0a29.46,29.46,0,0,0-3.25.15,14.63,14.63,0,0,0-2.19.41,3.69,3.69,0,0,0-1.35.66,2.22,2.22,0,0,0-.67.91l-22.48,61.78a1.15,1.15,0,0,0,0,.91,1.31,1.31,0,0,0,.84.65,8,8,0,0,0,1.9.41,27.12,27.12,0,0,0,3.16.15,30,30,0,0,0,3.29-.15,11.4,11.4,0,0,0,2.16-.41,3.49,3.49,0,0,0,1.34-.65,2.17,2.17,0,0,0,.65-.91l22.49-61.78a1.15,1.15,0,0,0,0-.91,1.43,1.43,0,0,0-.85-.66,8.87,8.87,0,0,0-1.87-.41,27,27,0,0,0-3.18-.15Zm-404.48,0a29.89,29.89,0,0,0-3.3.16,14.52,14.52,0,0,0-2.19.4,3.37,3.37,0,0,0-1.33.66,2.33,2.33,0,0,0-.64.91L2.2,207.53A31,31,0,0,0,0,218.47a13.51,13.51,0,0,0,2.35,7.81A13.24,13.24,0,0,0,8.94,231a31.46,31.46,0,0,0,10.51,1.54,42.32,42.32,0,0,0,12.25-1.72,35.1,35.1,0,0,0,18.45-13A42.6,42.6,0,0,0,55.84,207l14.28-39.23a1.2,1.2,0,0,0,0-.91,1.27,1.27,0,0,0-.82-.66,8.73,8.73,0,0,0-1.85-.4,25.29,25.29,0,0,0-3.11-.16,29.9,29.9,0,0,0-3.26.16,14.05,14.05,0,0,0-2.19.4,3.36,3.36,0,0,0-1.3.66,2.23,2.23,0,0,0-.64.91L42.64,207.12a26.21,26.21,0,0,1-3.17,6.15,20.61,20.61,0,0,1-4.32,4.54,18.07,18.07,0,0,1-5.22,2.81,18.28,18.28,0,0,1-5.95,1,13.26,13.26,0,0,1-5.25-.93,6.93,6.93,0,0,1-3.28-2.81,8.69,8.69,0,0,1-1-4.73,21.87,21.87,0,0,1,1.5-6.75L30,167.74a1.19,1.19,0,0,0,0-.91,1.4,1.4,0,0,0-.85-.66,9.11,9.11,0,0,0-1.87-.4,26.25,26.25,0,0,0-3.13-.16Zm490.51,0a29.69,29.69,0,0,0-3.29.16,12.37,12.37,0,0,0-2.19.4,3.49,3.49,0,0,0-1.34.66,2.31,2.31,0,0,0-.63.91l-14.48,39.78a30.81,30.81,0,0,0-2.18,10.95,13.43,13.43,0,0,0,2.33,7.81,13.27,13.27,0,0,0,6.6,4.68A31.4,31.4,0,0,0,510,232.5a42.44,42.44,0,0,0,12.26-1.71,35.11,35.11,0,0,0,18.44-13A42.46,42.46,0,0,0,546.35,207l14.29-39.23a1.11,1.11,0,0,0-.8-1.57,7.75,7.75,0,0,0-1.85-.4,25.52,25.52,0,0,0-3.11-.16,29.9,29.9,0,0,0-3.26.16,12.16,12.16,0,0,0-2.2.4,3.43,3.43,0,0,0-1.3.66,2.31,2.31,0,0,0-.63.91l-14.33,39.38a26.6,26.6,0,0,1-3.17,6.15,21.07,21.07,0,0,1-4.32,4.54,17.6,17.6,0,0,1-5.22,2.81,18.43,18.43,0,0,1-6,1,13.23,13.23,0,0,1-5.24-.94,6.88,6.88,0,0,1-3.28-2.81,8.49,8.49,0,0,1-1-4.73,21.82,21.82,0,0,1,1.49-6.75l14.06-38.62a1.15,1.15,0,0,0,0-.91,1.41,1.41,0,0,0-.84-.66,8,8,0,0,0-1.88-.4,26.13,26.13,0,0,0-3.13-.16Zm113.69.1c-1.22,0-2.23,0-3,.13a8.46,8.46,0,0,0-2,.43A4,4,0,0,0,622,167a2.23,2.23,0,0,0-.64.91l-11.18,30.69q-1.26,3.49-2.58,7.33t-2.46,7.38h0c-.12-1.35-.24-2.7-.4-4s-.31-2.72-.47-4.12-.36-2.8-.58-4.2-.43-2.82-.64-4.28l-4-23.91a18.82,18.82,0,0,0-.67-3.31,5.24,5.24,0,0,0-1.18-2.09,4.33,4.33,0,0,0-2-1.1,12,12,0,0,0-3.11-.32h-7.13a7,7,0,0,0-3.85,1.18,6.86,6.86,0,0,0-2.68,3.57L557,229.47a1.47,1.47,0,0,0-.09.91,1.17,1.17,0,0,0,.66.68,5.79,5.79,0,0,0,1.67.44,24.23,24.23,0,0,0,2.87.15,28.27,28.27,0,0,0,3-.15,9.89,9.89,0,0,0,2-.44,3.37,3.37,0,0,0,1.21-.68,2.41,2.41,0,0,0,.6-.91l12.47-34.23c.93-2.56,1.8-5.05,2.61-7.45s1.59-4.83,2.34-7.26h.1c0,2,.18,4,.39,6.15s.45,4.06.73,5.88l5.15,30.59a35.12,35.12,0,0,0,.77,4.12,7.21,7.21,0,0,0,1.18,2.52,3.88,3.88,0,0,0,1.91,1.3,10.1,10.1,0,0,0,2.94.35h5.65a7.53,7.53,0,0,0,2-.28,6.58,6.58,0,0,0,1.95-.88,8,8,0,0,0,1.63-1.51,7.15,7.15,0,0,0,1.16-2.08l21.4-58.8a1.4,1.4,0,0,0,.08-.91,1.24,1.24,0,0,0-.63-.71,4.28,4.28,0,0,0-1.64-.43,26.73,26.73,0,0,0-2.82-.13Zm-472,.21a5.69,5.69,0,0,0-3.18,1,6.29,6.29,0,0,0-2.3,3.21l-20.76,57c-.53,1.49-.54,2.56,0,3.21a2.92,2.92,0,0,0,2.44,1h32.86a2,2,0,0,0,.95-.28,3.45,3.45,0,0,0,.94-.88,9,9,0,0,0,1-1.6,23.7,23.7,0,0,0,1-2.45,22.93,22.93,0,0,0,.77-2.45,6.17,6.17,0,0,0,.2-1.6,1.34,1.34,0,0,0-.31-.88,1,1,0,0,0-.73-.27H145.57l6.71-18.46h19.77a2,2,0,0,0,.93-.25,3.21,3.21,0,0,0,.93-.84,7.67,7.67,0,0,0,.94-1.54,22.89,22.89,0,0,0,1-2.42,20.08,20.08,0,0,0,.75-2.41,5.17,5.17,0,0,0,.19-1.56,1.24,1.24,0,0,0-.32-.86,1,1,0,0,0-.73-.28H156l5.8-16h23.36a1.7,1.7,0,0,0,.92-.28,3.73,3.73,0,0,0,.93-.88,9.92,9.92,0,0,0,.95-1.6,23.11,23.11,0,0,0,1-2.4,21.7,21.7,0,0,0,.79-2.5,6.34,6.34,0,0,0,.21-1.62,1.26,1.26,0,0,0-.29-.88,1,1,0,0,0-.71-.25Zm54.86,0a5.6,5.6,0,0,0-3.16,1,6.24,6.24,0,0,0-2.31,3.21l-21.62,59.41a1.25,1.25,0,0,0,0,.91,1.3,1.3,0,0,0,.83.66,8.3,8.3,0,0,0,1.9.4,26.38,26.38,0,0,0,3.15.16,29.69,29.69,0,0,0,3.29-.16,12.68,12.68,0,0,0,2.17-.4,3.75,3.75,0,0,0,1.33-.66,2.19,2.19,0,0,0,.66-.91l9.07-24.93h4.15a8.19,8.19,0,0,1,3.5.66,5,5,0,0,1,2.15,1.95,9.18,9.18,0,0,1,1.07,3.21,43.23,43.23,0,0,1,.48,4.4l.55,14.61a2.92,2.92,0,0,0,.12,1,1.29,1.29,0,0,0,.78.71,6,6,0,0,0,1.85.38c.83.07,1.94.11,3.36.11,1.69,0,3,0,4-.11a11.32,11.32,0,0,0,2.35-.35,2.61,2.61,0,0,0,1.2-.63,2.86,2.86,0,0,0,.54-.94,5.71,5.71,0,0,0,.25-1.39,27.52,27.52,0,0,0,0-2.81L232,212.53a33.94,33.94,0,0,0-.45-4.17,15.36,15.36,0,0,0-1-3.29,8.18,8.18,0,0,0-1.53-2.44,8.51,8.51,0,0,0-2.13-1.72,32.17,32.17,0,0,0,6.33-2.53,27.42,27.42,0,0,0,5.34-3.7,25.25,25.25,0,0,0,4.21-4.82,27.78,27.78,0,0,0,3-6,19.5,19.5,0,0,0,1.35-6.91,10,10,0,0,0-1.47-5.2,10.1,10.1,0,0,0-4.07-3.56,20.27,20.27,0,0,0-6.4-1.93c-.87-.1-1.85-.18-2.94-.25s-2.49-.1-4.21-.1Zm159.74,0a5.66,5.66,0,0,0-3.17,1,6.29,6.29,0,0,0-2.3,3.21l-20.76,57c-.54,1.49-.55,2.56,0,3.21a3,3,0,0,0,2.46,1h32.86a1.92,1.92,0,0,0,.94-.28,3.31,3.31,0,0,0,.94-.88,7.93,7.93,0,0,0,1-1.6,21.51,21.51,0,0,0,1-2.45h0a22.93,22.93,0,0,0,.77-2.45,5.7,5.7,0,0,0,.19-1.6,1.24,1.24,0,0,0-.31-.88,1,1,0,0,0-.73-.27H360.17l6.72-18.46h19.76a1.91,1.91,0,0,0,.93-.25,3.11,3.11,0,0,0,.94-.84,8.16,8.16,0,0,0,.94-1.54,22.89,22.89,0,0,0,1-2.42,21.76,21.76,0,0,0,.74-2.41,5.24,5.24,0,0,0,.2-1.56,1.28,1.28,0,0,0-.32-.86,1,1,0,0,0-.73-.28H370.59l5.81-16h23.35a1.76,1.76,0,0,0,.93-.28,3.71,3.71,0,0,0,.92-.88,8.13,8.13,0,0,0,.95-1.6,22.78,22.78,0,0,0,1-2.4,23.07,23.07,0,0,0,.77-2.5,5.92,5.92,0,0,0,.21-1.62,1.26,1.26,0,0,0-.28-.88,1,1,0,0,0-.72-.25Zm-277.34,0a5.71,5.71,0,0,0-3.17,1,6.3,6.3,0,0,0-2.31,3.21l-20.76,57c-.53,1.49-.55,2.55,0,3.21a2.93,2.93,0,0,0,2.45,1h17.4a52.21,52.21,0,0,0,7.32-.48,41.43,41.43,0,0,0,6.59-1.49,36.68,36.68,0,0,0,6.12-2.58,29.57,29.57,0,0,0,5.41-3.73,29.15,29.15,0,0,0,4.47-5,27,27,0,0,0,3.27-6.32,17.19,17.19,0,0,0,1.18-6,10.54,10.54,0,0,0-1.06-4.67,8.53,8.53,0,0,0-2.91-3.26A12.18,12.18,0,0,0,113,196a22.78,22.78,0,0,0,4.65-2.13,22.21,22.21,0,0,0,4-3,23.12,23.12,0,0,0,3.15-3.81,22.6,22.6,0,0,0,2.24-4.48,16.28,16.28,0,0,0,1.17-7.38,8.34,8.34,0,0,0-2.49-5.18,13.12,13.12,0,0,0-5.92-3.06,38.87,38.87,0,0,0-9.81-1Zm5.48,10h6.72a15.49,15.49,0,0,1,4.72.55A5.25,5.25,0,0,1,113,178a4.13,4.13,0,0,1,.87,2.6,10.06,10.06,0,0,1-.67,3.54,13.78,13.78,0,0,1-1.79,3.36,12.76,12.76,0,0,1-2.71,2.78,12.29,12.29,0,0,1-3.53,1.87,15.12,15.12,0,0,1-4.86.69H92.84Zm117.78.2h6a30.89,30.89,0,0,1,3.52.16,14.76,14.76,0,0,1,2.14.39c2,.62,3.23,1.65,3.67,3.14a8.83,8.83,0,0,1-.52,5.46,14.17,14.17,0,0,1-2.11,3.84,13.29,13.29,0,0,1-3.2,3A15.21,15.21,0,0,1,222,194a18.54,18.54,0,0,1-5.2.68h-6.77ZM89.3,202.58h7.89a19.65,19.65,0,0,1,5.68.65,6.62,6.62,0,0,1,3.07,1.87,5,5,0,0,1,1.11,3,10.13,10.13,0,0,1-.71,4.07,13,13,0,0,1-2.19,3.87,13.62,13.62,0,0,1-3.21,2.82A14.23,14.23,0,0,1,97,220.6a18.29,18.29,0,0,1-4.87.57H82.54Z"/></g></svg>