<svg viewBox="0 0 750 471" xmlns="http://www.w3.org/2000/svg"><g fill="none" fill-rule="evenodd"><rect fill="#0E4595" width="750" height="471" rx="40"/><path d="M278 334l34-196h53l-33 196h-54zm246-191c-10-4-27-9-48-9-52 0-89 27-90 65 0 28 27 44 47 53 21 10 28 16 28 25 0 13-17 19-32 19-22 0-33-3-50-11l-7-3-8 44c13 6 36 10 60 11 56 0 92-27 93-67 0-23-14-40-45-54-19-9-30-15-30-24 0-8 9-17 30-17 18 0 30 4 40 8l5 2 7-42m138-5h-42c-12 0-22 4-28 17l-79 179h56l11-29h69l6 29h50l-43-196zm-66 127l21-55 8-19 3 17 12 57h-44zM233 138l-52 134-6-27c-10-31-40-65-74-82l48 171h56l84-196h-56" fill="#FFF"/><path d="M132 138H46l-1 5c67 16 111 55 130 102l-19-90c-3-12-12-16-24-17" fill="#F2AE14"/></g></svg>