<svg id="Layer_1" data-name="Layer 1" xmlns="http://www.w3.org/2000/svg" viewBox="0 0 750 212" preserveAspectRatio="xMidYMid meet"><defs><style>.cls-1{fill:#2e3233}.cls-2{fill:#9de60b}</style></defs><path class="cls-1" d="M492 67c17-4 36 0 47 14 5 5 7 12 8 19h-21c-3-15-25-21-36-11-8 9-9 21-7 33 1 8 5 18 14 22 12 4 27-4 29-18l22 1c-2 13-8 26-21 32-20 8-48 6-60-15 2-8 4-17 2-25-1-7-4-12-6-18 0-17 14-31 29-34z"/><path class="cls-2" d="M274 70l24-1c4 21 7 42 13 62l13-51c1-5 5-11 11-10 7-1 11 5 12 10l13 51c6-20 9-41 14-61h23l-21 77c-1 6-4 13-11 16-8 2-15-5-17-12l-13-47c-3 16-7 31-12 46-1 7-7 14-15 13-7-1-11-8-13-15l-21-78z"/><path class="cls-1" d="M552 70h22v23c11 0 24-3 34 3 9 5 14 15 14 25v42h-20v-40c0-5-3-9-8-10h-21v50h-21V70zm162 0h20v21h16v15h-16v36c4 4 10 4 15 5v16c-11 0-27 2-33-11-5-14-1-31-2-46h-15V91h15V70z"/><path class="cls-2" d="M462 132c1-14-2-29-14-37-16-10-41-8-51 8-9 15-9 36 3 49 11 13 31 14 46 7 8-3 13-11 16-19h-20c-6 7-16 10-24 5-5-2-6-8-8-13h52zm-52-14c2-7 8-14 16-12 8-2 14 5 16 12h-32z"/><path class="cls-1" d="M695 114c0-12-11-22-23-24s-26-1-35 7c-6 4-7 10-9 16h19c3-10 17-11 25-6 3 3 3 7 4 11-13 0-27-2-39 5-10 6-12 22-6 32 4 7 13 8 20 8h44v-49zm-47 30c-1-4 1-7 2-10 8-2 17-2 25-2v17c-9-1-20 2-27-5z"/><path class="cls-2" d="M145 13C118-2 85-4 57 6c-19 7-36 20-47 37C1 58-3 77 2 95c5 20 18 36 35 47l-9 27 31-16a116 116 0 0039 5 67 67 0 01-3-31c3-15 11-28 21-38 19-17 45-25 70-23-5-22-21-42-41-53zM74 54c-2 9-14 14-21 8-8-6-6-20 4-23 9-4 20 6 17 15zm64-2c0 10-13 16-21 10s-6-20 4-23c8-3 18 4 17 13z"/><path class="cls-1" d="M251 114c-7-15-19-26-33-33a91 91 0 00-82 0c-17 9-31 25-36 44-3 14 0 30 8 42 11 19 31 31 53 35 15 3 31 1 46-3 9 3 17 9 25 13l-7-22c10-7 19-16 24-27a57 57 0 002-49zm-88 6c-2 7-12 9-17 3-5-5-3-15 4-17 8-3 17 6 13 14zm51 1c-2 6-12 7-16 2l-4-7c1-5 5-10 10-10 8-2 14 8 10 15z"/></svg>