<svg id="Layer_1" data-name="Layer 1" xmlns="http://www.w3.org/2000/svg" viewBox="0 0 750 212.01" preserveAspectRatio="xMidYMid meet"><defs><style>.cls-1{fill:#2e3233;}.cls-2{fill:#9de60b;}</style></defs><title>wechat</title><path class="cls-1" d="M492.35,67.19c16.29-3.93,36.11-.27,46.75,13.64,4.53,5.45,6.45,12.4,8.14,19.16-7.16.11-14.35.11-21.5.11-3.12-15.41-24.28-21.57-35.51-11-7.91,8.61-9.34,21.4-7.7,32.57,1.75,8.56,5.2,18.52,14,22.07,12.6,4.7,27.48-3.69,29.17-17.26,7.29,0,14.61,0,21.93.14-1.52,13.05-7.82,26.64-20.59,32-19.83,8.61-48.21,6-59.69-14.48,1.82-8.36,3.86-17.07,2-25.62C468.3,112.17,465,106.6,463,100.6c0-16.32,14-30.19,29.39-33.41Z"/><path class="cls-2" d="M274.09,69.57c7.84-.06,15.68-.06,23.52-.09,4.66,20.57,7.25,41.62,12.93,62,5.7-16.87,8.34-34.57,13.19-51.68,1.43-5.19,5.5-10.66,11.45-10.28,6.46-.77,10.84,5.21,12.16,10.84C352,97.15,355,114.39,360.18,131.1c5.94-20.16,9.19-40.95,13.53-61.5,7.66-.09,15.3-.09,23,0-6.41,25.79-13.66,51.36-20.23,77.11-1.62,6.41-4.43,13.73-11.3,16.1-7.77,1.77-14.82-4.41-16.7-11.62-4.84-15.45-8.35-31.32-13.12-46.82-3.84,15.41-7.77,30.78-12,46.07-1.59,6.84-7.59,13.87-15.3,12.51-7.43-.85-11.09-8.23-12.72-14.69-7-26.23-14.19-52.44-21.21-78.67Z"/><path class="cls-1" d="M552.42,69.55l21.09,0c0,7.72-.11,15.45.5,23.13,11.3.8,23.69-2.41,34.1,3.32,9,4.82,14.16,15,14.09,25.05.14,14-.05,28,0,42q-10.26.06-20.48.08c-.14-13.43.16-26.86-.06-40.29.27-4.55-3-9.3-7.64-9.82-6.82-.87-13.71-.41-20.55-.28,0,16.78,0,33.57,0,50.37q-10.54,0-21.07,0c0-31.16,0-62.3,0-93.46Zm161.6,0h20c0,7,0,14,0,21,5.34,0,10.68,0,16,0,0,5.18,0,10.39,0,15.57H733.77c.41,11.86-.89,23.86.68,35.68,3.59,4.43,9.93,3.8,15,5.23-.06,5.3-.09,10.59-.09,15.91-11.47.25-27.16,1.75-33-10.73-5.08-14.7-1.28-30.79-2.41-46-5.14,0-10.28-.07-15.41-.14,0-5.14,0-10.28,0-15.39,5.19-.06,10.37-.11,15.57-.13Q714,80,714,69.53Z"/><path class="cls-2" d="M462.37,131.69c.37-13.43-2.62-28.59-14.5-36.64-15.55-9.88-40.43-8.54-50.91,8.16-8.76,14.73-9.23,35.59,2.63,48.85C411,164.9,431.1,165.58,446,159.15c8.21-3.34,12.73-11.32,15.82-19.14q-9.81-.31-19.64-.09c-5.79,6.88-16,9.66-24.13,5.34-5.16-2.5-6.21-8.54-7.82-13.41,17.38-.27,34.77,0,52.16-.16Zm-52.69-14c2.34-7.16,8.25-13.41,16.46-12.12,8.09-1.31,13.59,5.21,15.86,12.14q-16.15.48-32.32,0Z"/><path class="cls-1" d="M695,114c-.4-12.44-11.38-22.25-23.36-23.53s-25.3-1.22-35.1,6.64c-5.2,3.77-6.86,10.25-8.2,16.18,6.11.17,12.23.19,18.36.14,3.48-10.41,17.1-11.73,25.28-6.36,3.09,2.59,2.82,7,3.7,10.56-12.81.51-26.91-2-38.29,5.41-10.84,6.37-12.82,22-6.53,32.17,4.41,6.61,13,7.84,20.37,7.82,14.64.06,29.27,0,43.91,0C695,146.65,695.45,130.3,695,114Zm-47,29.93c-1-3.59,1.08-6.87,2.27-10.07,8.13-1.84,16.5-2.09,24.84-1.91,0,5.71,0,11.39,0,17.1-9-.58-20.15,2.29-27.14-5.12Z"/><path class="cls-2" d="M145,13.23C118.42-1.72,85.33-4,56.75,6.35,38,13.11,21,25.67,10.48,42.78,1,58.21-2.61,77.45,2,95.1c4.6,19.6,18.18,36,34.72,47-3.11,9-6.18,18.09-9.07,27.2,10.46-5.43,20.79-11.09,31.21-16.62a115.88,115.88,0,0,0,39,5.53,67,67,0,0,1-2.69-31.44c2.5-14.59,10.39-27.94,21.29-37.83,18.36-17.2,44.39-24.46,69.16-22.71C181,43.51,165,24.31,145,13.23ZM73.8,54.42C72,63.31,60,67.6,53.06,61.64,45,56,47.25,41.82,56.74,39,66,35.39,76.59,44.83,73.8,54.42Zm64.49-2.58c.08,10.24-13.56,16.62-21.23,9.67-8-5.7-5.7-19.56,3.64-22.44,8.35-3.28,18.24,3.76,17.59,12.77Z"/><path class="cls-1" d="M250.61,114c-6.48-14.68-18.71-26.31-32.91-33.5a90.58,90.58,0,0,0-81.21.29c-17.37,8.93-31.86,24.9-36,44.33-3.4,14.3-.34,29.7,7.23,42.18C119,186,139.44,198,160.67,201.79c15.37,3.13,31.26,1.29,46.18-3,8.94,3.49,17,9.11,25.63,13.27q-3.33-11.26-7.17-22.36c9.71-6.94,18.56-15.55,23.89-26.38a57.19,57.19,0,0,0,1.41-49.3Zm-87.21,5.61c-2.2,6.93-12.32,9-17.18,3.73-5.38-4.88-3.29-15.1,3.76-17.27,7.84-3.3,16.85,5.71,13.42,13.54Zm51,1c-2.68,6.25-12,7.69-16.65,2.85-2.24-2-2.79-5.06-3.68-7.76,1.19-4.87,4.44-9.93,10-10.15C211.73,104.43,218.44,113.71,214.45,120.54Z"/></svg>