<svg viewBox="0 0 34 30" fill="none" xmlns="http://www.w3.org/2000/svg"><g clip-path="url(#a)"><path d="M0 2.176v24.998c0 1.197.98 2.176 2.176 2.176h14.936c11.292 0 16.187-6.32 16.187-14.708C33.299 6.3 28.404 0 17.112 0H2.176C.979 0 0 .98 0 2.176Z" fill="#fff"/><path d="M9.997 6.135v18.472h8.04c7.299 0 10.465-4.123 10.465-9.954 0-5.58-3.166-9.91-10.466-9.91H11.39c-.773 0-1.393.63-1.393 1.392Z" fill="#C06"/><path d="M17.112 27.36H4.123a2.09 2.09 0 0 1-2.089-2.09V4.09a2.09 2.09 0 0 1 2.089-2.088h12.989c12.325 0 14.164 7.93 14.164 12.651 0 8.192-5.037 12.706-14.164 12.706ZM4.123 2.697c-.772 0-1.392.62-1.392 1.392v21.18c0 .773.62 1.393 1.392 1.393h12.989c8.68 0 13.467-4.264 13.467-12.01 0-10.4-8.441-11.955-13.467-11.955H4.123Z" fill="#000"/><path d="M12.826 12.162c.282 0 .544.044.794.13.25.088.457.23.642.403.174.185.315.413.424.675.098.272.152.587.152.957 0 .326-.043.62-.12.892a2.081 2.081 0 0 1-.37.707c-.163.196-.37.348-.62.468-.25.109-.543.174-.88.174h-1.904V12.15h1.882v.011Zm-.066 3.6c.142 0 .272-.02.414-.064.13-.044.25-.12.348-.229.098-.109.185-.24.25-.413.065-.174.098-.37.098-.62 0-.218-.022-.425-.065-.599a1.191 1.191 0 0 0-.218-.457.982.982 0 0 0-.391-.293 1.603 1.603 0 0 0-.599-.098h-.696v2.785h.86v-.011ZM18.765 12.162v.816h-2.328v.946h2.143v.751h-2.143v1.077h2.383v.816h-3.35V12.15h3.295v.011ZM22.094 12.162l1.654 4.417h-1.012l-.337-.98h-1.654l-.348.98h-.979l1.664-4.417h1.012Zm.054 2.709-.554-1.621h-.011l-.577 1.62h1.142ZM25.325 12.162v3.6h2.154v.817h-3.122v-4.417h.968Z" fill="#fff"/><path d="M6.364 16.405a2.034 2.034 0 1 0 0-4.069 2.034 2.034 0 0 0 0 4.069ZM7.898 24.607a3.076 3.076 0 0 1-3.079-3.078v-2.405c0-.848.685-1.544 1.545-1.544.848 0 1.545.685 1.545 1.544v5.483h-.011Z" fill="#000"/></g><defs><clipPath id="a"><path fill="#fff" d="M0 0h33.299v29.35H0z"/></clipPath></defs></svg>
