<svg viewBox="0 0 25 22" fill="none" xmlns="http://www.w3.org/2000/svg"><path d="M2.045 2.045v17.937h10.447c6.91 0 9.895-3.869 9.895-8.982 0-5.113-3.04-8.955-9.895-8.955H2.045Z" fill="#fff"/><path fill-rule="evenodd" clip-rule="evenodd" d="M12.492 3.179H3.178v15.67h9.314c5.362 0 8.762-2.625 8.762-7.849 0-4.367-2.432-7.822-8.762-7.822Zm-8.43 14.786V4.118h8.43c4.865 0 7.85 2.211 7.85 6.91 0 4.56-2.764 6.937-7.85 6.937h-8.43Z" fill="#000"/><path d="M5.196 11.995h2.708v4.81H5.196v-4.81ZM6.55 11.276a1.686 1.686 0 1 0 0-3.372 1.686 1.686 0 0 0 0 3.372Z" fill="#000"/><path fill-rule="evenodd" clip-rule="evenodd" d="M17.274 8.043h.774v2.321h1.133c-.304-4.228-3.648-5.168-6.689-5.168H9.26v2.847h.47c.884 0 1.41.58 1.41 1.547 0 .968-.526 1.548-1.383 1.548H9.26v5.666h3.233c4.948 0 6.633-2.294 6.716-5.666h-1.934V8.043Zm-3.732 2.321v.774h-1.934V8.043h1.879v.774h-1.105v.359h1.05v.774h-1.023v.414h1.133Zm.332.774.94-3.095h1.105l.94 3.095h-.802l-.165-.58h-1.023l-.166.58h-.83Zm1.224-1.381h-.008v.027l.008-.027Zm0 0h.545l-.25-.857h-.027l-.268.857Zm-5.84.607V8.816h.47c.304 0 .636.083.636.774 0 .691-.304.774-.636.774h-.47Z" fill="#D50072"/></svg>
