<svg
	version="1.0"
	xmlns="http://www.w3.org/2000/svg"
	width="64"
	height="40"
	viewBox="0 0 600.000000 227.000000"
	>
<g
transform="translate(100.000000,220.000000) scale(0.080000,-0.080000)"
fill="#000000"
stroke="none"
>
<path d="M847 2260 c-136 -43 -185 -219 -91 -328 92 -108 263 -89 333 37 70 126 -19 289 -161 297 -29 2 -66 -1 -81 -6z" />
<path d="M0 1140 l0 -1110 183 2 182 3 3 1108 2 1107 -185 0 -185 0 0 -1110z" />
<path
	d="M3520 1325 l0 -926 -37 -17 c-23 -10 -66 -16 -108 -17 -57 0 -76 4
-102 23 -57 40 -61 71 -67 437 -5 360 -17 454 -70 570 -80 175 -287 274 -493
233 -276 -54 -470 -224 -738 -649 l-90 -142 -3 386 -2 387 -180 0 -180 0 0
-790 0 -790 169 0 169 0 37 87 c111 258 297 589 438 778 236 317 454 432 530
280 31 -63 39 -145 47 -455 6 -255 11 -325 25 -370 79 -253 292 -379 575 -342
239 32 438 144 688 387 77 75 136 125 140 119 4 -6 74 -117 155 -247 l148
-237 204 0 c126 0 206 4 210 10 3 6 -104 187 -239 403 l-246 393 80 121 c99
152 212 347 295 514 36 71 65 131 65 134 0 3 -91 5 -202 5 l-203 -1 -74 -137
c-139 -259 -313 -514 -486 -713 l-80 -91 -5 788 -5 789 -182 3 -183 2 0 -925z"
/>
<path d="M730 820 l0 -790 180 0 180 0 0 790 0 790 -180 0 -180 0 0 -790z" />
</g>
	</svg>
