<svg width="64" height="40" fill="none" xmlns="http://www.w3.org/2000/svg"><path d="M0 4a4 4 0 0 1 4-4h56a4 4 0 0 1 4 4v32a4 4 0 0 1-4 4H4a4 4 0 0 1-4-4V4Z" fill="#fff"/><path fill-rule="evenodd" clip-rule="evenodd" d="M8 10h1v20H8V10Zm2 0h3v20h-3V10Zm5 0h-1v20h1V10Zm9 0h1v20h-1V10Zm4 0h-1v20h1V10Zm-12 0h1v20h-1V10Zm19 0h-1v20h1V10Zm7 0h-1v20h1V10Zm3 0h1v20h-1V10Zm3 0h-1v20h1V10Zm1 0h3v20h-3V10Zm6 0h1v20h-1V10Zm-1 0h-1v20h1V10Zm-17 0h3v20h-3V10Zm-5 0h-3v20h3V10Zm-10 0h1v20h-1V10Zm-1 0h-3v20h3V10Z" fill="#000"/><path d="M4 1h56v-2H4v2Zm59 3v32h2V4h-2Zm-3 35H4v2h56v-2ZM1 36V4h-2v32h2Zm3 3a3 3 0 0 1-3-3h-2a5 5 0 0 0 5 5v-2Zm59-3a3 3 0 0 1-3 3v2a5 5 0 0 0 5-5h-2ZM60 1a3 3 0 0 1 3 3h2a5 5 0 0 0-5-5v2ZM4-1a5 5 0 0 0-5 5h2a3 3 0 0 1 3-3v-2Z" fill="#DDD"/></svg>