<svg id="Layer_1" data-name="Layer 1" xmlns="http://www.w3.org/2000/svg" viewBox="0 0 750 886" preserveAspectRatio="xMidYMid meet"><defs><style>.cls-2{fill:#434142}</style></defs><g id="g14"><g id="g20"><path id="path22" d="M371 714h307c70 0 71-75 64-111-4-25-46-25-51 0v28a24 24 0 01-23 24H79a24 24 0 01-24-24v-28c-5-25-47-25-51 0-7 36-6 111 64 111h303zM154 0h474c33 0 60 29 60 64v31c0 43-59 43-59 0V78a19 19 0 00-19-19H136a19 19 0 00-20 19v17c0 43-56 42-56 0V64c0-35 28-64 61-64z" fill="#2c6cae"/></g><g id="g24"><path id="path26" class="cls-2" d="M676 352c33 15 56 47 56 84 0 51-45 93-100 93H477c-14 0-26-11-26-24V211a26 26 0 0126-25h128c54 0 99 44 99 98a98 98 0 01-28 68m-115-24h49v-1a47 47 0 0040-46 47 47 0 00-47-46h-99v243h125a48 48 0 100-96h-68a27 27 0 110-54"/></g><g id="g28"><path id="path30" class="cls-2" d="M174 804a8 8 0 0116 0v45a37 37 0 01-37 37 37 37 0 01-37-37v-45a8 8 0 0116 0v45a21 21 0 0021 20 21 21 0 0021-20z"/></g><g id="g32"><path id="path34" class="cls-2" d="M252 869a8 8 0 110 17h-23a31 31 0 01-31-31v-51a8 8 0 1116 0v51a15 15 0 0015 14h23z"/></g><g id="g36"><path id="path38" class="cls-2" d="M427 500a31 31 0 11-62 6l-25-233-90 228v1l-1 1v1l-1 1a31 31 0 01-6 8l-1 1a31 31 0 01-5 3l-1 1h-1v1h-3v1a31 31 0 01-9 1h-2a31 31 0 01-10-2h-2v-1h-2v-1a31 31 0 01-5-3l-1-1-1-1h-1l-1-1v-1a31 31 0 01-3-4v-1l-1-1v-1l-1-1-90-229-25 233a31 31 0 11-62-6l30-275a52 52 0 0144-46h2a53 53 0 018 0 53 53 0 019 1 51 51 0 0136 31l77 195 77-195a51 51 0 0136-31 52 52 0 019-1 53 53 0 018 0h2a51 51 0 0138 27 52 52 0 014 9 51 51 0 012 10z"/></g><g id="g40"><path id="path42" class="cls-2" d="M113 877a8 8 0 11-17 2l-7-60-25 59a8 8 0 01-15 0l-25-59-8 60a8 8 0 11-16-2l8-70a13 13 0 018-10 15 15 0 011-1h1a15 15 0 012 0 14 14 0 0112 3 14 14 0 013 4 7 7 0 010 1l21 49 22-49a14 14 0 0110-8 15 15 0 012 0 16 16 0 012 0 14 14 0 0111 6 13 13 0 011 3 12 12 0 010 1 8 8 0 010 1z"/></g><g id="g44"><path id="path46" class="cls-2" d="M288 878a8 8 0 01-17 0v-66h-23a8 8 0 010-16h63a8 8 0 010 16h-23z"/></g><g id="g48"><path id="path50" class="cls-2" d="M339 878a8 8 0 01-16 0v-74a8 8 0 1116 0z"/></g><g id="g52"><path id="path54" class="cls-2" d="M509 877a8 8 0 11-16 2l-3-24h-29a8 8 0 110-16h27l-1-6v-1a32 32 0 00-1-4 28 28 0 00-2-5c-3-6-9-11-16-11h-1a18 18 0 00-4 1 17 17 0 00-3 1c-7 3-11 10-12 19l-5 46a8 8 0 11-16-2l5-46c1-14 9-26 20-32a33 33 0 017-2 34 34 0 018-1h1c14 0 25 8 31 20a44 44 0 013 7 47 47 0 011 7 7 7 0 010 1z"/></g><g id="g56"><path id="path58" class="cls-2" d="M534 878a8 8 0 01-16 0v-69a8 8 0 010-1 11 11 0 011-3 14 14 0 010-1 12 12 0 017-6 10 10 0 011 0h1a13 13 0 012 0 12 12 0 019 4l44 56v-54a8 8 0 1116 0v68a12 12 0 01-4 9 12 12 0 01-2 1l-1 1a12 12 0 01-9 0 7 7 0 01-1-1 12 12 0 01-2-1 10 10 0 01-1-1v-1l-44-56z"/></g><g id="g60"><path id="path62" class="cls-2" d="M664 869a8 8 0 110 17h-25a33 33 0 01-32-33v-25a33 33 0 0132-32h25a8 8 0 110 16h-25a16 16 0 00-16 16v25a16 16 0 0016 16h25z"/></g><g id="g64"><path id="path66" class="cls-2" d="M711 812a23 23 0 00-15 6 20 20 0 00-7 15v16a20 20 0 007 14 23 23 0 0015 6 23 23 0 0016-6 20 20 0 006-15v-15a20 20 0 00-6-15 23 23 0 00-16-6m0-16a39 39 0 0128 11 37 37 0 0111 26v15a37 37 0 01-11 27 39 39 0 01-28 11 39 39 0 01-27-11 37 37 0 01-11-26v-16a37 37 0 0111-26 39 39 0 0127-11z"/></g><g id="g68"><path id="path70" class="cls-2" d="M363 812v57h32a10 10 0 0010-10 10 10 0 00-2-7h-1a10 10 0 00-7-3h-11a8 8 0 110-17h4a10 10 0 006-3 10 10 0 003-7 10 10 0 00-10-10h-24zm-17 28v-36a8 8 0 011-3 8 8 0 012-3 8 8 0 016-2h32a26 26 0 0126 26 26 26 0 01-4 14 27 27 0 015 4 27 27 0 018 19 27 27 0 01-27 27h-40a8 8 0 01-9-9z"/></g></g></svg>