<svg version="1.1" width="190" height="120" viewBox="0 0 190 120" fill="none" x="0" y="0" xmlns="http://www.w3.org/2000/svg">
	<path d="M95.5 0C81.3705 17.2714 63.439 22.9668 43 22.9668V45.5058C43 85.1182 69.4395 108.015 95.5 115C121.56 108.021 148 85.1246 148 45.5058V22.9668C127.561 22.9668 109.629 17.2714 95.5 0Z" fill="#CCCCCC"/>
	<path d="M43 45.5058C43 85.1182 69.4395 108.015 95.5 115L43 22.9668V45.5058Z" fill="#BBBBBB"/>
	<path d="M92.3915 75.5909L77.4106 57.0885L81.79 54.7287L92.2749 67.679L114.306 39L117.755 42.2741L92.3915 75.5909Z" fill="white"/>
	<path fill-rule="evenodd" clip-rule="evenodd" d="M117 86.1765C117 82.7653 119.765 80 123.176 80H150.824C154.235 80 157 82.7653 157 86.1765V113.824C157 117.235 154.235 120 150.824 120H123.176C119.765 120 117 117.235 117 113.824V86.1765Z" fill="#635BFF"/>
	<path fill-rule="evenodd" clip-rule="evenodd" d="M135.441 95.5501C135.441 94.6101 136.211 94.2401 137.491 94.2401C139.331 94.2401 141.651 94.8001 143.491 95.7901V90.1101C141.584 89.3575 139.55 88.9806 137.501 89.0001C132.591 89.0001 129.331 91.5601 129.331 95.8401C129.331 102.51 138.521 101.45 138.521 104.33C138.521 105.44 137.551 105.8 136.201 105.8C134.191 105.8 131.631 104.98 129.601 103.87V109.62C131.684 110.524 133.93 110.993 136.201 111C141.231 111 144.691 108.51 144.691 104.18C144.651 96.9801 135.441 98.2601 135.441 95.5501Z" fill="white"/>
</svg>
