<svg width="28" height="11" viewBox="0 0 28 11" fill="none" xmlns="http://www.w3.org/2000/svg">
	<g clip-path="url(#clip0_3255_2345)">
		<path fill-rule="evenodd" clip-rule="evenodd" d="M2.22393 10.0526C1.88299 10.0526 1.70931 9.88472 1.70931 9.60875C1.70931 9.09413 2.28311 8.92109 3.32972 8.8098C3.32972 9.49553 2.86592 10.0526 2.22071 10.0526H2.22393ZM2.67422 6.19618C1.92609 6.19618 1.06603 6.54805 0.599016 6.92051L1.02551 7.82109C1.39989 7.47822 2.00522 7.18489 2.55136 7.18489C3.07048 7.18489 3.35738 7.35858 3.35738 7.70852C3.35738 7.94331 3.16761 8.06232 2.80867 8.10928C1.46679 8.28296 0.415039 8.65349 0.415039 9.68723C0.415039 10.5068 0.99849 11.0027 1.91001 11.0027C2.56101 11.0027 3.13995 10.6412 3.41527 10.1665V10.8741H4.62849V7.90922C4.62849 6.687 3.78001 6.1936 2.67486 6.1936L2.67422 6.19618Z" fill="#101820"/>
		<path fill-rule="evenodd" clip-rule="evenodd" d="M14.8506 6.32908V10.868H16.1487V8.6809C16.1487 7.64201 16.7778 7.33645 17.2159 7.33645C17.4131 7.33491 17.6063 7.39201 17.7711 7.50049L18.0084 6.30078C17.8245 6.22715 17.6276 6.19148 17.4295 6.19593C16.7624 6.19593 16.343 6.49119 16.0664 7.09201V6.32908H14.8506Z" fill="#101820"/>
		<path fill-rule="evenodd" clip-rule="evenodd" d="M24.0238 6.19604C23.3374 6.19604 22.824 6.60131 22.5571 6.99242C22.3094 6.48745 21.7852 6.19604 21.1547 6.19604C20.469 6.19604 19.9936 6.57686 19.7743 7.01558V6.3292H18.5225V10.8681H19.8219V8.53113C19.8219 7.69488 20.2612 7.29026 20.671 7.29026C21.0422 7.29026 21.3831 7.5302 21.3831 8.14967V10.8681H22.6799V8.53113C22.6799 7.68265 23.1084 7.29026 23.5374 7.29026C23.8809 7.29026 24.245 7.53985 24.245 8.14067V10.8681H25.5419V7.73026C25.5419 6.71067 24.8555 6.19604 24.0263 6.19604" fill="#101820"/>
		<path fill-rule="evenodd" clip-rule="evenodd" d="M11.6918 6.32938H10.5159V5.86815C10.5159 5.26733 10.8588 5.09622 11.154 5.09622C11.3556 5.09885 11.5539 5.1484 11.733 5.24095L12.1331 4.32558C12.1331 4.32558 11.7272 4.06055 10.9894 4.06055C10.1602 4.06055 9.2165 4.52821 9.2165 5.99552V6.32938H7.25129V5.86815C7.25129 5.26733 7.59351 5.09622 7.88942 5.09622C8.09136 5.0962 8.29019 5.14591 8.46837 5.24095L8.86848 4.32558C8.62983 4.18599 8.24579 4.06055 7.72538 4.06055C6.8962 4.06055 5.95252 4.52821 5.95252 5.99552V6.32938H5.20117V7.33031H5.95445V10.8683H7.25129V7.33031H9.21907V10.8683H10.5159V7.33031H11.6918V6.32938Z" fill="#101820"/>
		<path d="M13.7614 6.32935H12.4658V10.8664H13.7614V6.32935Z" fill="#101820"/>
		<path fill-rule="evenodd" clip-rule="evenodd" d="M12.5137 5.55807H13.7829C14.5233 3.23006 17.0353 1.1838 20.0226 1.1838C23.6558 1.1838 26.7957 3.94989 26.7957 8.25597C26.8067 9.13985 26.6853 10.0204 26.4354 10.8683H27.6673L27.6795 10.8259C27.8871 9.98645 27.9895 9.1245 27.9844 8.25983C27.9844 3.45778 24.485 0.00146484 20.0252 0.00146484C16.5219 0.00146484 13.3995 2.43304 12.5143 5.55936L12.5137 5.55807Z" fill="#4A4AF4"/>
	</g>
	<defs>
		<clipPath id="clip0_3255_2345">
			<rect width="27.5676" height="11" fill="white" transform="translate(0.416016)"/>
		</clipPath>
	</defs>
</svg>
