<svg xmlns="http://www.w3.org/2000/svg" width="53" height="40"><path d="m11.307 21.358 4.317-.005-.157.989-3.611 3.47 3.03-.006-.176 1.066-4.463.003.187-1.103 3.462-3.336h-2.763l.174-1.078M6.584 19.667a1.08 1.08 0 0 0-.379-.24 2.734 2.734 0 0 0-.502-.135 4.223 4.223 0 0 0-.574-.061c-.138-.006-.226-.006-.226-.006H1.609l-1.258 7.65h1.176l.463-2.833 2.28.01s.89.037 1.519-.3c.629-.335.797-1.1.797-1.1s.07-.283.127-.627a40.718 40.718 0 0 0 .183-1.25s.016-.078.016-.2a1.374 1.374 0 0 0-.154-.67 1.098 1.098 0 0 0-.174-.238zm-.906 1.35c0 .014-.105.627-.243 1.355-.052.278-.265.428-.508.48-.403.087-.836.07-.836.07l-1.905-.005.42-2.542 1.725.006s.116-.003.279 0c.185.002.43.01.632.038.174.023.312.059.356.114.058.073.08.167.088.25.012.123-.008.225-.008.234zM21.479 19.225h1.132l-1.267 7.65-1.135-.003 1.27-7.647M27.519 21.358l1.084-.002.384 3.883 1.67-3.889 1.339.003.395 3.9 1.667-3.897h1.126l-2.39 5.513h-1.336l-.387-3.86-1.686 3.86-1.314.006-.552-5.517M19.39 21.403c-.318-.103-.868-.125-1.334-.12-.45.006-.657.028-.825.064 0 0-.801.117-1.256.684-.456.566-.591 1.805-.591 1.805s-.27 1.37-.19 1.828c.08.455.22.88.734 1.078.513.2.95.189.95.189s.916.072 1.606-.092c.69-.164 1.054-.653 1.054-.653s.163-.211.279-.461c.116-.25.152-.425.157-.447l.072-.297-1.173.002s-.064.78-.698.853c-.633.072-.972.045-1.096.039-.122-.006-.8.025-.746-.547 0-.009 0-.02.003-.036.03-.65.102-.82.102-.82l3.685-.01.158-.918c.182-1.038.052-1.83-.892-2.141zm-.247 2.01-2.525-.002.1-.403s.087-.316.261-.45c.177-.133.4-.158.61-.177.21-.02.77-.062 1.226.033.152.03.295.117.334.244.088.3-.006.756-.006.756z" fill="#D13239"/><path d="M16.342 25.303c0 .008-.003.016-.003.025-.003.044.003-.028.003-.025zM23.292 25.306l-.002.025c0 .044.002-.028.002-.025z" fill="#D13239"/><path d="M26.343 21.406c-.318-.103-.867-.125-1.334-.12-.45.006-.657.028-.825.064 0 0-.8.117-1.256.683-.455.567-.59 1.806-.59 1.806s-.271 1.37-.191 1.828c.08.455.22.88.734 1.077.514.2.95.19.95.19s.916.072 1.606-.092c.69-.164 1.055-.653 1.055-.653s.163-.211.279-.461c.115-.25.151-.425.157-.447l.072-.298-1.174.003s-.063.78-.698.853c-.632.072-.972.044-1.096.042-.121-.006-.8.022-.745-.548 0-.008 0-.02.003-.036.03-.65.102-.82.102-.82l3.685-.01.157-.917c.182-1.042.053-1.836-.891-2.144zm-.257 2.008-2.526-.003.1-.403s.088-.316.262-.45c.174-.133.4-.158.61-.177.21-.02.77-.062 1.225.033.152.03.296.117.334.244.089.298-.005.756-.005.756zM36.487 21.358l.726 4.034 2.051-4.036 1.154.01-2.956 5.765s-.536 1.044-.867 1.308c-.331.264-.536.383-.806.411-.27.028-.381.047-.64 0l-.277-.05.171-1.03s.459.086.73-.023c.273-.108.49-.575.49-.575l.139-.233-1.069-5.583 1.154.002z" fill="#D13239"/><path d="m40.838 21.906 1.19.002.071-.464s.127-.838.411-1c.092-.052.238-.1.406-.13a5.29 5.29 0 0 1 1.03-.05c.494.017.682.022 1.184.08.502.059.375.548.375.548l-.099.73s-.044.328-.16.53c-.102.181-.384.304-.547.356-.392.128-1.733.473-1.733.473l-1.055.305s-.648.189-1.01.592a2.44 2.44 0 0 0-.558 1.103c-.05.238-.328 1.891-.328 1.891l5.692.003.19-1.144-4.502.005.08-.467s.053-.48.246-.638c.06-.05.091-.117.45-.245.215-.078.95-.275.95-.275l1.697-.467s.928-.238 1.292-.75c.364-.508.505-1.483.505-1.483s.1-.947.022-1.244c-.074-.298-.353-.653-.693-.806-.34-.153-.692-.242-1.717-.228-1.024.014-1.532.061-2.05.256-.52.192-.82.542-1.01 1.036-.208.47-.33 1.48-.33 1.48zM51.554 24.033l.797-4.81h-1.413l-4.4 4.755-.199 1.205h3.848l-.281 1.69 1.181.002.279-1.692 1.09.003.196-1.153h-1.098zm-1.176.003-2.488-.003 3.029-3.247-.541 3.25zM9.079 19.856h3.624s.812-.662 1.389-1.087a38.962 38.962 0 0 1 1.626-1.094l-2.048-.964s-1.731 1.078-2.465 1.586c-.713.47-2.126 1.559-2.126 1.559zM16.869 16.994l-1.681-1.138s1.52-.87 3.544-1.681c2.02-.811 3.1-1.15 3.1-1.15l.342 1.614s-1.946.655-3.06 1.186a19.457 19.457 0 0 0-2.245 1.17zM23.417 14.286l-.293-1.653s2.076-.555 3.975-.91c1.902-.356 4.422-.526 4.422-.526l-.833 2.553s-2.217-.306-4.298-.02c-1.62.195-2.973.556-2.973.556zM32.007 13.967l1.402-2.836s3.073-.062 5.723.352c2.65.411 5.073 1.045 5.02 1.073l-6.718 3.536s-1.57-1-3.52-1.614c-1.104-.328-1.907-.511-1.907-.511zM38.638 16.861l1.476 1.128h12.138s-.025-.395-.348-.956c-.201-.35-.569-.722-.952-1.108-.141-.139-.699-.578-1.118-.853-1.071-.7-1.67-.97-2.783-1.478l-8.413 3.267z" fill="#B3B2B1"/><path d="M9.866 21.353c-.456 0-.886.18-1.253.383l.063-.383H7.47l-.966 5.491h1.209l.535-3.041c.11-.617.569-1.38 1.463-1.38l.624-.004.188-1.066h-.657z" fill="#D13239"/></svg>
