<svg viewBox="0 0 27 8" fill="none" xmlns="http://www.w3.org/2000/svg"><path d="M13.295 2.397v-.013l.401-.85A3.584 3.584 0 0011.08.402a3.6 3.6 0 00-3.33 2.236H6.99l-.542 1.07h1.045a3.954 3.954 0 00-.015.294c0 .107.007.212.016.317H6.99l-.474 1.057h1.235A3.599 3.599 0 0011.08 7.6c.836 0 1.605-.289 2.216-.768v-1.36a2.537 2.537 0 01-4.128-.097h2.677l.501-1.057H8.758a2.475 2.475 0 01-.04-.383c0-.05.007-.099.014-.147l.01-.08h3.874l.543-1.071H9.085a2.54 2.54 0 012.185-1.254 2.54 2.54 0 012.025 1.014z" fill="#FFBE00"/><path fill-rule="evenodd" clip-rule="evenodd" d="M24.21 6.324l.36 1.242h1.992L24.366.4h-2.942L19.27 7.566h1.979l.362-1.242h2.6zm-.415-1.436H22.03l.886-3.037.879 3.037zM15.896 5.688h1.437s1.166.107 1.762-.19c.596-.299.772-.801.853-1.1.078-.28.118-1.215.122-1.314v-.009c.017-.337.009-1.12-.352-1.82-.376-.732-1.58-.84-2.06-.853h-.028c-.11-.003-.176 0-.176 0h-3.47v7.164h1.912V5.688zm1.383-3.77h-1.383v2.143h1.272c.178-.002.785-.031.843-.366.063-.368.06-.777.059-.83a4.173 4.173 0 00-.073-.553c-.081-.393-.718-.393-.718-.393z" fill="#fff"/><path d="M4.534 7.522s1.222-.06 1.56-.981c.34-.922.096-2.144.096-2.144s-.128-.822-1.313-1.052l-.002-.004-.001-.004a4.54 4.54 0 00-.445-.052h-.002a66.41 66.41 0 00-1.531-.105l-.02-.008c-.006-.003-.012-.006-.02-.008-.733.013-.746-.312-.746-.353 0-.006-.004-.022-.01-.044-.028-.12-.106-.447.077-.688.21-.274 1.045-.24 1.104-.237.18.008.428.022.55.047.203.041.422.168.393.773h1.803v-.556s.041-.962-.637-1.341C4.842.458 4.247.417 4.037.413h-.002s-1.085-.028-1.6 0a5.006 5.006 0 00-1.047.16C1.148.625.91.72.715.891a.097.097 0 00-.013.015A.11.11 0 01.69.92L.676.93C.67.932.664.936.659.94.646.953.64.965.634.977.631.984.627.992.622 1c-.589.653-.48 1.921-.26 2.68.173.605.88.813 1.215.879l.002.001.002.002.105.015.018.003.014.002.014.002.013.002.011.001c.455.055 1.512.13 1.98.16v.005l.026-.002.187.012.014.001c.177.033.396.136.397.464v.037c.002.376.003.473-.04.535a.18.18 0 00-.068.065c-.084.142-.389.18-.61.19h-1.18c-.501-.068-.488-.61-.488-.61v-.217H.185v.27S.13 6.65.7 7.07c.492.363 1.019.458 1.762.478v.01h.8s.7.031 1.272-.038v.002z" fill="#fff"/></svg>
