<svg viewBox="0 0 1509 1038" fill="none" xmlns="http://www.w3.org/2000/svg">
<path fill-rule="evenodd" clip-rule="evenodd" d="M1134.97 287H374.269C326.061 287 287 326.061 287 374.022V664.261C287 712.222 326.061 751.283 374.022 751.283H734.472L899.369 843.003L862.039 751.283H1134.97C1182.93 751.283 1221.99 712.222 1221.99 664.261V374.022C1221.99 326.061 1182.93 287 1134.97 287ZM358.2 353.997C348.806 354.245 340.153 358.695 334.219 365.864C328.533 373.281 326.308 382.675 328.286 392.07C350.783 535.458 371.797 632.122 391.328 682.061C398.497 700.356 407.397 709.008 417.781 708.267C433.603 707.031 452.886 685.028 475.383 641.764C480.387 631.758 486.486 619.6 493.648 605.327L493.651 605.32L493.689 605.244C503.859 584.975 516.167 560.444 530.514 531.75C551.281 603.692 579.464 657.833 615.064 694.175C625.2 704.311 635.089 709.008 645.225 708.267C653.878 707.772 661.789 702.333 665.497 694.422C669.205 686.758 670.936 678.106 669.947 669.453C667.475 634.595 671.183 585.892 680.578 523.839C690.219 459.561 702.58 413.578 717.414 385.889C720.38 380.45 721.617 374.022 721.122 367.595C720.628 358.942 716.425 350.783 709.503 345.592C702.828 339.906 694.175 337.186 685.522 337.928C674.644 338.422 665.003 344.85 660.306 354.739C636.819 398.003 620.008 468.214 609.872 565.125C593.803 522.85 581.689 479.092 573.778 434.592C569.575 411.847 559.192 401.217 542.381 402.453C530.761 403.195 521.367 410.858 513.703 425.197L429.894 584.408C416.297 528.783 403.442 461.045 391.575 381.439C388.608 361.908 377.483 352.761 358.2 353.997ZM915.936 425.939C903.08 402.947 880.83 386.63 854.872 381.686C847.949 380.203 841.027 379.461 834.105 379.461C797.516 379.461 767.602 398.497 744.363 436.569C724.585 468.955 714.202 506.286 714.697 544.111C714.697 573.53 720.877 598.747 732.991 619.761C745.847 642.753 768.097 659.069 794.055 664.014C800.977 665.497 807.899 666.239 814.822 666.239C851.658 666.239 881.572 647.203 904.563 609.13C924.341 576.497 934.724 539.167 934.23 500.847C934.23 471.428 928.049 446.458 915.936 425.939ZM867.727 531.997C862.536 556.967 852.894 575.755 838.555 588.611C827.43 598.747 817.047 602.703 807.652 600.972C798.258 599.241 790.841 590.836 785.155 576.25C780.952 565.125 778.48 553.505 778.48 541.391C778.48 531.997 779.469 522.603 781.199 513.455C784.908 497.139 791.583 481.811 801.472 467.966C814.08 449.425 827.43 441.514 841.274 444.48C850.669 446.458 858.085 454.617 863.772 469.203C867.974 480.328 870.447 491.947 870.447 503.814C870.447 513.208 869.705 522.603 867.727 531.997ZM1094.18 381.686C1120.14 386.63 1142.39 402.947 1155.24 425.939C1167.36 446.458 1173.54 471.428 1173.54 500.847C1174.03 539.167 1163.65 576.497 1143.87 609.13C1120.88 647.203 1090.97 666.239 1054.13 666.239C1047.21 666.239 1040.29 665.497 1033.36 664.014C1007.41 659.069 985.156 642.753 972.3 619.761C960.186 598.747 954.006 573.53 954.006 544.111C953.511 506.286 963.895 468.955 983.672 436.569C1006.91 398.497 1036.83 379.461 1073.41 379.461C1080.34 379.461 1087.26 380.203 1094.18 381.686ZM1077.86 588.611C1092.2 575.755 1101.84 556.967 1107.04 531.997C1109.01 522.603 1109.76 513.208 1109.76 503.814C1109.76 491.947 1107.28 480.328 1103.08 469.203C1097.39 454.617 1089.98 446.458 1080.58 444.48C1066.74 441.514 1053.39 449.425 1040.78 467.966C1030.89 481.811 1024.22 497.139 1020.51 513.455C1018.78 522.603 1017.79 531.997 1017.79 541.391C1017.79 553.505 1020.26 565.125 1024.46 576.25C1030.15 590.836 1037.57 599.241 1046.96 600.972C1056.36 602.703 1066.74 598.747 1077.86 588.611Z" fill="white"/>
</svg>
